<svg width="134" height="46" viewBox="0 0 134 46" fill="none" xmlns="http://www.w3.org/2000/svg">
<rect width="134" height="46" fill="white"/>
<path d="M32.8563 26.0405C31.2388 32.5285 24.6676 36.4769 18.1789 34.859C11.6929 33.2415 7.74445 26.6699 9.36274 20.1824C10.9795 13.6937 17.5507 9.74488 24.0375 11.3624C30.5258 12.9799 34.4739 19.5523 32.8563 26.0405Z" fill="#F7931A"/>
<path d="M26.4489 21.3862C26.69 19.7747 25.463 18.9084 23.7853 18.3305L24.3296 16.1476L23.0008 15.8164L22.4709 17.9418C22.1216 17.8548 21.7628 17.7727 21.4063 17.6913L21.94 15.5519L20.612 15.2207L20.0674 17.4029C19.7782 17.337 19.4944 17.272 19.2188 17.2035L19.2204 17.1966L17.3879 16.7391L17.0344 18.1583C17.0344 18.1583 18.0203 18.3842 17.9995 18.3982C18.5376 18.5326 18.6349 18.8887 18.6186 19.1711L17.9987 21.6579C18.0358 21.6674 18.0839 21.681 18.1368 21.7022C18.0926 21.6912 18.0453 21.6791 17.9964 21.6674L17.1275 25.1511C17.0616 25.3146 16.8947 25.5598 16.5186 25.4667C16.5318 25.486 15.5527 25.2256 15.5527 25.2256L14.8931 26.7467L16.6222 27.1777C16.9439 27.2583 17.2592 27.3427 17.5695 27.4222L17.0196 29.6301L18.3469 29.9613L18.8915 27.7768C19.254 27.8752 19.606 27.9661 19.9504 28.0516L19.4077 30.2258L20.7365 30.557L21.2864 28.3532C23.5522 28.782 25.256 28.6091 25.9732 26.5597C26.5511 24.9096 25.9444 23.9578 24.7523 23.3371C25.6205 23.1369 26.2745 22.5658 26.4489 21.3862ZM23.4129 25.6435C23.0023 27.2935 20.224 26.4015 19.3233 26.1778L20.053 23.2527C20.9537 23.4775 23.8421 23.9226 23.4129 25.6435ZM23.8239 21.3623C23.4493 22.8633 21.1369 22.1007 20.3868 21.9137L21.0483 19.2608C21.7984 19.4477 24.2141 19.7966 23.8239 21.3623Z" fill="white"/>
<path d="M44.4899 18.3278C45.472 18.3278 46.3205 18.5038 47.0336 18.8493C47.75 19.1983 48.3411 19.6683 48.8153 20.2595C49.2831 20.8537 49.6313 21.5481 49.8561 22.344C50.0794 23.1422 50.1914 24.0002 50.1914 24.9187C50.1914 26.3296 49.9329 27.6625 49.411 28.919C48.8891 30.1774 48.181 31.2688 47.2803 32.1999C46.3803 33.1297 45.3176 33.8628 44.0922 34.4044C42.8686 34.9463 41.5383 35.2173 40.11 35.2173C39.9254 35.2173 39.6006 35.212 39.1419 35.2026C38.6832 35.1931 38.1561 35.1458 37.5657 35.0659C36.9715 34.983 36.3432 34.8604 35.6798 34.6962C35.0167 34.5349 34.387 34.309 33.7939 34.0221L39.0969 11.74L43.8466 11.0039L41.9478 18.911C42.3543 18.7279 42.7638 18.5859 43.1725 18.4826C43.5816 18.3808 44.0207 18.3278 44.4899 18.3278ZM40.5059 31.4494C41.2212 31.4494 41.8952 31.2734 42.5284 30.9279C43.1634 30.5819 43.7115 30.1149 44.1705 29.5332C44.6296 28.9489 44.9929 28.2908 45.2578 27.5554C45.5228 26.8201 45.6567 26.0529 45.6567 25.2548C45.6567 24.2742 45.4929 23.5093 45.1662 22.9564C44.8396 22.4057 44.2352 22.1287 43.3576 22.1287C43.07 22.1287 42.6995 22.1836 42.24 22.2816C41.779 22.3857 41.3665 22.6018 40.9968 22.9269L38.975 31.3241C39.0969 31.3457 39.2048 31.3661 39.2967 31.3854C39.3868 31.4062 39.4863 31.421 39.5855 31.4312C39.6903 31.4429 39.8103 31.449 39.9553 31.449C40.1002 31.449 40.2815 31.4494 40.5059 31.4494Z" fill="#4D4D4D"/>
<path d="M55.1171 34.7909H50.5806L54.4117 18.6697H58.9793L55.1171 34.7909ZM57.3247 16.7055C56.6915 16.7055 56.1174 16.5171 55.608 16.1394C55.0944 15.7639 54.8401 15.186 54.8401 14.4072C54.8401 13.9787 54.9272 13.5768 55.0997 13.1976C55.275 12.8191 55.5039 12.4933 55.7908 12.2163C56.0773 11.9415 56.4092 11.722 56.7862 11.5566C57.1654 11.3939 57.5688 11.3125 57.9987 11.3125C58.6315 11.3125 59.2026 11.501 59.7139 11.8787C60.2233 12.2583 60.4795 12.8362 60.4795 13.6109C60.4795 14.0408 60.3929 14.4442 60.2188 14.8227C60.0458 15.2012 59.8169 15.527 59.53 15.804C59.2458 16.0792 58.9108 16.2979 58.5346 16.4618C58.155 16.6272 57.7531 16.7055 57.3247 16.7055Z" fill="#4D4D4D"/>
<path d="M62.9549 14.6521L67.7065 13.916L66.5397 18.6679H71.6285L70.7096 22.4064H65.6515L64.3041 28.0454C64.18 28.5154 64.1096 28.9544 64.0899 29.3624C64.0676 29.7723 64.1195 30.1243 64.2421 30.4206C64.3639 30.7177 64.5831 30.9467 64.901 31.1086C65.2174 31.2733 65.6704 31.3561 66.2646 31.3561C66.7539 31.3561 67.2308 31.3096 67.6917 31.2173C68.15 31.1264 68.6144 31 69.0844 30.8346L69.4228 34.3301C68.8097 34.5549 68.1459 34.7483 67.4306 34.911C66.7142 35.076 65.866 35.1555 64.8858 35.1555C63.4764 35.1555 62.3838 34.9462 61.6053 34.5295C60.828 34.1098 60.2785 33.5365 59.9496 32.8106C59.6253 32.0873 59.4803 31.2536 59.5208 30.3143C59.5628 29.3726 59.7047 28.383 59.9496 27.3407L62.9549 14.6521Z" fill="#4D4D4D"/>
<path d="M71.4287 28.3529C71.4287 26.9643 71.6535 25.6549 72.1027 24.429C72.5512 23.2021 73.1972 22.1292 74.0355 21.2084C74.8708 20.2921 75.8885 19.5662 77.0863 19.0334C78.2784 18.5035 79.6133 18.2363 81.0843 18.2363C82.0051 18.2363 82.8275 18.3234 83.5511 18.4978C84.2778 18.6738 84.9351 18.9013 85.5297 19.1866L83.9652 22.7442C83.5564 22.5784 83.1322 22.4323 82.6935 22.2998C82.2545 22.1647 81.7186 22.0996 81.0847 22.0996C79.5705 22.0996 78.3734 22.6215 77.4825 23.6619C76.5951 24.703 76.1481 26.1045 76.1481 27.8624C76.1481 28.9043 76.3729 29.7468 76.824 30.3913C77.2729 31.0358 78.1021 31.3564 79.3059 31.3564C79.9001 31.3564 80.4735 31.2943 81.0226 31.1732C81.5759 31.0506 82.0645 30.8961 82.4948 30.7137L82.8336 34.3606C82.2598 34.5831 81.627 34.7841 80.9329 34.96C80.2373 35.13 79.4093 35.2181 78.4491 35.2181C77.1817 35.2181 76.1087 35.0327 75.2311 34.6675C74.3531 34.2966 73.6276 33.8042 73.0561 33.1805C72.4816 32.5553 72.0691 31.8253 71.814 30.9874C71.5589 30.1502 71.4287 29.2707 71.4287 28.3529Z" fill="#4D4D4D"/>
<path d="M91.5818 35.2181C90.4991 35.2181 89.5586 35.0531 88.7608 34.7265C87.9653 34.3999 87.3064 33.9416 86.7853 33.3474C86.2634 32.7563 85.8728 32.0557 85.6052 31.2485C85.3377 30.4416 85.209 29.5481 85.209 28.569C85.209 27.3409 85.4062 26.1132 85.8047 24.8889C86.2013 23.6619 86.7898 22.5595 87.5687 21.5796C88.3415 20.5983 89.2948 19.796 90.4173 19.1704C91.5387 18.5489 92.8285 18.2363 94.2772 18.2363C95.3403 18.2363 96.2759 18.4017 97.0846 18.7283C97.8896 19.0542 98.5527 19.5163 99.0768 20.1074C99.5953 20.7016 99.9893 21.3991 100.254 22.2075C100.521 23.0129 100.653 23.9087 100.653 24.8885C100.653 26.1128 100.458 27.3405 100.072 28.5686C99.6858 29.7907 99.1124 30.8958 98.3555 31.8779C97.6001 32.8577 96.6555 33.6597 95.5208 34.2826C94.3877 34.9055 93.0737 35.2181 91.5818 35.2181ZM93.8492 22.1C93.1767 22.1 92.5821 22.2953 92.0731 22.6809C91.5622 23.0711 91.133 23.5616 90.7871 24.1532C90.4374 24.7473 90.1781 25.3953 90.0029 26.0996C89.8292 26.8054 89.7441 27.4726 89.7441 28.1065C89.7441 29.1295 89.9091 29.9262 90.2334 30.4995C90.5623 31.0699 91.1531 31.3567 92.0118 31.3567C92.6866 31.3567 93.2781 31.163 93.7902 30.7732C94.2981 30.386 94.7276 29.8951 95.0762 29.3025C95.4236 28.7113 95.6851 28.0615 95.8603 27.3561C96.0318 26.6525 96.1192 25.9815 96.1192 25.3487C96.1192 24.3284 95.9549 23.5298 95.6276 22.9572C95.3006 22.3869 94.7072 22.1 93.8492 22.1Z" fill="#4D4D4D"/>
<path d="M105.596 34.7909H101.056L104.887 18.6697H109.457L105.596 34.7909ZM107.8 16.7055C107.167 16.7055 106.594 16.5171 106.085 16.1394C105.574 15.7639 105.317 15.186 105.317 14.4072C105.317 13.9787 105.406 13.5768 105.579 13.1976C105.752 12.8191 105.982 12.4933 106.269 12.2163C106.554 11.9415 106.889 11.722 107.265 11.5566C107.642 11.3939 108.045 11.3125 108.474 11.3125C109.108 11.3125 109.681 11.501 110.191 11.8787C110.702 12.2583 110.96 12.8362 110.96 13.6109C110.96 14.0408 110.868 14.4442 110.697 14.8227C110.525 15.2012 110.295 15.527 110.009 15.804C109.721 16.0792 109.39 16.2979 109.014 16.4618C108.634 16.6272 108.231 16.7055 107.8 16.7055Z" fill="#4D4D4D"/>
<path d="M112.726 19.4036C113.07 19.3029 113.455 19.1818 113.873 19.0501C114.293 18.9184 114.762 18.7958 115.285 18.6852C115.804 18.5713 116.388 18.479 117.031 18.4075C117.674 18.3344 118.407 18.2988 119.221 18.2988C121.614 18.2988 123.263 18.9956 124.174 20.3849C125.083 21.7742 125.241 23.6756 124.65 26.0856L122.564 34.7902H117.997L120.02 26.2688C120.143 25.7367 120.24 25.2224 120.311 24.7198C120.384 24.2217 120.379 23.7827 120.295 23.4027C120.214 23.0273 120.024 22.72 119.73 22.4819C119.43 22.2477 118.978 22.13 118.365 22.13C117.773 22.13 117.171 22.1936 116.557 22.3162L113.584 34.7898H109.015L112.726 19.4036Z" fill="#4D4D4D"/>
</svg>
