<svg width="134" height="46" viewBox="0 0 134 46" fill="none" xmlns="http://www.w3.org/2000/svg">
<rect width="134" height="46" fill="white"/>
<path d="M21.3 9L13 22.78L21.3 19.01V9Z" fill="#8891B1"/>
<path d="M21.3 19.0098L13 22.7798L21.3 27.6897V19.0098Z" fill="#63688E"/>
<path d="M29.6098 22.78L21.2998 9V19.01L29.6098 22.78Z" fill="#63688E"/>
<path d="M21.2998 27.6897L29.6098 22.7798L21.2998 19.0098V27.6897Z" fill="#464A75"/>
<path d="M13 24.3594L21.3 36.0593V29.2594L13 24.3594Z" fill="#8891B1"/>
<path d="M21.2998 29.2594V36.0593L29.6098 24.3594L21.2998 29.2594Z" fill="#63688E"/>
<path d="M43.4903 24.64C43.4903 24.83 43.3203 25 43.1303 25H36.4903C36.6603 26.58 37.8903 28.12 39.6303 28.12C40.8203 28.12 41.7003 27.66 42.3703 26.7C42.4403 26.6 42.5403 26.53 42.6603 26.53C42.8503 26.53 42.9903 26.67 42.9903 26.86C42.9903 26.93 42.9703 26.98 42.9403 27.03C42.2703 28.2 40.9403 28.77 39.6303 28.77C37.3903 28.77 35.8003 26.77 35.8003 24.63C35.8003 22.49 37.3903 20.5 39.6303 20.5C41.8703 20.5 43.4903 22.5 43.4903 24.64ZM42.7703 24.32C42.6303 22.63 41.3703 21.18 39.6303 21.18C37.8903 21.18 36.6503 22.63 36.4903 24.32H42.7703Z" fill="#8891B1"/>
<path d="M51.56 20.6102C51.75 20.6102 51.8901 20.7802 51.8901 20.9502C51.8901 21.1402 51.75 21.2902 51.56 21.2902H49.7801V28.3102C49.7801 28.4802 49.6301 28.6402 49.4401 28.6402C49.2501 28.6402 49.1001 28.4702 49.1001 28.3102V21.2902H47.3901C47.2001 21.2902 47.0601 21.1402 47.0601 20.9502C47.0601 20.7802 47.2001 20.6102 47.3901 20.6102H49.1001V18.0702C49.1001 17.8802 49.2501 17.7402 49.4401 17.7402C49.6301 17.7402 49.7801 17.8802 49.7801 18.0702V20.6102H51.56Z" fill="#8891B1"/>
<path d="M62.3802 24.02V28.26C62.3802 28.45 62.2702 28.59 62.1002 28.59C61.9102 28.59 61.8202 28.45 61.8202 28.26V24.02C61.8202 22.59 60.9902 21.16 59.3902 21.16C57.3402 21.16 56.4302 22.95 56.5402 24.78C56.5402 24.83 56.5302 25.04 56.5302 25.07V28.26C56.5302 28.45 56.4402 28.59 56.2502 28.59C56.0602 28.59 55.9702 28.45 55.9702 28.26V14.33C55.9702 14.16 56.0602 14 56.2502 14C56.4402 14 56.5302 14.17 56.5302 14.33V22.21C57.2102 21.19 58.1202 20.5 59.3102 20.5C61.2602 20.5 62.3802 22.21 62.3802 24.02Z" fill="#8891B1"/>
<path d="M74.3599 24.64C74.3599 24.83 74.1899 25 73.9999 25H67.3599C67.5299 26.58 68.7599 28.12 70.4999 28.12C71.6899 28.12 72.5699 27.66 73.2399 26.7C73.3099 26.6 73.4099 26.53 73.5299 26.53C73.7199 26.53 73.8599 26.67 73.8599 26.86C73.8599 26.93 73.8399 26.98 73.8099 27.03C73.1399 28.2 71.8099 28.77 70.4999 28.77C68.2599 28.77 66.6699 26.77 66.6699 24.63C66.6699 22.49 68.2599 20.5 70.4999 20.5C72.7399 20.5 74.3599 22.5 74.3599 24.64ZM73.6499 24.32C73.5099 22.63 72.2499 21.18 70.5099 21.18C68.7699 21.18 67.5299 22.63 67.3699 24.32H73.6499Z" fill="#8891B1"/>
<path d="M82.5304 20.9506C82.5304 21.1606 82.4104 21.2806 82.2104 21.3106C80.2604 21.6006 79.3704 23.1906 79.3704 25.0506V28.2306C79.3704 28.4206 79.2204 28.5606 79.0304 28.5606C78.8404 28.5606 78.6904 28.4206 78.6904 28.2306V20.9706C78.6904 20.7806 78.8404 20.6406 79.0304 20.6406C79.2204 20.6406 79.3704 20.7806 79.3704 20.9706V22.4506C79.9304 21.5206 81.0204 20.6406 82.1604 20.6406C82.3304 20.6406 82.5304 20.7606 82.5304 20.9506Z" fill="#8891B1"/>
<path d="M93.4502 24.64C93.4502 24.83 93.2802 25 93.0902 25H86.4503C86.6203 26.58 87.8503 28.12 89.5903 28.12C90.7802 28.12 91.6602 27.66 92.3302 26.7C92.4002 26.6 92.5002 26.53 92.6202 26.53C92.8102 26.53 92.9502 26.67 92.9502 26.86C92.9502 26.93 92.9302 26.98 92.9002 27.03C92.2302 28.2 90.9002 28.77 89.5903 28.77C87.3503 28.77 85.7603 26.77 85.7603 24.63C85.7603 22.49 87.3503 20.5 89.5903 20.5C91.8302 20.49 93.4502 22.5 93.4502 24.64ZM92.7402 24.32C92.6002 22.63 91.3402 21.18 89.6002 21.18C87.8603 21.18 86.6203 22.63 86.4603 24.32H92.7402Z" fill="#8891B1"/>
<path d="M104.24 21.0192V23.3292V28.2992C104.24 28.4892 104.07 28.6292 103.9 28.6292C103.71 28.6292 103.56 28.4892 103.56 28.2992V26.9292C103 28.0192 102.03 28.8092 100.79 28.8092C98.8105 28.8092 97.7104 27.0992 97.7104 25.2892V21.0292C97.7104 20.8592 97.8605 20.6992 98.0505 20.6992C98.2405 20.6992 98.3905 20.8692 98.3905 21.0292V25.2892C98.3905 26.7192 99.2004 28.1492 100.8 28.1492C103.04 28.1492 103.57 26.0592 103.57 23.7492V21.0392C103.57 20.8692 103.72 20.7092 103.91 20.7092C104.07 20.6892 104.24 20.8592 104.24 21.0192Z" fill="#8891B1"/>
<path d="M121 24V28.26C121 28.45 120.83 28.59 120.66 28.59C120.47 28.59 120.32 28.45 120.32 28.26V24C120.32 22.57 119.51 21.17 117.91 21.17C115.91 21.17 115.14 23.31 115.14 24.98V28.26C115.14 28.45 114.97 28.59 114.8 28.59C114.61 28.59 114.46 28.45 114.46 28.26V24C114.46 22.57 113.67 21.17 112.08 21.17C110.06 21.17 109.22 22.76 109.29 24.88V25.05V28.26C109.29 28.45 109.14 28.59 108.95 28.59C108.76 28.59 108.61 28.45 108.61 28.26V20.98C108.61 20.79 108.76 20.65 108.95 20.65C109.14 20.65 109.29 20.79 109.29 20.98V22.19C109.85 21.17 110.9 20.5 112.09 20.5C113.45 20.5 114.5 21.36 114.93 22.62C115.48 21.38 116.55 20.5 117.93 20.5C119.89 20.5 121 22.19 121 24Z" fill="#8891B1"/>
</svg>
