<svg width="134" height="46" viewBox="0 0 134 46" fill="none" xmlns="http://www.w3.org/2000/svg">
<rect width="134" height="46" fill="white"/>
<path d="M24.7911 38.5822C33.5123 38.5822 40.5822 31.5123 40.5822 22.7911C40.5822 14.0699 33.5123 7 24.7911 7C16.0699 7 9 14.0699 9 22.7911C9 31.5123 16.0699 38.5822 24.7911 38.5822Z" fill="#26A17B"/>
<path d="M26.4741 24.246V24.2434C26.365 24.251 25.8014 24.284 24.5472 24.284C23.5444 24.284 22.8412 24.2561 22.5924 24.2434V24.246C18.736 24.0759 15.8596 23.4056 15.8596 22.6008C15.8596 21.7986 18.7385 21.1258 22.5924 20.9557V23.5783C22.8437 23.596 23.5672 23.6392 24.565 23.6392C25.7633 23.6392 26.3624 23.5884 26.4741 23.5783V20.9583C30.3229 21.1309 33.1917 21.8011 33.1917 22.6034C33.1917 23.4056 30.3204 24.0759 26.4741 24.2485M26.4741 20.6866V18.3408H31.8436V14.7637H17.2254V18.3408H22.5949V20.6866C18.2308 20.8872 14.9507 21.7504 14.9507 22.7862C14.9507 23.822 18.2333 24.6852 22.5949 24.8883V32.4081H26.4767V24.8883C30.8332 24.6877 34.1082 23.8245 34.1082 22.7887C34.1082 21.7554 30.8332 20.8897 26.4767 20.6891" fill="white"/>
<path d="M53.9957 15.7416V19.5345H57.682V22.3804H53.9703V28.151C53.9703 29.4255 54.6736 30.0475 55.7043 30.0475C56.2197 30.0475 56.8163 29.885 57.3037 29.6413L58.2253 32.4593C57.2783 32.8376 56.4913 33.0001 55.4885 33.028C52.5892 33.1372 50.6928 31.4844 50.6928 28.151V22.3804H48.1997V19.5345H50.6928V16.0945L53.9957 15.7416ZM117.549 19.3568L117.792 20.9003C118.823 19.2476 120.204 19.0039 121.56 19.0039C122.941 19.0039 124.269 19.5446 125 20.2758L123.51 23.1471C122.832 22.5785 122.21 22.2789 121.126 22.2789C119.392 22.2789 117.792 23.2004 117.792 25.6656V32.7107H114.487V19.3517L117.549 19.3568ZM109.447 24.4774C109.232 22.7435 107.876 21.8752 105.979 21.8752C104.192 21.8752 102.727 22.7435 102.24 24.4774H109.447ZM102.187 27.2142C102.402 28.867 103.839 30.0602 106.17 30.0602C107.388 30.0602 108.988 29.5981 109.747 28.8137L111.859 30.9005C110.45 32.3628 108.148 33.0686 106.114 33.0686C101.509 33.0686 98.7693 30.2227 98.7693 25.9423C98.7693 21.8778 101.534 18.9506 105.87 18.9506C110.341 18.9506 113.134 21.7153 112.618 27.2142H102.187ZM87.6089 13.7461V21.1694C88.8022 19.6259 90.2645 19.1638 91.7827 19.1638C95.5756 19.1638 97.2562 21.7381 97.2562 25.6681V32.7132H93.9508V25.6961C93.9508 23.2563 92.6763 22.2281 90.9144 22.2281C88.9621 22.2281 87.6089 23.8808 87.6089 25.8865V32.7157H84.3035V13.7486L87.6089 13.7461ZM78.8299 15.5892V19.3821H82.5162V22.2281H78.8045V27.9987C78.8045 29.2732 79.5103 29.8952 80.5385 29.8952C81.0539 29.8952 81.6505 29.7327 82.1379 29.489L83.0595 32.307C82.1125 32.6853 81.3255 32.8478 80.3227 32.8757C77.4234 32.9848 75.527 31.3296 75.527 27.9987V22.2281H73.0339V19.3821H75.527V15.9421L78.8299 15.5892ZM69.698 24.4774C69.4822 22.7435 68.1265 21.8752 66.23 21.8752C64.4427 21.8752 62.9779 22.7435 62.4904 24.4774H69.698ZM62.4371 27.2142C62.6529 28.867 64.0898 30.0602 66.4204 30.0602C67.639 30.0602 69.2384 29.5981 69.9975 28.8137L72.1098 30.9005C70.7008 32.3628 68.3981 33.0686 66.3646 33.0686C61.7567 33.0686 59.0199 30.2227 59.0199 25.9423C59.0199 21.8778 61.7846 18.9506 66.1183 18.9506C70.5891 18.9506 73.3792 21.7153 72.8663 27.2142H62.4371Z" fill="#5B5A5D"/>
</svg>
