<?xml version="1.0" encoding="UTF-8"?>
<!DOCTYPE svg PUBLIC "-//W3C//DTD SVG 1.1//EN" "http://www.w3.org/Graphics/SVG/1.1/DTD/svg11.dtd">
<!-- Creator: CorelDRAW 2018 (64-Bit) -->
<svg xmlns="http://www.w3.org/2000/svg" xml:space="preserve" width="71px" height="83px" version="1.1" style="shape-rendering:geometricPrecision; text-rendering:geometricPrecision; image-rendering:optimizeQuality; fill-rule:evenodd; clip-rule:evenodd"
viewBox="0 0 0.59 0.69"
 xmlns:xlink="http://www.w3.org/1999/xlink">
 <defs>
  <style type="text/css">
   <![CDATA[
    .str0 {stroke:#2B2A29;stroke-width:0.02;stroke-miterlimit:22.9256}
    .fil0 {fill:none}
   ]]>
  </style>
 </defs>
 <g id="Layer-266">
  <metadata id="CorelCorpID_0Corel-Layer"/>
  <g id="_2997664312656">
   <path class="fil0 str0" d="M0.01 0.68l0.57 0c0,-0.02 0,-0.05 0,-0.07 0,-0.06 0.01,-0.11 -0.04,-0.14 -0.01,0 -0.02,-0.01 -0.03,-0.01 0.01,0.01 0.01,0.02 0.01,0.04 0,0.03 -0.01,0.06 -0.03,0.08l-0.02 0.02c-0.02,0.01 -0.05,0.02 -0.08,0.02l-0.2 0c-0.04,0 -0.07,-0.02 -0.1,-0.05 -0.01,-0.01 -0.02,-0.04 -0.02,-0.07 0,-0.02 0,-0.03 0,-0.04 -0.01,0 -0.03,0.02 -0.04,0.03 -0.01,0.01 -0.02,0.03 -0.02,0.05l0 0.14z"/>
   <path class="fil0 str0" d="M0.35 0.3c0,0.02 0,0.08 0,0.1 -0.01,0.02 -0.03,0.04 -0.06,0.04 -0.03,0 -0.05,-0.02 -0.05,-0.04 -0.01,-0.01 0,-0.08 0,-0.1 -0.02,0 -0.05,0 -0.06,0.01 -0.08,0.04 -0.09,0.15 0,0.2 0.03,0.02 0.07,0.02 0.11,0.02 0.04,0 0.09,0 0.12,-0.02 0.03,-0.01 0.05,-0.03 0.06,-0.07 0.01,-0.05 -0.02,-0.11 -0.07,-0.13 -0.01,-0.01 -0.03,-0.01 -0.05,-0.01z"/>
   <path class="fil0 str0" d="M0.28 0.01c-0.06,0.01 -0.1,0.07 -0.09,0.13 0.01,0.03 0.02,0.05 0.04,0.07 0.01,0.02 0.04,0.04 0.07,0.04 0.04,-0.01 0.06,-0.03 0.07,-0.05 0.01,-0.02 0.03,-0.05 0.03,-0.08 0,-0.07 -0.05,-0.12 -0.12,-0.11zm-0.04 0.08l0 0.07c0,0.02 0.01,0.02 0.01,0l0 -0.03 0.04 0c0,0.02 -0.01,0.04 0,0.04 0.01,0 0.01,-0.02 0.01,-0.04l0.03 0c0.01,0.02 0,0.04 0.01,0.04 0.01,0.01 0.01,-0.02 0.01,-0.03 0,-0.01 0,-0.02 0,-0.03 0,-0.01 0,-0.01 0,-0.02 0,-0.01 0,0 -0.01,-0.01 -0.01,0 -0.01,0.01 -0.01,0.04l-0.03 0c0,-0.01 0,-0.03 0,-0.04 -0.02,0 -0.01,0.01 -0.01,0.04l0 0 -0.04 0 0 -0.02c0,-0.01 0,-0.02 0,-0.02 -0.01,0 -0.01,0.01 -0.01,0.01z"/>
   <path class="fil0 str0" d="M0.2 0.61l0.19 0c0.07,0 0.12,-0.05 0.12,-0.11 0,-0.02 0,-0.03 -0.01,-0.05 -0.01,-0.01 -0.01,-0.02 -0.02,-0.03 0,0.01 0,0.02 -0.01,0.05 -0.01,0.01 -0.01,0.01 -0.01,0.02 -0.03,0.03 -0.07,0.05 -0.1,0.05 -0.03,0 -0.06,0 -0.09,0 -0.04,0 -0.06,0 -0.09,-0.01 -0.04,-0.02 -0.07,-0.06 -0.07,-0.11 -0.01,0.01 -0.02,0.02 -0.02,0.03 -0.01,0.01 -0.01,0.02 -0.01,0.03 -0.01,0.07 0.04,0.13 0.12,0.13z"/>
   <path class="fil0 str0" d="M0.34 0.36l0 0 0 -0.01 0 0 0 -0.1c-0.03,0.01 -0.06,0.02 -0.09,0 0,0.01 0,0.07 0,0.08 0,0.03 -0.01,0.06 0.01,0.08 0.01,0.01 0.03,0.03 0.06,0.01 0.02,-0.01 0.02,-0.03 0.02,-0.06z"/>
  </g>
 </g>
</svg>
