<?xml version="1.0" encoding="UTF-8"?>
<!DOCTYPE svg PUBLIC "-//W3C//DTD SVG 1.1//EN" "http://www.w3.org/Graphics/SVG/1.1/DTD/svg11.dtd">
<!-- Creator: CorelDRAW 2018 (64-Bit) -->
<svg xmlns="http://www.w3.org/2000/svg" xml:space="preserve" width="100px" height="93px" version="1.1" style="shape-rendering:geometricPrecision; text-rendering:geometricPrecision; image-rendering:optimizeQuality; fill-rule:evenodd; clip-rule:evenodd"
viewBox="0 0 1.06 0.99"
 xmlns:xlink="http://www.w3.org/1999/xlink">
 <defs>
  <style type="text/css">
   <![CDATA[
    .fil0 {fill:#2B2A29}
   ]]>
  </style>
 </defs>
 <g id="Layer-266">
  <metadata id="CorelCorpID_0Corel-Layer"/>
  <g id="_2997661169184">
   <path class="fil0" d="M0.1 0.08c-0.05,0 -0.09,0.04 -0.1,0.08 0,0.02 0,0.15 0,0.18 0,0.11 0,0.23 0,0.35 0,0.05 -0.01,0.09 0.04,0.13 0.02,0.01 0.04,0.02 0.07,0.02l0.35 0c0.03,0 0.07,0 0.09,0 0.01,0.01 0.01,0.02 0.02,0.02 0.01,0.02 0.02,0.04 0.03,0.05 0.01,0 0.01,0.01 0.01,0.01 0.03,0.02 0.08,0.05 0.13,0.06 0.08,0.02 0.16,0 0.22,-0.05 0.02,-0.01 0.03,-0.02 0.04,-0.04 0.08,-0.1 0.08,-0.23 0.01,-0.33 -0.01,-0.01 -0.01,-0.01 -0.01,-0.01 -0.01,-0.01 -0.03,-0.03 -0.03,-0.03 -0.01,-0.01 -0.04,-0.03 -0.05,-0.04 0,-0.08 0,-0.16 0,-0.25 0,-0.05 0,-0.1 -0.05,-0.14 -0.01,0 -0.03,-0.01 -0.05,-0.01 0,-0.02 0.01,-0.05 -0.02,-0.07 -0.02,-0.01 -0.04,-0.01 -0.05,0 -0.01,0 -0.02,0.01 -0.02,0.01 -0.01,0.02 -0.01,0.04 -0.01,0.06l-0.05 0c0,-0.02 0,-0.04 -0.01,-0.06 -0.02,-0.02 -0.06,-0.03 -0.09,0 -0.01,0.02 -0.01,0.04 -0.01,0.06 0,0 -0.04,0 -0.05,0 0,-0.02 0,-0.04 -0.01,-0.06 -0.02,-0.02 -0.06,-0.03 -0.08,0 -0.01,0.02 -0.01,0.04 -0.01,0.06l-0.06 0c0,-0.02 0.01,-0.04 0,-0.06 -0.02,-0.03 -0.07,-0.03 -0.09,0 -0.01,0.02 -0.01,0.04 -0.01,0.06l-0.05 0c0,-0.02 0,-0.04 -0.01,-0.06 -0.02,-0.03 -0.06,-0.03 -0.09,0 -0.01,0.02 0,0.04 0,0.06zm0.68 0.41c-0.12,0.01 -0.23,0.12 -0.22,0.25 0.01,0.12 0.12,0.22 0.25,0.21 0.04,0 0.07,-0.01 0.09,-0.03 0.03,-0.01 0.04,-0.02 0.06,-0.04 0.05,-0.05 0.07,-0.11 0.06,-0.18 0,-0.04 -0.02,-0.09 -0.04,-0.12l-0.03 -0.03c-0.05,-0.04 -0.1,-0.06 -0.17,-0.06zm-0.64 -0.45c-0.01,0 -0.01,0.01 -0.01,0.02l0 0.07c0,0.01 0.01,0.02 0.02,0.02 0.01,-0.01 0.01,-0.02 0.01,-0.03l0 -0.06c0,-0.02 -0.01,-0.02 -0.02,-0.02zm0.47 0c-0.01,0 -0.01,0.01 -0.01,0.02l0 0.07c0,0.01 0.01,0.02 0.02,0.02 0.01,-0.01 0.01,-0.02 0.01,-0.03l0 -0.06c0,-0.01 0,-0.01 -0.01,-0.02 0,0 0,0 -0.01,0zm-0.15 0c-0.02,0 -0.01,0.01 -0.01,0.02l0 0.07c0,0.01 0,0.01 0,0.01 0,0.01 0.01,0.01 0.01,0.01 0.01,-0.01 0.01,-0.02 0.01,-0.03 0,-0.01 0,-0.02 0,-0.03 0,-0.02 0.01,-0.06 -0.01,-0.05zm-0.16 0c-0.01,0 -0.01,0.01 -0.01,0.02l0 0.07c0,0.01 0,0.02 0.02,0.02 0.01,-0.01 0.01,-0.02 0.01,-0.03l0 -0.06c0,-0.02 -0.01,-0.02 -0.02,-0.02zm0.47 0c-0.01,0 -0.01,0.01 -0.01,0.02 0,0.02 0,0.03 0,0.04 0,0.02 -0.01,0.05 0.02,0.05 0,-0.01 0,-0.02 0,-0.03l0 -0.07c0,-0.01 0,-0.01 -0.01,-0.01zm-0.73 0.18l0.84 0c0,-0.03 0,-0.05 -0.01,-0.07 -0.01,-0.02 -0.03,-0.03 -0.05,-0.03 0,0.02 0,0.03 -0.01,0.05 -0.02,0.02 -0.06,0.02 -0.08,0 -0.01,-0.02 -0.01,-0.03 -0.01,-0.05l-0.05 0c0,0.02 0,0.03 -0.01,0.05 -0.03,0.02 -0.07,0.02 -0.08,0 -0.02,-0.02 -0.02,-0.03 -0.02,-0.05 0,0 -0.04,0 -0.05,0 0,0.02 0,0.03 -0.01,0.05 -0.02,0.02 -0.06,0.02 -0.08,0 -0.01,-0.02 -0.01,-0.03 -0.01,-0.05l-0.06 0c0,0.02 0,0.03 -0.01,0.05 -0.02,0.03 -0.06,0.02 -0.08,0 -0.01,-0.02 -0.01,-0.03 -0.01,-0.05l-0.05 0c0,0.02 0,0.03 -0.01,0.05 -0.01,0.01 -0.03,0.02 -0.04,0.02 -0.02,0 -0.03,-0.01 -0.04,-0.02 -0.01,-0.02 -0.01,-0.03 -0.01,-0.05 -0.04,0 -0.06,0.03 -0.06,0.06 0,0.01 0,0.03 0,0.04zm0 0.05l0 0.47c0,0.03 0.03,0.06 0.06,0.06 0.15,0 0.29,0 0.44,0 0,-0.01 -0.04,-0.08 0.01,-0.18 0,-0.02 0.01,-0.03 0.02,-0.04 0,-0.01 0,-0.01 0.01,-0.02l0.01 -0.01c0,-0.01 0,-0.01 0,-0.01 0,0 0,0 0,0 -0.01,0 -0.03,0 -0.03,-0.01 -0.01,-0.01 0,-0.02 0.02,-0.02 0.02,0 0.04,-0.01 0.05,0 0.02,-0.01 0.03,-0.02 0.05,-0.03 0.04,-0.02 0.09,-0.03 0.13,-0.02 0.02,0 0.03,0 0.04,0 0.01,0 0.02,0.01 0.03,0.01l0 -0.21 -0.84 0 0 0.01z"/>
   <path class="fil0" d="M0.76 0.61c-0.03,0.01 -0.01,0.04 0,0.06 0,0.02 0.01,0.04 0.02,0.06 0,0 0,0.02 0.01,0.02 0.01,0.01 0.01,0.01 0.02,0.02 0.01,0.01 0.02,0.01 0.03,0.02 0,0 0.01,0.01 0.02,0.01 0.01,-0.01 0.02,-0.02 0.02,-0.03 -0.01,-0.01 -0.02,-0.01 -0.02,-0.02 -0.01,0 -0.02,-0.01 -0.03,-0.01 -0.01,-0.01 -0.01,-0.01 -0.02,-0.02 0,-0.02 -0.01,-0.04 -0.02,-0.06 0,-0.02 -0.01,-0.04 -0.02,-0.04 0,-0.01 -0.01,-0.01 -0.01,-0.01z"/>
   <path class="fil0" d="M0.29 0.71c-0.02,0 -0.02,0.03 0,0.04 0,0 0.04,0 0.05,0 0.02,0 0.03,-0.03 0.01,-0.04 -0.01,0 -0.05,0 -0.06,0z"/>
   <path class="fil0" d="M0.43 0.4c-0.01,0.01 -0.02,0.03 0,0.04 0,0 0.05,0 0.05,0 0.02,0 0.02,-0.03 0.01,-0.03 0,-0.01 -0.05,-0.01 -0.06,-0.01z"/>
   <path class="fil0" d="M0.29 0.51c-0.02,0 -0.01,0.03 0,0.03 0.01,0 0.05,0 0.06,0 0.01,0 0.01,-0.03 0,-0.03 -0.01,-0.01 -0.05,-0.01 -0.06,0z"/>
   <path class="fil0" d="M0.43 0.71c-0.02,0.01 -0.02,0.03 0,0.04 0,0 0.05,0 0.06,0 0.01,-0.01 0.01,-0.03 0,-0.04 -0.01,0 -0.05,0 -0.06,0z"/>
   <path class="fil0" d="M0.15 0.3c-0.02,0.01 -0.02,0.03 0,0.04 0.01,0 0.05,0 0.06,0 0.01,-0.01 0.01,-0.03 0,-0.04 -0.01,0 -0.05,0 -0.06,0z"/>
   <path class="fil0" d="M0.29 0.4c-0.02,0.01 -0.02,0.03 0,0.04 0,0 0.05,0 0.06,0 0.01,0 0.01,-0.03 0,-0.04 -0.01,0 -0.05,0 -0.06,0z"/>
   <path class="fil0" d="M0.71 0.4c-0.02,0.01 -0.02,0.03 0,0.04 0.01,0 0.05,0 0.06,0 0.01,-0.01 0.01,-0.03 0,-0.04 -0.01,0 -0.05,0 -0.06,0z"/>
   <path class="fil0" d="M0.15 0.61c-0.02,0 -0.02,0.03 0,0.03 0,0.01 0.05,0.01 0.06,0.01 0.01,-0.01 0.01,-0.03 0,-0.04 -0.01,0 -0.05,0 -0.06,0z"/>
   <path class="fil0" d="M0.15 0.4c-0.02,0.01 -0.02,0.03 0,0.04 0,0 0.05,0 0.06,0 0.01,0 0.02,-0.03 0,-0.03 -0.01,-0.01 -0.05,-0.01 -0.06,-0.01z"/>
   <path class="fil0" d="M0.15 0.51c-0.01,0 -0.01,0 -0.01,0.01 0,0.01 0,0.02 0.01,0.02 0,0 0.05,0 0.06,0 0.01,0 0.01,-0.03 0,-0.03 -0.01,-0.01 -0.05,-0.01 -0.06,0z"/>
   <path class="fil0" d="M0.71 0.3c-0.02,0.01 -0.02,0.03 0,0.04 0.01,0 0.05,0 0.06,0 0.01,-0.01 0.01,-0.03 0,-0.04 -0.01,0 -0.05,0 -0.06,0z"/>
   <path class="fil0" d="M0.43 0.3c-0.02,0.01 -0.01,0.03 0,0.04 0.01,0 0.05,0 0.06,0 0.01,-0.01 0.01,-0.03 0,-0.04 -0.01,0 -0.05,0 -0.06,0z"/>
   <path class="fil0" d="M0.15 0.71c-0.01,0 -0.02,0.03 0,0.04 0.01,0 0.05,0 0.06,0 0.01,-0.01 0.01,-0.03 0,-0.04 -0.01,0 -0.05,0 -0.06,0z"/>
   <path class="fil0" d="M0.58 0.34c0.03,0 0.06,0 0.06,-0.02 0,-0.03 -0.03,-0.02 -0.06,-0.02 -0.03,0 -0.03,0.04 0,0.04z"/>
   <path class="fil0" d="M0.43 0.61c-0.02,0 -0.02,0.03 0,0.03 0,0.01 0.05,0.01 0.06,0.01 0.01,-0.01 0.01,-0.03 0,-0.04 -0.01,0 -0.05,0 -0.06,0z"/>
   <path class="fil0" d="M0.29 0.3c-0.02,0.01 -0.02,0.03 0,0.04 0.01,0 0.05,0 0.06,0 0.01,-0.01 0.01,-0.03 0,-0.04 -0.01,0 -0.05,0 -0.06,0z"/>
   <path class="fil0" d="M0.29 0.61c-0.02,0.01 -0.01,0.03 0,0.04 0.01,0 0.05,0 0.06,-0.01 0.01,0 0.01,-0.02 0,-0.03 -0.01,0 -0.05,0 -0.06,0z"/>
   <path class="fil0" d="M0.58 0.44l0.04 0c0.01,0 0.03,-0.01 0.02,-0.03 -0.01,-0.01 -0.02,-0.01 -0.04,-0.01 -0.02,0 -0.03,0 -0.04,0.01 -0.01,0.01 0,0.03 0.02,0.03z"/>
   <path class="fil0" d="M0.43 0.51c-0.02,0 -0.02,0.03 0,0.03 0.01,0 0.05,0 0.06,0 0.01,0 0.01,-0.03 0,-0.03 -0.01,-0.01 -0.05,-0.01 -0.06,0z"/>
   <path class="fil0" d="M0.96 0.7c-0.02,0.01 -0.02,0.03 -0.01,0.04 0.01,0 0.04,0 0.05,0 0.02,0 0.02,-0.02 0.01,-0.03 -0.01,-0.01 -0.01,-0.01 -0.02,-0.01 -0.01,0 -0.02,0 -0.03,0z"/>
   <path class="fil0" d="M0.59 0.7c-0.02,0.01 -0.02,0.02 -0.01,0.04 0.01,0 0.05,0 0.05,0 0.02,0 0.02,-0.02 0.01,-0.03 -0.01,-0.01 -0.05,-0.01 -0.05,-0.01z"/>
   <path class="fil0" d="M0.79 0.5c-0.02,0.01 -0.01,0.02 -0.01,0.04 0,0.01 -0.01,0.02 0,0.03 0,0 0.01,0.01 0.02,0 0.02,0 0.01,-0.02 0.01,-0.04 0,-0.01 0,-0.01 0,-0.02 0,-0.01 -0.01,-0.01 -0.02,-0.01z"/>
   <path class="fil0" d="M0.79 0.87c-0.02,0 -0.01,0.02 -0.01,0.04 0,0.01 -0.01,0.03 0.02,0.03 0,0 0.01,-0.01 0.01,-0.01 0,-0.01 0.01,-0.05 0,-0.05 0,-0.01 -0.01,-0.01 -0.02,-0.01z"/>
  </g>
 </g>
</svg>
