<?xml version="1.0" encoding="UTF-8"?>
<!DOCTYPE svg PUBLIC "-//W3C//DTD SVG 1.1//EN" "http://www.w3.org/Graphics/SVG/1.1/DTD/svg11.dtd">
<!-- Creator: CorelDRAW 2018 (64-Bit) -->
<svg xmlns="http://www.w3.org/2000/svg" xml:space="preserve" width="81px" height="80px" version="1.1" style="shape-rendering:geometricPrecision; text-rendering:geometricPrecision; image-rendering:optimizeQuality; fill-rule:evenodd; clip-rule:evenodd"
viewBox="0 0 0.69 0.69"
 xmlns:xlink="http://www.w3.org/1999/xlink">
 <defs>
  <style type="text/css">
   <![CDATA[
    .str0 {stroke:#2B2A29;stroke-width:0.02;stroke-miterlimit:22.9256}
    .fil0 {fill:none}
   ]]>
  </style>
 </defs>
 <g id="Layer-266">
  <metadata id="CorelCorpID_0Corel-Layer"/>
  <g id="_2997741210752">
   <path class="fil0 str0" d="M0.32 0.01c-0.01,0 -0.02,0.01 -0.02,0.02l-0.12 0.11c0,0 0,0 0,0.01l-0.01 0.01c0,0 -0.01,0 -0.01,0 0,0 0,0 0,0.01 -0.03,0.02 -0.06,0.05 -0.08,0.08 -0.01,0 -0.01,0.01 -0.01,0.03l0 0.28c0,0.02 0,0.05 0.01,0.07 0,0.02 0.02,0.03 0.04,0.04 0.02,0.01 0.04,0.01 0.07,0.01l0.4 0c0.03,0 0.04,-0.01 0.06,-0.02 0.01,-0.01 0.03,-0.03 0.03,-0.05 0,-0.01 0,-0.06 0,-0.08l0 -0.4c0,-0.02 0,-0.05 -0.01,-0.07 0,-0.01 -0.01,-0.02 -0.01,-0.02 -0.01,-0.01 -0.02,-0.02 -0.03,-0.02 -0.02,-0.01 -0.04,-0.01 -0.07,-0.01l-0.2 0c-0.01,0 -0.03,0 -0.04,0zm-0.04 0.11l0.19 0c0,0 0,0 0.01,-0.01 0,0 0.01,0 0.01,-0.01 0,0 0.01,0 0.01,0l0.03 -0.03c-0.05,0 -0.1,0 -0.15,0 -0.02,0 -0.03,0 -0.04,0 -0.01,0 -0.01,0 -0.01,0l-0.05 0.05zm-0.16 0.16l0 0.31c0,0.02 0.02,0.03 0.03,0.03l0.45 0c0.01,0 0.02,0 0.02,-0.01 0.01,-0.01 0,-0.02 0,-0.04l0 -0.45c0,-0.01 0.01,-0.03 0,-0.04 0,0 -0.01,-0.01 -0.02,-0.01 0,0 0,0 0,0l-0.02 0.02c0,0 0,0 0,0l-0.02 0.02c0,0.01 -0.01,0.01 -0.01,0.01l-0.03 0.04c-0.01,0 -0.01,0.01 -0.03,0.02 0,0 -0.03,0 -0.04,0l-0.21 0c-0.02,0 -0.01,-0.01 -0.03,0.01 -0.01,0.01 -0.03,0.03 -0.03,0.04l-0.05 0.04c0,0 -0.01,0.01 -0.01,0.01z"/>
   <path class="fil0 str0" d="M0.37 0.51c0.04,0 0.06,-0.02 0.07,-0.04 0.02,-0.02 0.02,-0.05 0.01,-0.08 -0.02,-0.04 -0.04,-0.08 -0.07,-0.12 0,0 0,-0.01 -0.01,-0.01 0,0 -0.01,0.03 -0.02,0.03 -0.02,0.03 -0.04,0.07 -0.05,0.1 -0.01,0.03 -0.01,0.06 0.01,0.08 0,0.01 0.01,0.02 0.02,0.03 0.01,0.01 0.03,0.01 0.04,0.01z"/>
   <path class="fil0 str0" d="M0.01 0.19c0.01,0 0.01,0 0.01,0l0.02 0.03c0,0 0.01,0 0.01,0 0,0 0,0 0,0 0,0 0,0 0,0.01l0.07 -0.07c0,0 0,0 0,0 0,0 0.01,-0.01 0.01,-0.01 0,0 0.02,-0.01 0.02,-0.02 0,0 0,0 0,0l0.03 -0.02c0,0 -0.01,-0.01 -0.01,-0.01l-0.02 -0.02c0,0 0,-0.01 -0.01,-0.01 0,0 0,0 0,0 0,0 -0.01,0 -0.01,0 0,0.01 0,0.01 -0.01,0.01l-0.08 0.08c-0.01,0.01 -0.01,0.01 -0.01,0.01l-0.02 0.02z"/>
  </g>
 </g>
</svg>
