<?xml version="1.0" encoding="UTF-8"?>
<!DOCTYPE svg PUBLIC "-//W3C//DTD SVG 1.1//EN" "http://www.w3.org/Graphics/SVG/1.1/DTD/svg11.dtd">
<!-- Creator: CorelDRAW 2018 (64-Bit) -->
<svg xmlns="http://www.w3.org/2000/svg" xml:space="preserve" width="113px" height="97px" version="1.1" style="shape-rendering:geometricPrecision; text-rendering:geometricPrecision; image-rendering:optimizeQuality; fill-rule:evenodd; clip-rule:evenodd"
viewBox="0 0 1.62 1.39"
 xmlns:xlink="http://www.w3.org/1999/xlink">
 <defs>
  <style type="text/css">
   <![CDATA[
    .fil0 {fill:#2B2A29}
   ]]>
  </style>
 </defs>
 <g id="Layer-266">
  <metadata id="CorelCorpID_0Corel-Layer"/>
  <g id="_2962217534928">
   <path class="fil0" d="M0.49 0.1l-0.34 0.34c-0.01,0.01 -0.04,0.04 -0.05,0.05 0,0 0,0 0,0l-0.01 -0.01c-0.03,-0.04 -0.06,-0.08 -0.03,-0.12l0.15 -0.15c0.01,-0.01 0.05,-0.04 0.03,-0.06 -0.02,-0.03 -0.04,0.01 -0.06,0.02l-0.15 0.15c-0.03,0.04 -0.04,0.1 -0.01,0.15 0.01,0.02 0.03,0.03 0.04,0.05 0.1,0.14 0.08,0.14 0.15,0.07 0,0 0.02,0.02 0.02,0.03 0,0.01 -0.03,0.03 -0.05,0.07 -0.02,0.03 -0.03,0.06 -0.03,0.1 -0.01,0.1 0.04,0.21 0.13,0.26 0.01,0 0.03,0.01 0.04,0.02 0.02,0 0.04,0 0.04,0.02 0.04,0.12 0.12,0.13 0.13,0.14 0,0.03 -0.01,0.08 0,0.11 0.02,0.05 0.1,0.06 0.13,0.01 0,0 0,-0.01 0.01,-0.01 0.03,-0.01 0.03,0 0.04,0.02 0.01,0.01 0.02,0.02 0.04,0.02 0.06,0.02 0.07,-0.04 0.09,-0.04 0.03,-0.01 0.03,0.02 0.05,0.03 0.03,0.02 0.06,0.02 0.09,0 0.01,-0.01 0.02,-0.03 0.02,-0.03 0.01,0 0.03,0 0.03,0 0.01,0 0.01,0.01 0.01,0.02 0.03,0.04 0.13,0.04 0.13,-0.05l0 -0.17c0,-0.02 0.02,-0.02 0.04,-0.02 0.03,-0.01 0.05,-0.03 0.08,-0.04 0.04,-0.01 0.04,-0.01 0.08,-0.03 0.07,-0.03 0.03,-0.06 0.02,-0.06 -0.02,0 -0.06,0.03 -0.08,0.04 0,-0.01 0.01,-0.05 0.01,-0.05 0,-0.01 0.03,-0.02 0.04,-0.03 0.07,-0.06 0.08,-0.16 0.03,-0.23l-0.03 -0.04c0,0 0.02,-0.02 0.03,-0.03 0.02,0.01 0.04,0.04 0.05,0.07 0.04,0.06 0.03,0.13 0,0.19 0,0.01 -0.03,0.05 0.01,0.06 0.03,0.01 0.05,-0.06 0.06,-0.09 0.02,-0.08 0,-0.16 -0.05,-0.23 -0.01,-0.01 -0.03,-0.02 -0.03,-0.03 0,-0.01 0.01,-0.02 0.02,-0.03 0.02,0.01 0.04,0.05 0.06,0.04 0.01,0 0.09,-0.11 0.1,-0.12 0.01,-0.02 0.03,-0.05 0.04,-0.07 0.01,-0.03 0.01,-0.07 0,-0.09 -0.02,-0.03 -0.14,-0.15 -0.17,-0.17 -0.03,-0.04 -0.07,-0.08 -0.11,-0.11 -0.01,-0.02 -0.03,-0.04 -0.05,-0.06 -0.03,-0.01 -0.07,-0.01 -0.1,0 -0.03,0.01 -0.1,0.06 -0.13,0.08 -0.05,0.04 -0.09,0.05 -0.05,0.09 0.01,0.01 0.02,0.02 0.03,0.03 -0.01,0.01 -0.12,0.12 -0.14,0.14 -0.01,0.01 -0.02,0.02 -0.03,0.02l-0.1 0c-0.01,0 -0.02,-0.01 -0.03,-0.02 -0.02,-0.02 -0.13,-0.13 -0.14,-0.14 0.01,-0.01 0.02,-0.02 0.03,-0.04 0.02,-0.01 0.01,-0.03 0,-0.04 -0.04,-0.03 -0.12,-0.09 -0.16,-0.11 -0.03,-0.02 -0.07,-0.03 -0.11,-0.01 -0.02,0.01 -0.05,0.04 -0.07,0.06 -0.01,0.01 -0.03,0.03 0,0.05 0.02,0.01 0.05,-0.03 0.07,-0.05 0.01,-0.01 0.03,-0.02 0.05,-0.02 0.02,0 0.04,0.01 0.05,0.02 0.01,0.01 0.03,0.02 0.04,0.03zm0.32 0.98l0.18 0c-0.03,-0.04 -0.06,-0.07 -0.06,-0.13 0,0.01 -0.08,0.09 -0.09,0.1l-0.03 0.03zm0.1 0.05l-0.04 0c0,0.02 0,0.14 0,0.17 0,0.02 0,0.04 0.02,0.04 0.02,0 0.03,-0.02 0.03,-0.04 0,-0.03 0,-0.16 -0.01,-0.17zm0.13 0l0 0.15c0,0.02 -0.01,0.05 0.01,0.06 0.02,0 0.03,-0.01 0.03,-0.03l0 -0.15c0,-0.04 -0.01,-0.03 -0.04,-0.03zm-0.34 0.07l0 0.11c0,0.04 0.05,0.04 0.05,0 0,-0.03 0,-0.15 0,-0.17 -0.01,0 0,0 -0.02,0.01 -0.01,0.01 -0.03,0.02 -0.03,0.05zm-0.16 0.07c0,0.03 -0.01,0.06 0.01,0.07 0.03,0 0.03,-0.02 0.03,-0.04l0 -0.06 -0.04 0 0 0.03zm0.26 0.02l0.02 0 0 -0.16 -0.02 0 0 0.16zm0.17 -0.01l0 0.01 0.02 0 0 -0.16c-0.01,0 0,0 -0.01,0l-0.01 0 0 0.15zm-0.34 0.01l0.02 0 0 -0.07c-0.01,0 -0.02,0 -0.02,0.02 0,0.01 0,0.04 0,0.05zm-0.1 -0.4c-0.09,0.01 -0.14,0.09 -0.12,0.18 0.01,0.07 0.08,0.14 0.18,0.12 0.07,-0.01 0.14,-0.09 0.12,-0.18 -0.01,-0.07 -0.09,-0.14 -0.18,-0.12zm0.15 -0.18l-0.07 0.06c-0.01,0.01 -0.06,0.06 -0.06,0.06 0.13,0.02 0.2,0.09 0.21,0.22 0.01,0 0.06,-0.06 0.07,-0.07l0.15 -0.14c0.05,-0.04 0.04,-0.03 0.1,-0.05l-0.07 -0.05c-0.02,-0.02 -0.04,-0.03 -0.06,-0.05 -0.01,0.02 -0.01,0.13 -0.13,0.14 -0.08,0.01 -0.14,-0.05 -0.14,-0.12zm-0.16 -0.43c0.01,0.01 0.01,0.01 0.01,0.01 0.01,0.01 0.01,0.01 0.02,0.01 0.02,0.03 0.06,0.06 0.06,0.09 0,0.04 -0.03,0.07 -0.07,0.07 -0.04,0 -0.05,-0.02 -0.07,-0.03l-0.05 -0.05 -0.04 0.04c0.01,0.03 0.09,0.06 0.09,0.12 0,0.03 -0.04,0.07 -0.07,0.07 -0.04,0 -0.07,-0.04 -0.09,-0.06 -0.01,-0.01 -0.02,-0.02 -0.03,-0.03 0,0.01 -0.03,0.03 -0.03,0.04l0.14 0.14 0.24 -0.23c0.01,-0.01 0.07,-0.07 0.07,-0.08l-0.14 -0.14c-0.01,0 -0.03,0.02 -0.04,0.03zm0.57 0.55c-0.07,0.02 -0.12,0.07 -0.11,0.15 0.02,0.06 0.07,0.11 0.15,0.1 0.06,-0.01 0.11,-0.07 0.1,-0.14 -0.01,-0.06 -0.07,-0.12 -0.14,-0.11zm-0.29 -0.22c-0.05,0.01 -0.08,0.05 -0.08,0.1 0.01,0.04 0.05,0.08 0.1,0.07 0.11,-0.01 0.09,-0.18 -0.02,-0.17zm-0.61 0.2c0,0.06 0.02,0.11 0.05,0.15 0.03,0.02 0.06,0.06 0.11,0.06l0.01 -0.04c-0.01,-0.01 -0.03,-0.01 -0.05,-0.02 -0.08,-0.05 -0.1,-0.17 -0.03,-0.25l0.02 -0.03c-0.01,0 -0.02,-0.02 -0.03,-0.03 -0.05,0.04 -0.08,0.1 -0.08,0.16zm0.1 0c0,0.06 0.03,0.11 0.08,0.12 0.02,0.01 0.03,-0.01 0.04,-0.03 0.01,-0.01 0,-0.03 0,-0.05 -0.01,-0.01 -0.02,-0.03 -0.02,-0.05 -0.01,-0.02 -0.01,-0.03 -0.02,-0.05 -0.01,-0.01 -0.02,-0.03 -0.03,-0.03 -0.02,0.02 -0.05,0.05 -0.05,0.09zm0.99 0.11c0.03,-0.01 0.05,-0.06 0.05,-0.1 0,-0.05 -0.02,-0.08 -0.05,-0.1 -0.03,0.02 -0.04,0.06 -0.05,0.1 -0.01,0.01 0,0.02 0.01,0.02 0.01,0.02 0.03,0.05 0.04,0.08zm-0.82 -0.07c0.02,-0.01 0.06,-0.05 0.08,-0.07 0.02,-0.03 0.05,-0.05 0.08,-0.08 0.02,-0.03 0.05,-0.05 0.07,-0.08 0.03,-0.02 0.05,-0.05 0.1,-0.05 0.07,-0.01 0.11,0.03 0.16,0.07l0.14 0.09c0.01,0.01 0.08,0.06 0.09,0.07 0.01,-0.07 0.04,-0.03 -0.05,-0.12l-0.23 -0.23c-0.03,-0.03 -0.02,-0.03 -0.09,-0.03 -0.05,0 -0.05,-0.01 -0.08,0.02l-0.27 0.27c-0.04,0.04 -0.04,0.03 -0.03,0.06 0.01,0.03 0.02,0.06 0.03,0.08zm0.67 -0.75c0.03,0.03 0.07,0.06 0.1,0.09l0.24 0.25c0.02,0.01 0.04,0.04 0.05,0.05 0.01,-0.01 0.04,-0.06 0.05,-0.07 0.01,-0.05 -0.02,-0.07 -0.04,-0.09l-0.24 -0.24c-0.04,-0.04 -0.07,-0.06 -0.12,-0.02 -0.01,0.01 -0.04,0.02 -0.04,0.03zm-0.21 0.29c0,0.01 0.03,0.03 0.03,0.04 0.03,0.03 0.09,0.09 0.12,0.12 0.03,0.03 0.05,0.05 0.08,0.08 0.01,0.01 0.07,0.07 0.08,0.07l0.14 -0.14c0,-0.01 -0.01,-0.01 -0.01,-0.02 -0.01,-0.01 -0.01,-0.01 -0.02,-0.02l-0.03 0.03c-0.01,0.02 -0.03,0.03 -0.04,0.04 -0.02,0.02 -0.07,0.02 -0.09,0 -0.03,-0.03 -0.03,-0.07 -0.01,-0.1l0.07 -0.07c0,0 -0.03,-0.03 -0.04,-0.04 -0.03,0.02 -0.06,0.08 -0.12,0.08 -0.04,0 -0.07,-0.03 -0.07,-0.07 0,-0.03 0.02,-0.05 0.04,-0.06 0.01,-0.01 0.04,-0.04 0.05,-0.05 -0.01,-0.01 -0.03,-0.03 -0.04,-0.03l-0.14 0.14zm0.13 -0.23c0.02,0.02 0.08,0.07 0.1,0.1l0.26 0.26c0.02,0.01 0.03,0.03 0.05,0.05 0.01,-0.01 0.03,-0.03 0.03,-0.04 -0.03,-0.03 -0.07,-0.06 -0.1,-0.1l-0.2 -0.2c-0.02,-0.01 -0.1,-0.09 -0.1,-0.1 -0.01,0 -0.04,0.02 -0.04,0.03zm-0.92 0.37c0.01,0.01 0.02,0.03 0.03,0.04 0.01,-0.01 0.01,-0.02 0.02,-0.03 0.1,-0.09 0.19,-0.19 0.29,-0.28 0.01,-0.01 0.09,-0.1 0.1,-0.1 -0.01,-0.01 -0.03,-0.03 -0.04,-0.03 0,0.01 -0.18,0.19 -0.2,0.2 -0.03,0.04 -0.06,0.07 -0.1,0.1l-0.1 0.1zm0.19 -0.05c0,0.02 0.01,0.02 0.02,0.03l0.04 0.04c0.01,0.01 0.02,0.01 0.03,0 0.02,-0.02 -0.01,-0.04 -0.02,-0.05 -0.02,-0.02 -0.03,-0.03 -0.05,-0.04 -0.01,0 -0.01,0.02 -0.02,0.02zm0.84 -0.13c0,-0.01 -0.02,-0.03 -0.03,-0.03 -0.01,0 -0.03,0.03 -0.04,0.04 -0.01,0.01 -0.04,0.03 -0.02,0.05 0.02,0.02 0.03,0 0.05,-0.02 0.01,-0.01 0.01,-0.02 0.02,-0.02 0.01,-0.01 0.01,-0.02 0.02,-0.02zm-0.7 -0.01c0.01,0.02 0.02,0.03 0.04,0.05 0.01,0 0.01,0.01 0.02,0.02 0.03,0.02 0.05,-0.01 0.03,-0.03l-0.06 -0.06c-0.01,0 -0.03,0.02 -0.03,0.02zm0.84 0.15l-0.02 -0.03 -0.07 0.06c-0.02,0.02 0.01,0.05 0.03,0.03 0.01,0 0.01,-0.01 0.02,-0.02 0.02,-0.01 0.03,-0.03 0.04,-0.04z"/>
   <path class="fil0" d="M1.09 0.89c-0.09,0.02 -0.06,0.16 0.03,0.14 0.04,-0.01 0.07,-0.04 0.06,-0.09 -0.01,-0.03 -0.04,-0.06 -0.09,-0.05z"/>
   <path class="fil0" d="M0.54 0.97c-0.09,0.02 -0.06,0.16 0.03,0.14 0.09,-0.02 0.07,-0.16 -0.03,-0.14z"/>
  </g>
 </g>
</svg>
