<?xml version="1.0" encoding="UTF-8"?>
<!DOCTYPE svg PUBLIC "-//W3C//DTD SVG 1.1//EN" "http://www.w3.org/Graphics/SVG/1.1/DTD/svg11.dtd">
<!-- Creator: CorelDRAW 2018 (64-Bit) -->
<svg xmlns="http://www.w3.org/2000/svg" xml:space="preserve" width="320px" height="325px" version="1.1" style="shape-rendering:geometricPrecision; text-rendering:geometricPrecision; image-rendering:optimizeQuality; fill-rule:evenodd; clip-rule:evenodd"
viewBox="0 0 12.98 13.21"
 xmlns:xlink="http://www.w3.org/1999/xlink">
 <defs>
  <style type="text/css">
   <![CDATA[
    .fil2 {fill:#FEFEFE}
    .fil1 {fill:#E31E24}
    .fil0 {fill:#FEFEFE;fill-rule:nonzero}
   ]]>
  </style>
 </defs>
 <g id="Layer-152">
  <metadata id="CorelCorpID_0Corel-Layer"/>
  <g id="_2997665320624">
   <path class="fil0" d="M6.49 0c1.79,0 3.42,0.74 4.59,1.94 1.18,1.19 1.9,2.85 1.9,4.67 0,1.82 -0.72,3.47 -1.9,4.67 -1.17,1.19 -2.8,1.93 -4.59,1.93 -1.79,0 -3.41,-0.74 -4.59,-1.93 -1.17,-1.2 -1.9,-2.85 -1.9,-4.67 0,-1.82 0.73,-3.48 1.9,-4.67 1.18,-1.2 2.8,-1.94 4.59,-1.94z"/>
   <path class="fil1" d="M6.49 0.39c3.37,0 6.11,2.78 6.11,6.22 0,3.43 -2.74,6.22 -6.11,6.22 -3.37,0 -6.1,-2.79 -6.1,-6.22 0,-3.44 2.73,-6.22 6.1,-6.22z"/>
  </g>
 </g>
 <g id="Layer-184">
  <metadata id="CorelCorpID_1Corel-Layer"/>
  <path class="fil2" d="M4.93 9.67l0 -0.9c0.05,0.05 0.05,0.14 0.06,0.21l0.12 0.75c0.59,0.14 1.45,0.16 2.06,0.03 0.33,-0.07 0.12,-0.57 0.3,-0.99l0.02 0.9c0.17,-0.03 0.36,-0.11 0.5,-0.18 0.29,-0.13 0.34,-0.17 0.34,-0.35 0,-0.46 0.04,-0.87 -0.2,-1.19 -0.18,-0.25 -0.44,-0.46 -0.82,-0.6 -0.6,-0.22 -0.34,0.1 -1.1,0.1 -0.76,-0.01 -0.5,-0.31 -1.09,-0.1 -0.32,0.11 -0.62,0.3 -0.82,0.58 -0.26,0.36 -0.21,0.68 -0.22,1.18 0,0.16 0,0.18 0.1,0.24 0.19,0.13 0.52,0.28 0.75,0.32z"/>
 </g>
 <g id="Layer-185">
  <metadata id="CorelCorpID_2Corel-Layer"/>
  <path class="fil2" d="M5.53 3.21l0.1 0.58c0.69,-0.05 1.07,-0.08 1.71,0.15 0.92,0.34 1.62,1.07 1.96,1.96 0.15,0.41 0.3,1.25 0.15,1.71 -0.09,-0.1 -0.2,-0.84 -0.31,-1.01 -0.07,0.06 -0.26,0.43 -0.33,0.54 -0.18,0.33 -0.22,0.24 -0.11,0.64 0.12,0.46 0.29,0.96 0.38,1.41l1.42 -0.39c0.38,-0.1 0.3,-0.09 0.48,-0.41 0.07,-0.13 0.29,-0.48 0.31,-0.58l-1.35 0.37c0.14,-0.81 0.26,-1.25 0.02,-2.16 -0.32,-1.18 -1.18,-2.12 -2.3,-2.59 -0.64,-0.26 -1.37,-0.32 -2.13,-0.22z"/>
 </g>
 <g id="Layer-186">
  <metadata id="CorelCorpID_3Corel-Layer"/>
  <path class="fil2" d="M6.05 4.71c-0.58,0.08 -1.08,0.59 -0.99,1.29 0.08,0.59 0.63,1.08 1.31,0.99 0.57,-0.08 1.07,-0.62 0.98,-1.31 -0.08,-0.57 -0.63,-1.07 -1.3,-0.97z"/>
 </g>
 <g id="Layer-187">
  <metadata id="CorelCorpID_4Corel-Layer"/>
  <path class="fil2" d="M2.56 5.73l0.53 0.19c0.04,-0.05 0.24,-0.48 0.25,-0.54 -0.16,-0.05 -0.36,-0.24 -0.51,-0.26 -0.08,0.12 -0.25,0.46 -0.27,0.61z"/>
 </g>
 <g id="Layer-188">
  <metadata id="CorelCorpID_5Corel-Layer"/>
  <path class="fil2" d="M4.26 3.68c0.07,0.1 0.24,0.39 0.28,0.5 0.08,-0.02 0.42,-0.19 0.53,-0.24l-0.19 -0.54c-0.17,0.03 -0.48,0.19 -0.62,0.28z"/>
 </g>
 <g id="Layer-189">
  <metadata id="CorelCorpID_6Corel-Layer"/>
  <path class="fil2" d="M3.24 4.57c0.14,0.09 0.28,0.24 0.43,0.34l0.4 -0.39c-0.08,-0.15 -0.25,-0.29 -0.34,-0.44 -0.11,0.02 -0.15,0.09 -0.27,0.22 -0.08,0.08 -0.2,0.15 -0.22,0.27z"/>
 </g>
 <g id="Layer-190">
  <metadata id="CorelCorpID_7Corel-Layer"/>
  <path class="fil2" d="M2.39 7.73c0,0.13 0.11,0.54 0.17,0.64l0.54 -0.18 -0.15 -0.56 -0.56 0.1z"/>
 </g>
 <g id="Layer-191">
  <metadata id="CorelCorpID_8Corel-Layer"/>
  <path class="fil2" d="M2.32 7.05l0.58 -0.03 0.05 -0.55 -0.58 -0.09c-0.02,0.23 -0.06,0.43 -0.05,0.67z"/>
 </g>
 <g id="Layer-192">
  <metadata id="CorelCorpID_9Corel-Layer"/>
  <path class="fil2" d="M2.85 8.99c0.04,0.11 0.16,0.26 0.22,0.35 0.07,-0.03 0.42,-0.28 0.47,-0.35 -0.04,-0.08 -0.12,-0.2 -0.18,-0.27 -0.16,0.04 -0.35,0.2 -0.51,0.27z"/>
 </g>
</svg>
