<?xml version="1.0" encoding="UTF-8"?>
<!DOCTYPE svg PUBLIC "-//W3C//DTD SVG 1.1//EN" "http://www.w3.org/Graphics/SVG/1.1/DTD/svg11.dtd">
<!-- Creator: CorelDRAW 2018 (64-Bit) -->
<svg xmlns="http://www.w3.org/2000/svg" xml:space="preserve" width="354px" height="361px" version="1.1" style="shape-rendering:geometricPrecision; text-rendering:geometricPrecision; image-rendering:optimizeQuality; fill-rule:evenodd; clip-rule:evenodd"
viewBox="0 0 15.62 15.89"
 xmlns:xlink="http://www.w3.org/1999/xlink">
 <defs>
  <style type="text/css">
   <![CDATA[
    .fil2 {fill:#FEFEFE}
    .fil1 {fill:#E31E24}
    .fil0 {fill:#FEFEFE;fill-rule:nonzero}
   ]]>
  </style>
 </defs>
 <g id="Layer-209">
  <metadata id="CorelCorpID_0Corel-Layer"/>
  <path class="fil0" d="M7.81 0c2.16,0 4.11,0.89 5.52,2.33 1.41,1.44 2.29,3.43 2.29,5.62 0,2.19 -0.88,4.17 -2.29,5.61 -1.41,1.44 -3.36,2.33 -5.52,2.33 -2.16,0 -4.11,-0.89 -5.52,-2.33 -1.42,-1.44 -2.29,-3.42 -2.29,-5.61 0,-2.19 0.87,-4.18 2.29,-5.62 1.41,-1.44 3.36,-2.33 5.52,-2.33z"/>
 </g>
 <g id="Layer-210">
  <metadata id="CorelCorpID_1Corel-Layer"/>
  <path class="fil1" d="M7.81 0.46c4.05,0 7.34,3.35 7.34,7.49 0,4.13 -3.29,7.48 -7.34,7.48 -4.06,0 -7.35,-3.35 -7.35,-7.48 0,-4.14 3.29,-7.49 7.35,-7.49z"/>
 </g>
 <g id="Layer-224">
  <metadata id="CorelCorpID_2Corel-Layer"/>
  <g id="_2997660286896">
   <path class="fil2" d="M4.89 5.91c-0.07,0.13 -0.1,0.2 -0.13,0.33 -0.03,0.1 -0.03,0.25 -0.02,0.35l0.24 0.73c0.02,0.06 0.04,0.06 0.05,0.13 0.02,0.07 0.04,0.11 0.08,0.19l0.3 0.88c0.02,0.09 0.03,0.08 0.07,0.17l0.3 0.87c0.07,0.24 0.22,0.47 0.48,0.61 0.3,0.16 0.56,0.12 0.83,0.08l1.92 -0.28c0.13,-0.01 0.29,-0.08 0.34,0.04 0.08,0.06 0.21,0.22 0.27,0.3 0.04,0.05 0.22,0.22 0.23,0.28l0.54 0.61 0.52 0.59c0.09,0.11 0.18,0.21 0.27,0.32 0.13,0.15 0.19,0.23 0.42,0.29 0.23,0.02 0.41,-0.02 0.56,-0.18 0.22,-0.23 0.13,-0.47 0.12,-0.66 -0.04,-0.04 -0.06,-0.08 -0.09,-0.12 -0.08,-0.1 -0.13,-0.18 -0.19,-0.27 -0.06,-0.07 -0.52,-0.7 -0.51,-0.76 -0.11,-0.08 -0.58,-0.81 -0.69,-0.96l-0.08 -0.14c-0.04,-0.03 -0.42,-0.57 -0.45,-0.64 -0.11,-0.15 -0.24,-0.29 -0.47,-0.35 -0.25,-0.07 -0.33,-0.01 -0.53,0l-0.68 0.1c-0.1,0.01 -0.04,0.01 -0.09,0 -0.12,0.05 -0.49,0.08 -0.63,0.1 -0.08,0.01 -0.14,0.03 -0.23,0.02l-0.13 0.02 -0.39 -1.37 -0.08 -0.23c-0.19,-0.69 -0.21,-1.16 -0.82,-1.47 -0.51,-0.22 -1.1,-0.01 -1.33,0.42z"/>
   <path class="fil2" d="M3.94 7.42l0.45 1.26c0.03,0.07 0.02,0.07 0.04,0.14 0.02,0.05 0.05,0.09 0.07,0.14l0.24 0.71c0.15,0.33 0.18,0.66 0.57,1.05 0.44,0.41 0.7,0.47 1.25,0.58 0.08,0.01 0.26,0 0.32,0.02 0.09,-0.04 0.19,-0.05 0.3,-0.06 0.13,-0.02 0.2,-0.03 0.33,-0.04 0.19,-0.02 0.43,-0.06 0.63,-0.09 0.18,-0.03 0.39,-0.06 0.57,-0.08 0.3,-0.04 0.29,-0.11 0.41,-0.38 -0.09,-0.13 -0.03,-0.27 -0.3,-0.35 -0.13,-0.03 -0.33,0.03 -0.45,0.04 -0.29,0.03 -0.57,0.09 -0.88,0.13 -0.63,0.09 -1.22,0.25 -1.74,-0.37 -0.18,-0.21 -0.41,-0.9 -0.5,-1.19 -0.02,-0.08 -0.06,-0.13 -0.08,-0.2l-0.64 -1.83 -0.43 -1.21c-0.07,-0.21 -0.14,-0.4 -0.22,-0.61 -0.16,-0.42 -0.79,-0.2 -0.69,0.21 0.04,0.18 0.34,0.94 0.42,1.22l0.28 0.76c0.02,0.07 0.03,0.09 0.05,0.15z"/>
   <path class="fil2" d="M5.35 3.02c-0.06,0.03 -0.17,0.05 -0.26,0.11 -0.07,0.04 -0.15,0.1 -0.22,0.15 -0.07,0.09 -0.15,0.16 -0.21,0.27 -0.08,0.13 -0.09,0.2 -0.14,0.35 -0.07,0.47 0.06,0.6 0.12,0.77l0.01 0.04c0.08,0.05 0.09,0.12 0.16,0.19 0.06,0.06 0.13,0.11 0.21,0.16 0.19,0.12 0.4,0.17 0.59,0.19 0.27,-0.05 0.32,-0.02 0.54,-0.14 0.18,-0.1 0.31,-0.2 0.43,-0.41l0.13 -0.33c0.06,-0.18 0.04,-0.37 0,-0.55 -0.01,-0.02 -0.01,-0.03 -0.02,-0.06 -0.07,-0.24 -0.17,-0.28 -0.31,-0.48 -0.21,-0.12 -0.25,-0.2 -0.53,-0.26 -0.24,-0.04 -0.31,0 -0.5,0z"/>
  </g>
 </g>
</svg>
