<?xml version="1.0" encoding="UTF-8"?>
<!DOCTYPE svg PUBLIC "-//W3C//DTD SVG 1.1//EN" "http://www.w3.org/Graphics/SVG/1.1/DTD/svg11.dtd">
<!-- Creator: CorelDRAW 2018 (64-Bit) -->
<svg xmlns="http://www.w3.org/2000/svg" xml:space="preserve" width="354px" height="361px" version="1.1" style="shape-rendering:geometricPrecision; text-rendering:geometricPrecision; image-rendering:optimizeQuality; fill-rule:evenodd; clip-rule:evenodd"
viewBox="0 0 11.32 11.52"
 xmlns:xlink="http://www.w3.org/1999/xlink">
 <defs>
  <style type="text/css">
   <![CDATA[
    .fil2 {fill:#FEFEFE}
    .fil1 {fill:#E31E24}
    .fil0 {fill:#FEFEFE;fill-rule:nonzero}
   ]]>
  </style>
 </defs>
 <g id="Layer-213">
  <metadata id="CorelCorpID_0Corel-Layer"/>
  <path class="fil0" d="M5.66 0c1.56,0 2.98,0.65 4,1.69 1.03,1.04 1.66,2.48 1.66,4.07 0,1.59 -0.63,3.03 -1.66,4.07 -1.02,1.05 -2.44,1.69 -4,1.69 -1.56,0 -2.98,-0.64 -4,-1.69 -1.03,-1.04 -1.66,-2.48 -1.66,-4.07 0,-1.59 0.63,-3.03 1.66,-4.07 1.02,-1.04 2.44,-1.69 4,-1.69z"/>
 </g>
 <g id="Layer-214">
  <metadata id="CorelCorpID_1Corel-Layer"/>
  <path class="fil1" d="M5.66 0.34c2.94,0 5.32,2.42 5.32,5.42 0,3 -2.38,5.42 -5.32,5.42 -2.94,0 -5.32,-2.42 -5.32,-5.42 0,-3 2.38,-5.42 5.32,-5.42z"/>
 </g>
 <g id="Layer-225">
  <metadata id="CorelCorpID_2Corel-Layer"/>
  <g id="_2997738602160">
   <path class="fil2" d="M4.56 7.28c0.27,0.03 1.71,0.01 2.05,0.01 -0.02,-0.1 -0.23,-0.17 -0.23,-0.74 0,-0.44 0.03,-0.63 0.11,-1.06 0.07,-0.31 0.14,-0.63 0.2,-0.96 0.05,-0.32 0.12,-0.66 0.16,-0.98 0.02,-0.19 0.02,-0.36 -0.13,-0.43 -0.09,-0.04 -1.22,-0.03 -1.52,-0.03l-0.61 0c-0.07,0 -0.08,-0.01 -0.13,0.03 -0.12,0.08 -0.16,0.14 -0.14,0.34 0.02,0.18 0.05,0.4 0.08,0.57 0.04,0.18 0.07,0.37 0.1,0.55 0.11,0.58 0.23,1.06 0.3,1.65 0.03,0.26 0,0.74 -0.16,0.96 -0.03,0.04 -0.06,0.05 -0.08,0.09z"/>
   <path class="fil2" d="M4.35 9.96l2.39 0 0.13 -0.3c0.11,-0.32 0.12,-0.41 -0.03,-0.66 -0.05,-0.09 -0.11,-0.18 -0.16,-0.27 -0.08,-0.12 -0.26,-0.45 -0.35,-0.51 -0.09,-0.07 -0.23,-0.06 -0.36,-0.07l-0.86 0c-0.15,0 -0.26,-0.01 -0.36,0.07 -0.1,0.08 -0.41,0.62 -0.5,0.79 -0.06,0.09 -0.12,0.18 -0.11,0.31 0.01,0.12 0.05,0.24 0.08,0.34 0.03,0.06 0.04,0.1 0.07,0.16 0.02,0.04 0.04,0.09 0.06,0.14z"/>
   <path class="fil2" d="M4.29 3.1c-0.09,0 -0.21,0.03 -0.27,0.07 -0.07,0.04 -0.12,0.11 -0.16,0.18 -0.09,0.15 -0.18,0.28 -0.27,0.42 -0.13,0.19 -0.16,0.27 -0.16,0.53 -0.01,0.41 0.21,1.32 0.31,1.75 0.06,0.24 0.19,0.89 0.32,1.05 0.05,0.07 0.11,0.1 0.21,0.14 0.28,0.11 0.4,-0.35 0.42,-0.57 0.02,-0.24 0,-0.42 -0.02,-0.65 -0.03,-0.19 -0.07,-0.39 -0.1,-0.59 -0.08,-0.39 -0.15,-0.77 -0.22,-1.15 -0.04,-0.19 -0.08,-0.39 -0.11,-0.58 -0.01,-0.1 -0.04,-0.38 -0.01,-0.48 0.02,-0.04 0.06,-0.08 0.06,-0.12z"/>
   <path class="fil2" d="M5.06 1.58c-0.21,0.02 -0.24,-0.02 -0.41,0.09 -0.1,0.07 -0.18,0.16 -0.22,0.28 -0.04,0.13 -0.08,0.26 -0.11,0.39 -0.03,0.13 -0.09,0.29 -0.03,0.42 0.05,0.1 0.16,0.2 0.28,0.21 0.15,0.02 0.34,0.01 0.5,0.01 0.14,0 1.31,0.01 1.48,-0.01 0.14,-0.02 0.23,-0.1 0.29,-0.22 0.05,-0.11 -0.01,-0.3 -0.04,-0.42 -0.07,-0.26 -0.1,-0.53 -0.32,-0.68 -0.12,-0.08 -0.26,-0.07 -0.42,-0.08 -0.17,0 -0.87,-0.01 -1,0.01z"/>
   <path class="fil2" d="M6.89 3.1c0.01,0.04 0.04,0.08 0.05,0.12 0.02,0.04 0.03,0.08 0.03,0.14 0,0.22 -0.09,0.67 -0.13,0.89 -0.08,0.38 -0.15,0.76 -0.22,1.14 -0.07,0.38 -0.16,0.82 -0.13,1.23 0.01,0.19 0.05,0.4 0.15,0.52 0.14,0.18 0.29,0.12 0.42,-0.04 0.14,-0.16 0.26,-0.79 0.32,-1.05 0.1,-0.37 0.31,-1.31 0.32,-1.71 0,-0.26 -0.03,-0.37 -0.14,-0.54 -0.08,-0.12 -0.33,-0.53 -0.42,-0.6 -0.06,-0.05 -0.16,-0.09 -0.25,-0.1z"/>
   <path class="fil2" d="M3.63 9.96l0.6 0c-0.03,-0.07 -0.07,-0.14 -0.09,-0.22 -0.09,-0.24 -0.09,-0.28 -0.11,-0.53 -0.01,-0.06 0.01,-0.07 0.04,-0.12 0.06,-0.11 0.52,-0.87 0.53,-0.89 -0.05,-0.05 -0.1,-0.09 -0.15,-0.15 -0.22,-0.25 -0.25,-0.53 -0.29,-0.59 -0.16,-0.02 -0.33,0.4 -0.39,0.54 -0.09,0.21 -0.18,0.43 -0.28,0.64 -0.03,0.06 -0.2,0.45 -0.2,0.5 0.01,0.18 0.05,0.41 0.13,0.57 0.09,0.17 0.19,0.22 0.21,0.25z"/>
   <path class="fil2" d="M6.86 9.96l0.58 0c0.02,-0.02 0.05,-0.04 0.07,-0.05 0.15,-0.14 0.22,-0.35 0.25,-0.56 0.02,-0.18 0.01,-0.23 -0.05,-0.39 -0.04,-0.1 -0.09,-0.22 -0.13,-0.32 -0.1,-0.22 -0.18,-0.43 -0.28,-0.64 -0.05,-0.12 -0.14,-0.37 -0.24,-0.46 -0.02,-0.02 -0.09,-0.08 -0.13,-0.08 -0.04,0.04 -0.08,0.25 -0.17,0.42 -0.12,0.21 -0.2,0.23 -0.26,0.33 0.01,0.05 0.08,0.15 0.11,0.2 0.04,0.06 0.08,0.13 0.12,0.19 0.08,0.14 0.16,0.27 0.23,0.4 0.11,0.19 0.12,0.26 0.07,0.5 -0.02,0.09 -0.05,0.17 -0.08,0.25l-0.09 0.21z"/>
   <path class="fil2" d="M4.29 7.46c-0.01,0.14 0.18,0.49 0.31,0.6 0.04,0.03 0.08,0.07 0.11,0.05 0.16,-0.05 0.09,-0.05 0.31,-0.06 0.24,-0.01 0.49,0 0.73,0 0.11,0 0.44,-0.01 0.53,0.02 0.04,0.01 0.09,0.05 0.13,0.05 0.06,-0.04 0.16,-0.15 0.21,-0.23 0.06,-0.08 0.11,-0.2 0.15,-0.31 0.01,-0.03 0.02,-0.05 0.02,-0.08 0.01,-0.06 -0.01,-0.05 -0.06,-0.05 -0.18,-0.03 -1.71,-0.01 -2.01,-0.01 -0.11,0 -0.35,-0.01 -0.43,0.02z"/>
   <path class="fil2" d="M7.21 2.35c0.03,0.05 0.59,0.14 0.63,0.18 0.03,0.02 0.13,0.46 0.16,0.57 0,0.01 0,0.02 0.01,0.03 0,0.01 0,0.02 0,0.02l0.02 0.02c0.06,-0.09 0.12,-0.59 0.18,-0.64 0.06,-0.04 0.54,-0.12 0.63,-0.18 -0.07,-0.04 -0.58,-0.13 -0.63,-0.17 -0.04,-0.03 -0.15,-0.55 -0.18,-0.64 -0.06,0.06 -0.14,0.58 -0.18,0.64 -0.03,0.03 -0.55,0.14 -0.64,0.17z"/>
   <path class="fil2" d="M1.92 6.22l-0.87 0.21c0.05,0.03 0.74,0.19 0.87,0.22l0.21 0.88c0.06,-0.13 0.19,-0.84 0.23,-0.88 0.03,-0.02 0.75,-0.18 0.87,-0.21 -0.07,-0.04 -0.33,-0.09 -0.43,-0.11 -0.09,-0.02 -0.38,-0.08 -0.44,-0.11 -0.05,-0.06 -0.15,-0.71 -0.22,-0.84 -0.01,0.02 0,0 -0.01,0.03 -0.03,0.05 -0.18,0.71 -0.21,0.81z"/>
   <path class="fil2" d="M8.43 3.76c0.02,0.04 0.12,0.05 0.17,0.06 0.19,0.06 0.18,0.04 0.26,0.32 0.01,0.04 0.02,0.08 0.04,0.09 0.04,-0.07 0.06,-0.29 0.1,-0.34 0.05,-0.05 0.3,-0.06 0.35,-0.11 -0.05,-0.04 -0.28,-0.09 -0.35,-0.11 -0.03,-0.07 -0.06,-0.3 -0.11,-0.35 -0.04,0.05 -0.07,0.31 -0.11,0.35 -0.02,0.02 -0.31,0.08 -0.35,0.09z"/>
   <path class="fil2" d="M1.51 8.26c0.05,0.05 0.21,0.04 0.28,0.09 0.07,0.06 0.05,0.2 0.1,0.29 0.02,0 0.01,0.01 0.02,-0.02 0.01,-0.01 0.01,-0.03 0.02,-0.04l0.06 -0.23c0.07,-0.02 0.26,-0.06 0.29,-0.09 -0.04,-0.04 -0.22,-0.07 -0.29,-0.09 -0.02,-0.04 -0.03,-0.11 -0.04,-0.16 -0.01,-0.02 -0.01,-0.05 -0.02,-0.07 -0.01,-0.03 -0.01,-0.06 -0.03,-0.08l-0.01 0.03c-0.09,0.22 0,0.26 -0.23,0.32l-0.15 0.05z"/>
  </g>
 </g>
</svg>
