<?xml version="1.0" encoding="UTF-8"?>
<!DOCTYPE svg PUBLIC "-//W3C//DTD SVG 1.1//EN" "http://www.w3.org/Graphics/SVG/1.1/DTD/svg11.dtd">
<!-- Creator: CorelDRAW 2018 (64-Bit) -->
<svg xmlns="http://www.w3.org/2000/svg" xml:space="preserve" width="354px" height="361px" version="1.1" style="shape-rendering:geometricPrecision; text-rendering:geometricPrecision; image-rendering:optimizeQuality; fill-rule:evenodd; clip-rule:evenodd"
viewBox="0 0 7.01 7.13"
 xmlns:xlink="http://www.w3.org/1999/xlink">
 <defs>
  <style type="text/css">
   <![CDATA[
    .fil2 {fill:#FEFEFE}
    .fil1 {fill:#E31E24}
    .fil0 {fill:#FEFEFE;fill-rule:nonzero}
   ]]>
  </style>
 </defs>
 <g id="Layer-221">
  <metadata id="CorelCorpID_0Corel-Layer"/>
  <path class="fil0" d="M3.5 0c0.97,0 1.85,0.4 2.48,1.05 0.64,0.64 1.03,1.53 1.03,2.52 0,0.98 -0.39,1.87 -1.03,2.52 -0.63,0.64 -1.51,1.04 -2.48,1.04 -0.96,0 -1.84,-0.4 -2.47,-1.04 -0.64,-0.65 -1.03,-1.54 -1.03,-2.52 0,-0.99 0.39,-1.88 1.03,-2.52 0.63,-0.65 1.51,-1.05 2.47,-1.05z"/>
 </g>
 <g id="Layer-222">
  <metadata id="CorelCorpID_1Corel-Layer"/>
  <path class="fil1" d="M3.5 0.21c1.82,0 3.3,1.5 3.3,3.36 0,1.85 -1.48,3.35 -3.3,3.35 -1.82,0 -3.29,-1.5 -3.29,-3.35 0,-1.86 1.47,-3.36 3.29,-3.36z"/>
 </g>
 <g id="Layer-232">
  <metadata id="CorelCorpID_2Corel-Layer"/>
  <path class="fil2" d="M5.01 4.35c0.12,0 0.32,0.09 0.44,0.06 0.15,-0.03 0.17,-0.16 0.2,-0.31 0.02,-0.08 0.18,-0.8 0.18,-0.86l-1.19 -0.25c-0.05,-0.04 -0.02,-0.45 -0.38,-0.35l-0.45 0.13c-0.08,0.02 -0.07,0.02 -0.16,0.01l-0.94 -0.2c-0.07,-0.02 -0.25,-0.07 -0.32,-0.06l-0.13 0.63c-0.02,0.07 -0.02,0.06 -0.09,0.07l-0.73 0.21c-0.09,0.02 -0.16,0.03 -0.22,0.09 -0.05,0.06 -0.08,0.14 -0.06,0.24 0.12,0.45 0.28,1 0.41,1.47 0.03,0.11 0.1,0.4 0.16,0.47 0.12,0.14 0.28,0.07 0.46,0.02 0.16,-0.05 0.32,-0.09 0.49,-0.14l2.2 -0.61c0.1,-0.03 0.15,-0.05 0.19,-0.12 0.09,-0.15 -0.03,-0.35 -0.06,-0.5zm0.04 -1.01c-0.07,0.04 -0.06,0.08 -0.08,0.21 -0.07,0.31 -0.08,0.29 0.18,0.34 0.31,0.07 0.29,0.08 0.34,-0.18 0.06,-0.31 0.08,-0.29 -0.19,-0.34 -0.06,-0.01 -0.2,-0.06 -0.25,-0.03zm-3.6 0.72l3.04 -0.84c0,-0.06 -0.04,-0.18 -0.06,-0.24 -0.01,-0.04 -0.02,-0.09 -0.03,-0.12 -0.02,-0.05 -0.05,-0.04 -0.1,-0.02 -0.16,0.04 -0.32,0.08 -0.48,0.13l-2.39 0.66c-0.04,0.01 -0.08,0.01 -0.08,0.07 0,0.03 0.03,0.09 0.03,0.12 0.03,0.08 0.05,0.16 0.07,0.24zm0.12 0.41c0.01,0.07 0.26,0.94 0.28,1.04 0.03,0.11 0.04,0.09 0.21,0.04 0.09,-0.03 0.17,-0.05 0.26,-0.07 0.18,-0.05 0.34,-0.1 0.52,-0.15l1.55 -0.43c0.07,-0.02 0.5,-0.12 0.51,-0.15 0.02,-0.04 -0.11,-0.49 -0.13,-0.56 -0.05,-0.17 -0.12,-0.38 -0.16,-0.56 -0.07,0.01 -0.3,0.08 -0.38,0.11l-2.27 0.63c-0.13,0.03 -0.27,0.08 -0.39,0.1z"/>
 </g>
 <g id="Layer-233">
  <metadata id="CorelCorpID_3Corel-Layer"/>
  <path class="fil2" d="M2.52 2l3.43 0.72 0.06 -0.28c0.01,-0.11 0.03,-0.19 -0.04,-0.27 -0.05,-0.08 -0.12,-0.09 -0.23,-0.11 -0.82,-0.16 -1.69,-0.36 -2.51,-0.53 -0.09,-0.02 -0.18,-0.04 -0.27,-0.06 -0.1,-0.02 -0.19,-0.05 -0.28,0.01 -0.08,0.05 -0.1,0.1 -0.12,0.22 -0.01,0.1 -0.03,0.2 -0.04,0.3z"/>
 </g>
 <g id="Layer-234">
  <metadata id="CorelCorpID_4Corel-Layer"/>
  <path class="fil2" d="M2.27 4.72c-0.08,0.02 -0.17,0.05 -0.25,0.07 -0.22,0.06 -0.17,0.07 -0.08,0.4 0.02,0.09 0.03,0.19 0.15,0.16 0.08,-0.02 0.16,-0.05 0.24,-0.07 0.23,-0.06 0.19,-0.08 0.1,-0.4 -0.03,-0.09 -0.04,-0.19 -0.16,-0.16z"/>
 </g>
</svg>
