<?xml version="1.0" encoding="UTF-8"?>
<!DOCTYPE svg PUBLIC "-//W3C//DTD SVG 1.1//EN" "http://www.w3.org/Graphics/SVG/1.1/DTD/svg11.dtd">
<!-- Creator: CorelDRAW 2018 (64-Bit) -->
<svg xmlns="http://www.w3.org/2000/svg" xml:space="preserve" width="217px" height="211px" version="1.1" style="shape-rendering:geometricPrecision; text-rendering:geometricPrecision; image-rendering:optimizeQuality; fill-rule:evenodd; clip-rule:evenodd"
viewBox="0 0 2.45 2.38"
 xmlns:xlink="http://www.w3.org/1999/xlink">
 <defs>
  <style type="text/css">
   <![CDATA[
    .fil2 {fill:#FEFEFE}
    .fil0 {fill:#898989}
    .fil1 {fill:#E31E24}
   ]]>
  </style>
 </defs>
 <g id="Layer-65">
  <metadata id="CorelCorpID_0Corel-Layer"/>
  <g id="_2997673309216">
   <rect class="fil0" x="0.06" width="2.39" height="2.34" rx="0.38" ry="0.38"/>
   <rect class="fil1" y="0.05" width="2.39" height="2.34" rx="0.38" ry="0.38"/>
   <g>
    <path class="fil2" d="M1.04 0.46c-0.12,0 -0.23,0 -0.34,0.04 -0.09,0.04 -0.16,0.11 -0.2,0.19 -0.05,0.09 -0.06,0.2 -0.06,0.33 0,0.06 0,0.13 0,0.19 0,0.11 0,0.27 0.01,0.38 0.01,0.08 0.03,0.15 0.07,0.22 0,0.01 0.01,0.02 0.02,0.03 0,0 0,0.01 0.01,0.01l0.02 0.03c0.03,0.02 0.06,0.05 0.1,0.07 0.1,0.05 0.21,0.05 0.33,0.05 0.06,0 0.13,0 0.19,0 0.12,0 0.27,0.01 0.38,0 0.06,-0.01 0.11,-0.02 0.16,-0.04 0.09,-0.04 0.16,-0.11 0.2,-0.18 0.05,-0.1 0.05,-0.21 0.06,-0.34 0,-0.06 0,-0.12 0,-0.19 0,-0.06 0,-0.13 0,-0.19 0,-0.06 0,-0.13 -0.01,-0.19 0,-0.06 -0.02,-0.1 -0.04,-0.15 -0.03,-0.09 -0.1,-0.17 -0.18,-0.21 -0.1,-0.05 -0.21,-0.05 -0.33,-0.05 -0.07,0 -0.13,0 -0.19,0 -0.07,0 -0.13,0 -0.2,0zm0.04 0.14c-0.05,0 -0.1,0 -0.15,0 -0.07,0 -0.14,0.01 -0.2,0.04 -0.02,0.01 -0.02,0.01 -0.04,0.02 -0.01,0.01 -0.03,0.03 -0.04,0.04 -0.01,0.02 -0.02,0.04 -0.03,0.06 -0.02,0.04 -0.03,0.09 -0.03,0.13 -0.01,0.05 -0.01,0.11 -0.01,0.16 0,0.1 0,0.21 0,0.31 0,0.06 0,0.11 0,0.16 0.01,0.05 0.01,0.09 0.02,0.14 0.01,0.02 0.02,0.04 0.02,0.06 0.01,0 0.01,0.01 0.02,0.02 0.01,0.01 0.01,0.01 0.02,0.02 0,0 0,0.01 0,0.01 0,0 0.01,0 0.01,0 0.01,0.02 0.01,0.02 0.03,0.03 0.01,0.01 0.03,0.02 0.05,0.03 0.04,0.02 0.08,0.03 0.13,0.03 0.05,0 0.1,0 0.15,0 0.11,0.01 0.21,0.01 0.32,0 0.05,0 0.1,0 0.15,0 0.08,0 0.13,-0.01 0.2,-0.04 0.01,0 0.02,-0.01 0.02,-0.01 0.01,-0.01 0.03,-0.02 0.04,-0.03 0,0 0,0 0,-0.01 0,0 0.01,0 0.01,0l0.01 -0.01c0.01,-0.02 0.03,-0.04 0.03,-0.06 0.02,-0.04 0.03,-0.09 0.03,-0.13 0.01,-0.05 0.01,-0.11 0.01,-0.16 0,-0.1 0,-0.21 0,-0.31 0,-0.05 0,-0.11 0,-0.16 -0.01,-0.05 -0.01,-0.09 -0.02,-0.14 -0.01,-0.02 -0.02,-0.04 -0.03,-0.05 0,-0.02 -0.01,-0.03 -0.02,-0.04 -0.01,-0.01 -0.03,-0.03 -0.04,-0.04 -0.02,-0.02 -0.03,-0.03 -0.06,-0.04 -0.04,-0.02 -0.08,-0.02 -0.13,-0.03 -0.09,0 -0.21,0 -0.31,0 -0.05,0 -0.11,0 -0.16,0z"/>
    <path class="fil2" d="M1.19 0.83c-0.09,0.01 -0.17,0.04 -0.23,0.1l-0.01 0.01c-0.01,0 -0.01,0 -0.02,0.01 0,0 0,0.01 -0.01,0.01 -0.01,0.01 -0.03,0.05 -0.04,0.06 -0.08,0.12 -0.08,0.27 -0.02,0.39 0.01,0.03 0.04,0.07 0.06,0.09l0.01 0.01c0.01,0.01 0.01,0.01 0.02,0.01 0,0.01 0,0.01 0,0.01 0.01,0.01 0.04,0.03 0.05,0.04 0.02,0.01 0.04,0.02 0.07,0.03 0.12,0.05 0.28,0.03 0.39,-0.05 0.01,-0.01 0.01,-0.02 0.02,-0.03 0,0 0.01,0 0.01,0 0.01,-0.01 0.01,-0.01 0.02,-0.02 0.01,-0.01 0.03,-0.04 0.04,-0.06 0.08,-0.11 0.08,-0.27 0.02,-0.39 -0.01,-0.02 -0.04,-0.06 -0.06,-0.08 0,0 0,0 0,-0.01 -0.01,0 -0.01,-0.01 -0.01,-0.01 -0.02,-0.01 -0.03,-0.02 -0.04,-0.03 -0.08,-0.06 -0.17,-0.09 -0.27,-0.09zm0.01 0.14c-0.14,0.01 -0.25,0.13 -0.24,0.28 0,0.13 0.12,0.25 0.27,0.24 0.05,0 0.1,-0.02 0.14,-0.05 0.01,-0.01 0.02,-0.02 0.03,-0.03 0.01,-0.01 0.01,-0.01 0.01,-0.01 0.02,-0.02 0.04,-0.05 0.04,-0.07 0.02,-0.04 0.02,-0.07 0.02,-0.11 -0.01,-0.14 -0.12,-0.26 -0.27,-0.25z"/>
    <path class="fil2" d="M1.62 0.73c-0.05,0 -0.09,0.04 -0.08,0.1 0,0.05 0.04,0.09 0.1,0.08 0.05,-0.01 0.09,-0.05 0.08,-0.1 -0.01,-0.05 -0.05,-0.09 -0.1,-0.08z"/>
   </g>
  </g>
 </g>
</svg>
