<?xml version="1.0" encoding="UTF-8"?>
<!DOCTYPE svg PUBLIC "-//W3C//DTD SVG 1.1//EN" "http://www.w3.org/Graphics/SVG/1.1/DTD/svg11.dtd">
<!-- Creator: CorelDRAW 2018 (64-Bit) -->
<svg xmlns="http://www.w3.org/2000/svg" xml:space="preserve" width="320px" height="325px" version="1.1" style="shape-rendering:geometricPrecision; text-rendering:geometricPrecision; image-rendering:optimizeQuality; fill-rule:evenodd; clip-rule:evenodd"
viewBox="0 0 12.97 13.2"
 xmlns:xlink="http://www.w3.org/1999/xlink">
 <defs>
  <style type="text/css">
   <![CDATA[
    .fil2 {fill:#FEFEFE}
    .fil1 {fill:#E31E24}
    .fil0 {fill:#FEFEFE;fill-rule:nonzero}
   ]]>
  </style>
 </defs>
 <g id="Layer-149">
  <metadata id="CorelCorpID_0Corel-Layer"/>
  <g id="_2997667803760">
   <path class="fil0" d="M6.49 0c1.79,0 3.41,0.74 4.59,1.94 1.17,1.19 1.89,2.84 1.89,4.66 0,1.82 -0.72,3.47 -1.89,4.67 -1.18,1.19 -2.8,1.93 -4.59,1.93 -1.79,0 -3.42,-0.74 -4.59,-1.93 -1.17,-1.2 -1.9,-2.85 -1.9,-4.67 0,-1.82 0.73,-3.47 1.9,-4.66 1.17,-1.2 2.8,-1.94 4.59,-1.94z"/>
   <path class="fil1" d="M6.49 0.39c3.37,0 6.1,2.78 6.1,6.21 0,3.44 -2.73,6.22 -6.1,6.22 -3.37,0 -6.1,-2.78 -6.1,-6.22 0,-3.43 2.73,-6.21 6.1,-6.21z"/>
  </g>
 </g>
 <g id="Layer-160">
  <metadata id="CorelCorpID_1Corel-Layer"/>
  <path class="fil2" d="M2.95 4.14l0 6.27c0,0.07 0,0.1 0.02,0.15 0.07,0.15 0.2,0.15 0.37,0.15l4.23 0c0.36,0 0.28,-0.36 0.28,-0.63l0 -5.46c0,-0.1 0.02,-0.47 -0.02,-0.54 -0.02,-0.05 -0.06,-0.09 -0.11,-0.12 -0.03,-0.01 -0.06,-0.02 -0.1,-0.02l-4.45 0c-0.06,0 -0.11,0.03 -0.15,0.07 -0.02,0.02 -0.07,0.09 -0.07,0.13zm1.92 5.09c0,0.21 0.08,0.22 0.26,0.36 0.08,0.05 0.11,0.12 0.05,0.19 0,0.01 -0.17,0.11 -0.17,-0.12l0 -0.06 -0.15 0c0,0.16 0.02,0.35 0.2,0.38 0.16,0.03 0.26,-0.06 0.29,-0.21 0.04,-0.18 0,-0.24 -0.16,-0.36l-0.13 -0.09c-0.04,-0.03 -0.05,-0.08 -0.03,-0.13 0.01,-0.02 0.01,-0.03 0.04,-0.03 0.01,0 0.01,-0.01 0.01,-0.01 0.11,-0.02 0.11,0.08 0.11,0.16l0.16 0c0,-0.4 -0.36,-0.44 -0.46,-0.19 0,0.01 -0.02,0.1 -0.02,0.11zm-0.52 0c0,0.26 0.13,0.23 0.29,0.38 0.04,0.04 0.05,0.04 0.04,0.11 0,0.05 -0.03,0.08 -0.07,0.09 -0.12,0.01 -0.12,-0.1 -0.12,-0.21l-0.16 0c0,0.18 0.03,0.29 0.14,0.35 0.18,0.11 0.39,-0.03 0.37,-0.3 -0.01,-0.08 -0.04,-0.12 -0.08,-0.17 -0.1,-0.1 -0.26,-0.14 -0.26,-0.24 0,-0.06 0.04,-0.1 0.11,-0.09 0.06,0.01 0.06,0.08 0.05,0.16l0.16 0c0,-0.15 -0.03,-0.31 -0.19,-0.34 -0.19,-0.03 -0.28,0.12 -0.28,0.26zm1.03 -0.2l0 0.94 0.15 0 0 -0.36c0.21,0 0.32,0.03 0.36,-0.23 0.02,-0.11 0,-0.12 0,-0.15 0,-0.12 -0.08,-0.25 -0.19,-0.25l-0.32 0 0 0.05zm0.77 -0.05c-0.1,0.04 -0.14,0.08 -0.19,0.2 -0.03,0.08 -0.06,0.24 -0.05,0.35 0.02,0.12 0.01,0.2 0.09,0.31 0.13,0.21 0.35,0.18 0.45,-0.08 0.03,-0.07 0.06,-0.24 0.04,-0.35 -0.02,-0.17 -0.07,-0.45 -0.3,-0.44l-0.04 0.01zm0.39 0.99l0.16 0 0 -0.4 0.11 0c0,0.03 0.02,0.06 0.03,0.1 0.01,0.03 0.02,0.06 0.03,0.1l0.06 0.2 0.16 0 -0.13 -0.43c0.08,-0.08 0.1,-0.15 0.1,-0.27 0,-0.05 -0.01,-0.07 -0.01,-0.12l0.18 0 0 0.82 0.15 0 0 -0.82 0.19 0 0 -0.17 -0.53 0 0 0.13c-0.02,-0.01 -0.01,0 -0.02,-0.02 0,0 -0.01,-0.02 -0.01,-0.03 -0.07,-0.14 -0.27,-0.09 -0.47,-0.09l0 1zm-2.81 0l0.15 0c0.02,0 0.02,-0.01 0.03,-0.05 0.01,-0.03 0.01,-0.05 0.02,-0.08 0.01,-0.05 0.02,-0.09 0.04,-0.14l0.16 0 0.07 0.27 0.16 0 -0.25 -1 -0.13 0c-0.05,0.23 -0.14,0.54 -0.18,0.75 -0.01,0.05 -0.05,0.21 -0.07,0.25zm-0.47 0l0.15 0 0 -0.36c0.16,0 0.23,0.02 0.3,-0.07 0.05,-0.07 0.08,-0.2 0.06,-0.32 -0.05,-0.32 -0.24,-0.24 -0.51,-0.24l0 0.99zm0.34 -3.49c0,0.15 -0.01,0.16 0.01,0.3 0.02,0.18 0.1,0.43 0.18,0.59 0.14,0.29 0.35,0.51 0.61,0.69 0.1,0.07 0.17,0.11 0.28,0.15 0.46,0.21 0.98,0.2 1.45,0 0.14,-0.06 0.28,-0.15 0.4,-0.25 0.23,-0.18 0.45,-0.47 0.55,-0.74 0.05,-0.14 0.07,-0.2 0.1,-0.35 0.08,-0.41 -0.01,-0.88 -0.23,-1.24 -0.34,-0.56 -0.93,-0.88 -1.59,-0.88 -0.43,0 -0.79,0.17 -1.12,0.43 -0.19,0.14 -0.36,0.4 -0.47,0.61 -0.08,0.16 -0.17,0.46 -0.17,0.69z"/>
 </g>
 <g id="Layer-161">
  <metadata id="CorelCorpID_2Corel-Layer"/>
  <path class="fil2" d="M5.3 3.73c0.74,0 1.49,0 2.24,0 0.09,0 0.17,0.01 0.24,0.04 0.05,0.02 0.13,0.07 0.16,0.12 0.11,0.13 0.12,0.21 0.12,0.44l0 5.61 0.44 0.07c0.11,0.02 0.45,0.08 0.54,0.08 0.26,0 0.25,-0.25 0.28,-0.45l0.2 -1.27c0.02,-0.11 0.04,-0.21 0.06,-0.32 0.01,-0.05 0.01,-0.1 0.02,-0.16l0.52 -3.2c0.02,-0.17 0.05,-0.34 0.08,-0.51 0.01,-0.08 0.02,-0.17 0.04,-0.25 0.03,-0.17 0.08,-0.33 -0.03,-0.45 -0.03,-0.04 -0.08,-0.06 -0.14,-0.07l-0.38 -0.06c-0.48,-0.07 -1,-0.16 -1.49,-0.24 -0.25,-0.04 -0.49,-0.08 -0.74,-0.12 -0.26,-0.04 -0.5,-0.08 -0.75,-0.12 -0.25,-0.04 -0.49,-0.08 -0.74,-0.12 -0.17,-0.03 -0.39,-0.1 -0.5,0.07 -0.08,0.13 -0.12,0.82 -0.17,0.91z"/>
 </g>
 <g id="Layer-162">
  <metadata id="CorelCorpID_3Corel-Layer"/>
  <path class="fil2" d="M6.25 5.73c0.04,0.1 0.08,0.21 0.1,0.32 0.03,0.1 0.06,0.27 0.06,0.39l0.54 0c0,-0.25 -0.12,-0.54 -0.24,-0.73 -0.03,-0.04 -0.11,-0.16 -0.15,-0.18 -0.02,0 -0.12,0.08 -0.15,0.1 -0.06,0.04 -0.1,0.07 -0.16,0.1z"/>
 </g>
 <g id="Layer-163">
  <metadata id="CorelCorpID_4Corel-Layer"/>
  <path class="fil2" d="M3.85 6.44l0.54 0c0,-0.18 0.08,-0.54 0.16,-0.71 -0.05,-0.03 -0.1,-0.06 -0.16,-0.1l-0.15 -0.1c-0.08,0.05 -0.21,0.29 -0.26,0.38 -0.06,0.13 -0.12,0.34 -0.13,0.53z"/>
 </g>
 <g id="Layer-164">
  <metadata id="CorelCorpID_5Corel-Layer"/>
  <path class="fil2" d="M6.25 7.39c0.04,0.01 0.13,0.07 0.16,0.1 0.03,0.01 0.06,0.03 0.08,0.05 0.02,0.02 0.04,0.04 0.07,0.06l0.07 -0.09c0.16,-0.2 0.32,-0.56 0.32,-0.82l-0.55 0c0,0.18 -0.04,0.37 -0.1,0.54 -0.01,0.05 -0.04,0.11 -0.05,0.16z"/>
 </g>
 <g id="Layer-165">
  <metadata id="CorelCorpID_6Corel-Layer"/>
  <path class="fil2" d="M4.24 7.6c0.09,-0.06 0.22,-0.18 0.31,-0.21 -0.05,-0.19 -0.09,-0.22 -0.13,-0.5 -0.01,-0.07 -0.02,-0.12 -0.02,-0.2l-0.55 0c0.01,0.17 0.08,0.39 0.13,0.51 0.16,0.32 0.18,0.27 0.26,0.4z"/>
 </g>
 <g id="Layer-166">
  <metadata id="CorelCorpID_7Corel-Layer"/>
  <path class="fil2" d="M5.53 6.01l0 0.43 0.63 0c0,-0.15 -0.04,-0.34 -0.09,-0.47 -0.01,-0.03 -0.04,-0.11 -0.04,-0.14 -0.05,0.01 -0.08,0.03 -0.13,0.04 -0.37,0.11 -0.37,0 -0.37,0.14z"/>
 </g>
 <g id="Layer-167">
  <metadata id="CorelCorpID_8Corel-Layer"/>
  <path class="fil2" d="M4.65 6.44l0.62 0 0 -0.49c-0.01,-0.03 -0.31,-0.03 -0.49,-0.12l-0.02 0.06c-0.06,0.17 -0.11,0.37 -0.11,0.55z"/>
 </g>
 <g id="Layer-168">
  <metadata id="CorelCorpID_9Corel-Layer"/>
  <path class="fil2" d="M5.53 7.18c0.08,0 0.2,0.02 0.26,0.04 0.04,0.01 0.07,0.02 0.12,0.03 0.03,0.01 0.07,0.02 0.11,0.03 0.03,-0.03 0.07,-0.19 0.09,-0.25 0.03,-0.12 0.05,-0.21 0.05,-0.34l-0.63 0 0 0.49z"/>
 </g>
 <g id="Layer-169">
  <metadata id="CorelCorpID_10Corel-Layer"/>
  <path class="fil2" d="M4.65 6.75c0,0.11 0.06,0.35 0.11,0.47l0.01 0.04c0,0 0,0.01 0,0.01 0.01,0.01 0.01,0.01 0.01,0.01 0.15,-0.03 0.29,-0.1 0.49,-0.1l0 -0.49 -0.62 0 0 0.06z"/>
 </g>
 <g id="Layer-170">
  <metadata id="CorelCorpID_11Corel-Layer"/>
  <path class="fil2" d="M6.21 9.14c-0.17,0 -0.15,0.44 -0.12,0.54 0.02,0.05 0.04,0.12 0.11,0.12 0.07,0 0.1,-0.07 0.11,-0.12 0.05,-0.18 0.03,-0.54 -0.1,-0.54z"/>
 </g>
 <g id="Layer-171">
  <metadata id="CorelCorpID_12Corel-Layer"/>
  <path class="fil2" d="M5.53 7.94c0.03,-0.01 0.03,-0.02 0.05,-0.04 0.03,-0.02 0.04,-0.03 0.06,-0.05 0.05,-0.05 0.24,-0.27 0.26,-0.34 -0.05,-0.04 -0.28,-0.08 -0.37,-0.08l0 0.51z"/>
 </g>
 <g id="Layer-172">
  <metadata id="CorelCorpID_13Corel-Layer"/>
  <path class="fil2" d="M5.53 5.68c0.07,0 0.13,-0.01 0.2,-0.02 0.05,-0.01 0.14,-0.04 0.18,-0.05 -0.07,-0.14 -0.26,-0.35 -0.38,-0.43l0 0.5z"/>
 </g>
 <g id="Layer-173">
  <metadata id="CorelCorpID_14Corel-Layer"/>
  <path class="fil2" d="M4.9 7.5c0.01,0.05 0.13,0.21 0.16,0.24 0.03,0.03 0.17,0.18 0.21,0.2l0 -0.51c-0.15,0 -0.26,0.05 -0.37,0.07z"/>
 </g>
 <g id="Layer-174">
  <metadata id="CorelCorpID_15Corel-Layer"/>
  <path class="fil2" d="M4.89 5.61c0.13,0.03 0.22,0.07 0.38,0.07l0 -0.5c-0.12,0.07 -0.31,0.3 -0.38,0.43z"/>
 </g>
 <g id="Layer-175">
  <metadata id="CorelCorpID_16Corel-Layer"/>
  <path class="fil2" d="M4.43 7.76c0.07,0.11 0.43,0.27 0.59,0.31 0,-0.03 -0.16,-0.18 -0.18,-0.21l-0.13 -0.18c-0.02,-0.02 -0.02,-0.04 -0.04,-0.07 -0.06,0.01 -0.19,0.12 -0.24,0.15z"/>
 </g>
 <g id="Layer-176">
  <metadata id="CorelCorpID_17Corel-Layer"/>
  <path class="fil2" d="M5.78 8.07c0.13,-0.03 0.22,-0.07 0.33,-0.13 0.07,-0.03 0.23,-0.12 0.27,-0.18 -0.08,-0.05 -0.16,-0.11 -0.24,-0.15 -0.09,0.12 -0.13,0.22 -0.26,0.34 -0.03,0.03 -0.09,0.08 -0.1,0.12z"/>
 </g>
 <g id="Layer-177">
  <metadata id="CorelCorpID_18Corel-Layer"/>
  <path class="fil2" d="M6.14 5.51c0.02,-0.02 0.04,-0.02 0.06,-0.04 0.05,-0.03 0.15,-0.09 0.18,-0.13 -0.2,-0.14 -0.35,-0.23 -0.6,-0.29 0.01,0.03 0.13,0.14 0.19,0.21 0.09,0.12 0.1,0.14 0.17,0.25z"/>
 </g>
 <g id="Layer-178">
  <metadata id="CorelCorpID_19Corel-Layer"/>
  <path class="fil2" d="M4.43 5.34c0.02,0.04 0.07,0.07 0.11,0.09 0.04,0.03 0.08,0.05 0.12,0.08 0.01,0 0.01,-0.01 0.01,-0.01l0.07 -0.12c0.05,-0.06 0.13,-0.16 0.18,-0.22 0.03,-0.03 0.1,-0.08 0.1,-0.11 -0.16,0.04 -0.33,0.11 -0.46,0.2l-0.13 0.09z"/>
 </g>
 <g id="Layer-179">
  <metadata id="CorelCorpID_20Corel-Layer"/>
  <path class="fil2" d="M5.53 9.44c0.12,0 0.18,0.02 0.2,-0.07 0.01,-0.05 0.01,-0.08 0,-0.13 -0.02,-0.12 -0.07,-0.09 -0.2,-0.09l0 0.29z"/>
 </g>
 <g id="Layer-180">
  <metadata id="CorelCorpID_21Corel-Layer"/>
  <path class="fil2" d="M3.41 9.44c0.15,-0.01 0.2,0.02 0.21,-0.14 0,-0.19 -0.08,-0.15 -0.21,-0.15l0 0.29z"/>
 </g>
 <g id="Layer-181">
  <metadata id="CorelCorpID_22Corel-Layer"/>
  <path class="fil2" d="M6.7 9.39l0.17 0c0.05,-0.08 0.04,-0.16 -0.01,-0.24l-0.16 0 0 0.24z"/>
 </g>
</svg>
