<?xml version="1.0" encoding="UTF-8"?>
<!DOCTYPE svg PUBLIC "-//W3C//DTD SVG 1.1//EN" "http://www.w3.org/Graphics/SVG/1.1/DTD/svg11.dtd">
<!-- Creator: CorelDRAW 2018 (64-Bit) -->
<svg xmlns="http://www.w3.org/2000/svg" xml:space="preserve" width="59px" height="49px" version="1.1" style="shape-rendering:geometricPrecision; text-rendering:geometricPrecision; image-rendering:optimizeQuality; fill-rule:evenodd; clip-rule:evenodd"
viewBox="0 0 0.37 0.3"
 xmlns:xlink="http://www.w3.org/1999/xlink">
 <defs>
  <style type="text/css">
   <![CDATA[
    .fil0 {fill:#2B2A29}
   ]]>
  </style>
 </defs>
 <g id="Layer-266">
  <metadata id="CorelCorpID_0Corel-Layer"/>
  <g id="_2997601411200">
   <path class="fil0" d="M0.19 0c0.1,0 0.18,0.07 0.18,0.15 0,0.09 -0.08,0.15 -0.18,0.15 -0.11,0 -0.19,-0.06 -0.19,-0.15 0,-0.08 0.08,-0.15 0.19,-0.15zm0 0.03c0.08,0 0.15,0.05 0.15,0.12 0,0.07 -0.07,0.12 -0.15,0.12 -0.09,0 -0.15,-0.05 -0.15,-0.12 0,-0.07 0.06,-0.12 0.15,-0.12z"/>
   <path class="fil0" d="M0.19 0.07c0.04,0 0.07,0.04 0.07,0.08 0,0.05 -0.03,0.08 -0.07,0.08 -0.05,0 -0.08,-0.03 -0.08,-0.08 0,-0.04 0.03,-0.08 0.08,-0.08zm0 0.03c0.02,0 0.04,0.02 0.04,0.05 0,0.03 -0.02,0.05 -0.04,0.05 -0.03,0 -0.05,-0.02 -0.05,-0.05 0,-0.03 0.02,-0.05 0.05,-0.05z"/>
  </g>
 </g>
</svg>
