<?xml version="1.0" encoding="UTF-8"?>
<!DOCTYPE svg PUBLIC "-//W3C//DTD SVG 1.1//EN" "http://www.w3.org/Graphics/SVG/1.1/DTD/svg11.dtd">
<!-- Creator: CorelDRAW 2018 (64-Bit) -->
<svg xmlns="http://www.w3.org/2000/svg" xml:space="preserve" width="217px" height="211px" version="1.1" style="shape-rendering:geometricPrecision; text-rendering:geometricPrecision; image-rendering:optimizeQuality; fill-rule:evenodd; clip-rule:evenodd"
viewBox="0 0 2.39 2.32"
 xmlns:xlink="http://www.w3.org/1999/xlink">
 <defs>
  <style type="text/css">
   <![CDATA[
    .fil2 {fill:#FEFEFE}
    .fil0 {fill:#898989}
    .fil1 {fill:#E31E24}
   ]]>
  </style>
 </defs>
 <g id="Layer-66">
  <metadata id="CorelCorpID_0Corel-Layer"/>
  <g id="_2962217525488">
   <rect class="fil0" x="0.06" width="2.32" height="2.28" rx="0.37" ry="0.37"/>
   <rect class="fil1" y="0.05" width="2.32" height="2.28" rx="0.37" ry="0.37"/>
   <path class="fil2" d="M1.68 0.57c-0.05,0.01 -0.2,0.08 -0.26,0.11 -0.09,0.03 -0.18,0.07 -0.27,0.11 -0.16,0.06 -0.36,0.15 -0.52,0.22 -0.06,0.02 -0.21,0.07 -0.25,0.12 -0.03,0.04 -0.03,0.1 0,0.14 0.02,0.04 0.06,0.05 0.11,0.07l0.2 0.08c0.04,0.02 0.03,0.01 0.04,0.05 0.02,0.06 0.08,0.24 0.1,0.28 0.02,0.04 0.05,0.08 0.11,0.07 0.04,0 0.08,-0.04 0.11,-0.07 0.04,-0.03 0.07,-0.06 0.1,-0.08 0.02,-0.01 0.02,-0.02 0.03,0 0.01,0 0.02,0.01 0.03,0.02l0.14 0.13c0.03,0.03 0.07,0.07 0.12,0.08 0.05,0.01 0.1,-0.03 0.13,-0.06 0.03,-0.03 0.03,-0.08 0.04,-0.14 0.02,-0.1 0.04,-0.2 0.06,-0.31l0.13 -0.62c0.01,-0.06 0.02,-0.11 -0.01,-0.16 -0.03,-0.04 -0.08,-0.06 -0.14,-0.04zm-1.13 0.63l0.18 0.08c0.02,0.01 0.05,0.02 0.07,0.02 0.01,0.01 0.04,-0.01 0.05,-0.02l0.39 -0.22c0.04,-0.03 0.07,-0.04 0.11,-0.07 0.02,-0.01 0.04,-0.02 0.06,-0.03 0.01,-0.01 0.03,-0.03 0.06,-0.02 0,0.02 -0.04,0.06 -0.06,0.08l-0.38 0.38c-0.01,0.01 -0.06,0.22 -0.06,0.23 0.01,-0.01 0.09,-0.07 0.1,-0.08 0.02,-0.02 0.08,-0.08 0.1,-0.09 0.04,0.01 0.28,0.27 0.31,0.27 0.01,-0.01 0.16,-0.76 0.18,-0.87l0.02 -0.13 -0.14 0.06c-0.05,0.02 -0.1,0.03 -0.14,0.05 -0.13,0.06 -0.3,0.13 -0.43,0.18 -0.04,0.02 -0.41,0.17 -0.42,0.18z"/>
  </g>
 </g>
</svg>
