<?xml version="1.0" encoding="UTF-8"?>
<!DOCTYPE svg PUBLIC "-//W3C//DTD SVG 1.1//EN" "http://www.w3.org/Graphics/SVG/1.1/DTD/svg11.dtd">
<!-- Creator: CorelDRAW 2018 (64-Bit) -->
<svg xmlns="http://www.w3.org/2000/svg" xml:space="preserve" width="216px" height="210px" version="1.1" style="shape-rendering:geometricPrecision; text-rendering:geometricPrecision; image-rendering:optimizeQuality; fill-rule:evenodd; clip-rule:evenodd"
viewBox="0 0 2.5 2.43"
 xmlns:xlink="http://www.w3.org/1999/xlink">
 <defs>
  <style type="text/css">
   <![CDATA[
    .fil2 {fill:#FEFEFE}
    .fil0 {fill:#898989}
    .fil1 {fill:#E31E24}
   ]]>
  </style>
 </defs>
 <g id="Layer-64">
  <metadata id="CorelCorpID_0Corel-Layer"/>
  <g id="_2997730317872">
   <rect class="fil0" x="0.06" width="2.44" height="2.39" rx="0.38" ry="0.38"/>
   <rect class="fil1" y="0.04" width="2.44" height="2.39" rx="0.38" ry="0.38"/>
   <g>
    <path class="fil2" d="M0.4 1.21c0,0.09 0.01,0.16 0.03,0.25 0.01,0.03 0.02,0.06 0.04,0.09 0,0.02 0.01,0.04 0.03,0.07 0.01,0.02 0.01,0.01 0,0.04 -0.01,0.07 -0.03,0.13 -0.05,0.19 -0.02,0.06 -0.04,0.12 -0.05,0.19 0,0.01 -0.01,0.02 -0.01,0.03 0.01,-0.01 0.02,-0.01 0.03,-0.01 0.12,-0.03 0.23,-0.07 0.35,-0.1l0.04 -0.01c0.03,0 0.02,0 0.06,0.02 0.09,0.05 0.23,0.08 0.33,0.08 0.08,0 0.14,0 0.22,-0.02 0.07,-0.02 0.13,-0.04 0.18,-0.07 0.04,-0.02 0.08,-0.05 0.11,-0.07l0.03 -0.02c0,-0.01 0.01,-0.01 0.01,-0.01 0.01,-0.01 0.01,-0.01 0.01,-0.01l0.02 -0.02c0.04,-0.03 0.07,-0.06 0.1,-0.1 0,-0.01 0.01,-0.02 0.02,-0.03 0.01,-0.01 0.01,-0.02 0.02,-0.03l0.03 -0.05c0,0 0,0 0,-0.01 0.03,-0.06 0.06,-0.12 0.07,-0.19 0.05,-0.17 0.03,-0.35 -0.03,-0.5 -0.01,-0.03 -0.03,-0.06 -0.04,-0.09 -0.03,-0.05 -0.06,-0.09 -0.09,-0.14l-0.05 -0.05c-0.03,-0.03 -0.06,-0.05 -0.1,-0.08 -0.03,-0.02 -0.06,-0.04 -0.09,-0.06l-0.03 -0.02c-0.1,-0.05 -0.23,-0.08 -0.35,-0.08 -0.08,0 -0.14,0 -0.21,0.02 -0.07,0.02 -0.13,0.04 -0.19,0.07l-0.03 0.02c-0.01,0.01 -0.02,0.01 -0.03,0.02 -0.02,0.01 -0.04,0.03 -0.06,0.04l-0.03 0.02c-0.03,0.03 -0.07,0.07 -0.09,0.09l-0.03 0.04c-0.03,0.04 -0.06,0.08 -0.08,0.13 0,0 -0.01,0.01 -0.01,0.01 -0.02,0.06 -0.04,0.11 -0.06,0.17 -0.01,0.05 -0.02,0.12 -0.02,0.18zm0.14 0.02c0,0.1 0.02,0.18 0.06,0.27 0.01,0.03 0.03,0.08 0.05,0.1 0.01,0.01 0.01,0.01 0.01,0.02 -0.01,0.04 -0.02,0.08 -0.04,0.12l-0.03 0.13c0.04,-0.01 0.08,-0.02 0.12,-0.03 0.02,-0.01 0.13,-0.04 0.14,-0.04l0.05 0.03c0.08,0.04 0.14,0.06 0.23,0.07 0.27,0.04 0.53,-0.09 0.67,-0.31 0.02,-0.03 0.04,-0.06 0.05,-0.1 0.01,0 0.01,-0.01 0.01,-0.01 0.05,-0.13 0.06,-0.27 0.03,-0.41 -0.01,-0.05 -0.03,-0.09 -0.05,-0.14l-0.01 -0.03c-0.01,-0.02 -0.03,-0.05 -0.04,-0.07l-0.03 -0.03c-0.05,-0.06 -0.12,-0.13 -0.2,-0.17l-0.05 -0.03c-0.01,0 -0.02,-0.01 -0.03,-0.01l-0.05 -0.02c-0.07,-0.02 -0.14,-0.03 -0.21,-0.03l-0.06 0c-0.06,0.01 -0.16,0.03 -0.22,0.06 0,0 -0.01,0 -0.01,0.01 -0.01,0 -0.01,0 -0.02,0l-0.05 0.04 -0.05 0.03c-0.01,0.01 -0.02,0.01 -0.03,0.02 -0.03,0.03 -0.07,0.07 -0.1,0.11l-0.04 0.05c-0.04,0.06 -0.07,0.14 -0.08,0.21 -0.02,0.05 -0.02,0.1 -0.02,0.16z"/>
    <path class="fil2" d="M0.8 1.03c0,0.06 0.01,0.09 0.04,0.14l0.02 0.05 0.06 0.09c0.03,0.03 0.05,0.04 0.06,0.07l0.05 0.04c0.02,0.03 0.06,0.05 0.08,0.07 0.05,0.04 0.12,0.07 0.17,0.09 0.07,0.03 0.12,0.05 0.2,0.04 0.01,0 0.03,-0.01 0.04,-0.01 0.03,-0.01 0.09,-0.05 0.11,-0.09 0,-0.02 0.01,-0.05 0.01,-0.08 0,-0.03 -0.01,-0.03 -0.04,-0.04 -0.03,-0.02 -0.14,-0.07 -0.16,-0.07 -0.02,0 -0.02,0.01 -0.04,0.02 -0.01,0.02 -0.03,0.05 -0.04,0.06 -0.03,0.02 -0.03,0.03 -0.06,0.01 -0.01,0 -0.02,0 -0.03,-0.01 -0.04,-0.02 -0.04,-0.02 -0.09,-0.05 -0.02,-0.01 -0.02,-0.02 -0.04,-0.03 -0.01,-0.01 -0.01,-0.01 -0.02,-0.02 -0.01,-0.01 -0.04,-0.05 -0.05,-0.06 -0.01,-0.01 -0.03,-0.04 -0.04,-0.06 -0.02,-0.02 -0.02,-0.03 0,-0.05l0.01 -0.01c0.01,-0.02 0.03,-0.03 0.03,-0.04 0.02,-0.04 0.02,-0.04 0,-0.07l-0.03 -0.07c0,-0.02 -0.01,-0.04 -0.02,-0.05 0,-0.02 -0.01,-0.04 -0.02,-0.05 0,0 -0.01,-0.01 -0.02,-0.01 -0.04,0.01 -0.06,0 -0.09,0.02 -0.01,0.01 -0.04,0.04 -0.05,0.05 -0.02,0.03 -0.04,0.08 -0.04,0.12z"/>
   </g>
  </g>
 </g>
</svg>
