<?xml version="1.0" encoding="UTF-8"?>
<!DOCTYPE svg PUBLIC "-//W3C//DTD SVG 1.1//EN" "http://www.w3.org/Graphics/SVG/1.1/DTD/svg11.dtd">
<!-- Creator: CorelDRAW 2018 (64-Bit) -->
<svg xmlns="http://www.w3.org/2000/svg" xml:space="preserve" width="184px" height="171px" version="1.1" style="shape-rendering:geometricPrecision; text-rendering:geometricPrecision; image-rendering:optimizeQuality; fill-rule:evenodd; clip-rule:evenodd"
viewBox="0 0 5.39 5.02"
 xmlns:xlink="http://www.w3.org/1999/xlink">
 <defs>
  <style type="text/css">
   <![CDATA[
    .fil0 {fill:black}
   ]]>
  </style>
 </defs>
 <g id="Layer-75">
  <metadata id="CorelCorpID_0Corel-Layer"/>
  <g id="_2997659656112">
   <path class="fil0" d="M0.71 3.53c0.26,0.01 0.45,-0.07 0.59,0.15 0.05,0.08 0.03,0.17 0.05,0.2l0.26 0.24c0.04,0.03 0.24,0.21 0.27,0.24 -0.01,0.03 -0.06,0.14 -0.07,0.16l-0.46 0c-0.01,0.09 0.02,0.18 -0.08,0.29 -0.09,0.1 -0.16,0.11 -0.32,0.11l-0.56 0c0.01,0.04 0.11,0.09 0.15,0.09 0.07,0.01 3.85,0.01 4.09,0.01 0.1,0 0.22,0.01 0.29,-0.03 -0.05,-0.03 -0.53,0.01 -0.65,-0.03 -0.1,-0.03 -0.14,-0.07 -0.19,-0.14 -0.02,-0.03 -0.04,-0.09 -0.04,-0.14 0,-0.08 0.01,-0.09 0.02,-0.15l-0.52 0c-0.01,-0.02 -0.06,-0.13 -0.07,-0.15l0.57 -0.5c0.05,-0.35 0.35,-0.3 0.63,-0.3 0.03,0 0.06,0.01 0.04,-0.02l-0.2 -0.29c-0.16,-0.18 -0.32,-0.33 -0.53,-0.47l-0.32 -0.18c-0.02,-0.01 -0.04,-0.02 -0.07,-0.03 -0.05,-0.01 -0.1,-0.04 -0.14,-0.05 -0.2,-0.08 -0.48,-0.12 -0.68,-0.12 -0.71,-0.03 -1.3,0.25 -1.76,0.71 -0.09,0.08 -0.16,0.18 -0.23,0.27 -0.02,0.03 -0.07,0.09 -0.07,0.13zm1.53 0.48c0.08,0 0.29,-0.19 0.78,-0.04 0.14,0.05 0.07,0.08 0.19,-0.02l0.63 -0.56c0.02,-0.02 0.02,-0.02 0.03,-0.04 -0.03,-0.05 -0.17,-0.14 -0.23,-0.18 -0.29,-0.17 -0.59,-0.26 -0.95,-0.26 -0.14,0 -0.41,0.03 -0.54,0.08 -0.04,0.02 -0.09,0.03 -0.14,0.05 -0.1,0.05 -0.46,0.22 -0.5,0.31 0.01,0.03 0.07,0.06 0.09,0.09 0.17,0.14 0.5,0.44 0.64,0.57z"/>
   <path class="fil0" d="M1.56 1.12c0,0.11 0,0.21 0.04,0.31 0.03,0.06 0.02,0.07 0.06,0.15 0.17,0.39 0.54,0.65 1.02,0.65 0.33,0 0.57,-0.11 0.79,-0.32 0.2,-0.21 0.32,-0.48 0.32,-0.79 0,-0.34 -0.14,-0.62 -0.32,-0.79 -0.23,-0.22 -0.46,-0.33 -0.8,-0.33 -0.34,0 -0.62,0.15 -0.79,0.33 -0.21,0.21 -0.32,0.48 -0.32,0.79zm0.31 0c0,0.08 0,0.15 0.03,0.22 0.02,0.05 0.02,0.05 0.04,0.11 0.13,0.28 0.4,0.47 0.74,0.47 0.24,0 0.41,-0.08 0.57,-0.23 0.15,-0.15 0.23,-0.35 0.23,-0.57 0,-0.25 -0.1,-0.45 -0.23,-0.57 -0.17,-0.16 -0.33,-0.24 -0.58,-0.24 -0.25,0 -0.44,0.11 -0.57,0.24 -0.15,0.15 -0.23,0.35 -0.23,0.57z"/>
   <path class="fil0" d="M4.86 4.09c-0.01,0.02 0.02,0.02 -0.09,0.02l-0.4 0c-0.19,0 -0.26,0.23 -0.09,0.31 0.07,0.04 0.47,0.02 0.58,0.02l0 0.05 -0.49 0.01c-0.1,0 -0.16,0.04 -0.17,0.11 -0.03,0.1 0.02,0.17 0.08,0.2 0.09,0.04 0.43,0.02 0.55,0.02 0.09,0 0.19,0 0.29,0 0.24,0 0.27,-0.4 0.27,-0.59 0,-0.19 -0.05,-0.43 -0.19,-0.49 -0.08,-0.04 -0.54,-0.02 -0.67,-0.02 -0.11,0 -0.22,-0.02 -0.29,0.05 -0.07,0.06 -0.07,0.17 -0.01,0.24 0.08,0.08 0.3,0.05 0.46,0.05l0.13 0c0.06,0.01 0.02,-0.01 0.04,0.02z"/>
   <path class="fil0" d="M1.08 4.44c-0.05,0.01 -0.36,0.01 -0.45,0.01 -0.04,0 -0.12,0.01 -0.12,-0.04 0,-0.05 0.07,-0.03 0.11,-0.03l0.47 -0.01c0.1,0 0.16,-0.24 0.01,-0.3 -0.1,-0.02 -0.34,-0.01 -0.47,-0.01 -0.03,0 -0.13,0.01 -0.11,-0.04 0.01,-0.03 0.1,-0.02 0.14,-0.02 0.17,0 0.3,0.01 0.46,-0.02 0.13,-0.08 0.09,-0.29 -0.08,-0.31 -0.07,0 -0.73,0 -0.8,0.01 -0.18,0.02 -0.19,0.2 -0.22,0.32 -0.01,0.04 -0.02,0.21 -0.02,0.26 0.02,0.14 0.02,0.32 0.11,0.43 0.05,0.06 0.09,0.08 0.19,0.08 0.15,0 0.73,0.02 0.8,-0.01 0.05,-0.02 0.1,-0.09 0.1,-0.17 0,-0.08 -0.07,-0.14 -0.12,-0.15z"/>
   <path class="fil0" d="M0.46 2.97c-0.01,0.02 0.01,0.01 -0.01,0.02 -0.08,0.07 -0.08,0.09 -0.08,0.21 0,0.09 -0.01,0.23 0,0.32l0.12 0c0.04,-0.05 0.05,-0.12 0.1,-0.15 0.02,-0.04 0.06,-0.1 0.09,-0.13 0.01,-0.02 0.03,-0.04 0.05,-0.06 0.02,-0.03 0.04,-0.04 0.03,-0.08 0,-0.05 -0.06,-0.11 -0.1,-0.13 -0.08,-0.03 -0.12,-0.01 -0.2,0z"/>
   <path class="fil0" d="M5.02 3.58l0 -0.36c0,-0.12 -0.07,-0.2 -0.18,-0.21 -0.11,-0.01 -0.25,0.09 -0.19,0.16 0.06,0.07 0.11,0.14 0.16,0.23 0.13,0.2 0.09,0.19 0.21,0.18z"/>
  </g>
 </g>
</svg>
