<?xml version="1.0" encoding="UTF-8"?>
<!DOCTYPE svg PUBLIC "-//W3C//DTD SVG 1.1//EN" "http://www.w3.org/Graphics/SVG/1.1/DTD/svg11.dtd">
<!-- Creator: CorelDRAW 2018 (64-Bit) -->
<svg xmlns="http://www.w3.org/2000/svg" xml:space="preserve" width="923px" height="962px" version="1.1" style="shape-rendering:geometricPrecision; text-rendering:geometricPrecision; image-rendering:optimizeQuality; fill-rule:evenodd; clip-rule:evenodd"
viewBox="0 0 189.88 197.96"
 xmlns:xlink="http://www.w3.org/1999/xlink">
 <defs>
  <style type="text/css">
   <![CDATA[
    .fil0 {fill:black}
    .fil1 {fill:#7F7F7F}
    .fil2 {fill:#A4A4A4}
    .fil3 {fill:silver}
   ]]>
  </style>
 </defs>
 <g id="Layer-266">
  <metadata id="CorelCorpID_0Corel-Layer"/>
  <path class="fil0" d="M126.25 44.64l0 -38.58c0,-0.86 0.29,-1.61 0.75,-2.08 1.94,-1.96 4.91,-0.58 4.91,2.08l0 38.58c0,3.4 -5.66,3.4 -5.66,0zm-66.15 -44.64l0.71 0c1.95,0.01 2.81,0.16 4.59,2.06 1.58,1.69 1.46,3.77 1.46,6.02l10.71 0c0,-2.54 -0.31,-4.34 1.66,-6.42 1.47,-1.56 2.91,-1.66 4.8,-1.66 2.89,0 5.46,2.57 5.46,5.45l0 2.63 10.7 0 0 -1.62c0,-3.57 2.52,-6.46 5.25,-6.46 2.12,0 3.8,0.12 5.31,1.76 1.79,1.95 1.56,3.88 1.56,6.32l10.71 0c0,-2.7 -0.22,-4.15 1.58,-6.3 0.6,-0.72 2.39,-1.78 3.67,-1.78 0.04,0 0.07,0 0.1,0l0.74 0c1.95,0.01 2.77,0.16 4.57,2.07 1.61,1.7 1.46,3.7 1.46,6.01l10.71 0c0,-2.54 -0.31,-4.34 1.65,-6.42 1.48,-1.56 2.92,-1.66 4.81,-1.66 2.89,0 5.45,2.57 5.45,5.45l0 2.63 4.85 0c7.24,0 14.13,3.32 18.94,8.13 2.25,2.25 4.42,4.9 5.68,7.85 1.21,2.84 2.65,6.71 2.65,10.68l0 136.36c0,4.19 -1.28,7.74 -2.57,10.76 -2.43,5.71 -7.7,10.61 -13.25,13.41 -2.45,1.23 -6.86,2.69 -10.42,2.69l-137.39 0c-6.65,0 -13.84,-3.87 -18.22,-8.23 -4.45,-4.42 -8.03,-11.81 -8.03,-18.22l0 -136.98c0,-5.49 3.21,-13.2 6.92,-16.91 2.29,-2.29 4.31,-4.46 7.49,-6.04 7.08,-3.53 9.43,-3.5 17.51,-3.5l0 -1.62c0,-3.57 2.52,-6.46 5.25,-6.46 2.11,0 3.79,0.12 5.31,1.76 1.79,1.95 1.56,3.88 1.56,6.32l10.7 0 0 -2.22c0,-3.21 2.7,-5.86 5.25,-5.86 0.04,0 0.07,0 0.11,0zm-2.13 44.64l0 -38.58c0,-3.97 5.66,-3.97 5.66,0l0 38.58c0,3.4 -5.66,3.4 -5.66,0zm48.28 2.63c-0.87,0 -1.59,-0.55 -2.01,-1.02 -0.45,-0.49 -0.82,-1.27 -0.82,-2.21l0 -37.78c0,-4.07 5.86,-4.59 5.86,0.41l0 36.96c0,2 -1.11,3.64 -3.03,3.64zm-68.27 0c-0.87,0 -1.59,-0.55 -2.02,-1.02 -0.44,-0.49 -0.81,-1.27 -0.81,-2.21l0 -37.78c0,-0.94 0.37,-1.72 0.81,-2.21 1.88,-2.08 5.05,-0.84 5.05,2.62l0 36.96c0,2 -1.12,3.64 -3.03,3.64zm110.9 -4.45l0 -35.55c0,-6.01 5.85,-4.92 5.85,-1.01l0 38.18c0,0.56 -0.48,1.53 -0.77,1.86 -1.11,1.3 -3.15,1.31 -4.43,-0.29 -0.54,-0.66 -0.65,-2.02 -0.65,-3.19zm-68.28 0l0 -35.55c0,-6.01 5.86,-4.92 5.86,-1.01l0 38.18c0,3.05 -5.86,5 -5.86,-1.62zm-51.92 1.62c0,9.76 13.55,13.09 17.92,3.77 1.58,-3.36 0.89,-6.72 -1.2,-9.57 -0.44,-0.6 -0.59,-1.06 -1.36,-1.27l0 -14.95 10.7 0 0 14.55c0,1.15 -3.23,1.65 -3.23,8.08 0,2.04 1.42,4.86 2.77,6.11 6.39,5.88 15.81,0.78 15.81,-5.91 0,-6.95 -3.23,-6.98 -3.23,-8.28l0 -14.55 10.71 0 0 14.55c0,0.78 -3.23,2.57 -3.23,6.46 0,2.08 -0.09,3.53 1.01,5.45 4.62,8.04 17.57,5.89 17.57,-5.05 0,-1.54 -0.59,-2.81 -1.14,-3.91 -0.9,-1.76 -2.09,-2.3 -2.09,-2.95l0 -14.55 10.7 0 0 14.34c0,0.6 -0.8,1.06 -1.15,1.48 -5.04,5.91 -1.24,15.49 7.21,15.49 2.9,0 5.03,-1.28 6.52,-2.77 3.37,-3.37 3.7,-8.75 0.61,-12.43 -0.09,-0.1 -0.2,-0.23 -0.29,-0.32l-0.3 -0.31c-0.39,-0.39 -0.68,-0.4 -0.68,-0.93l0 -14.55 10.71 0 0 14.55c0,1.16 -3.23,1.64 -3.23,7.87 0,4.84 4.15,8.89 9.49,8.89 4.83,0 9.09,-4.09 9.09,-8.89 0,-1.83 -0.1,-3.34 -1.09,-4.97 -0.27,-0.45 -0.66,-1.05 -0.99,-1.43 -0.35,-0.42 -1.15,-0.87 -1.15,-1.47l0 -14.55 10.71 0 0 14.55c0,0.58 0.19,0.07 -0.68,0.93l-0.95 1.08c-5.5,7.67 2.84,17.82 11.53,13.95 5.2,-2.33 7.44,-9.04 3.23,-14.55 -0.3,-0.4 -1.22,-1.11 -1.22,-1.62l0 -14.34c4.35,0 8.11,0.01 11.55,2.4 4.87,3.37 6.23,7.67 6.23,13.76l0 130.29c0,4.14 -1.22,7.78 -3.99,10.56 -2.32,2.34 -5.76,4.19 -10.35,4.19l-132.52 0c-4.59,0 -8.03,-1.85 -10.35,-4.19 -2.77,-2.78 -3.99,-6.42 -3.99,-10.56l0 -131.3c0,-2.62 0.35,-4.61 1.12,-6.55 1.42,-3.54 4.25,-6.19 7.77,-7.59 2.62,-1.05 5.78,-1.01 8.89,-1.01l0 14.34c0,0.6 -0.8,1.06 -1.16,1.48 -1.35,1.58 -2.28,3.86 -2.28,6.2z"/>
  <polygon class="fil0" points="53.88,166.65 53.95,142.42 26.66,142.52 26.66,166.65 "/>
  <polygon class="fil0" points="63.25,166.65 90.22,166.65 90.29,142.46 63.15,142.46 "/>
  <polygon class="fil0" points="99.66,166.65 126.61,166.65 126.7,142.46 99.56,142.46 "/>
  <polygon class="fil0" points="99.59,101.77 126.65,101.77 126.65,77.69 99.63,77.69 "/>
  <polygon class="fil0" points="63.23,101.77 90.25,101.77 90.24,77.69 63.19,77.69 "/>
  <polygon class="fil0" points="63.19,134.17 90.29,134.17 90.25,110.13 63.23,110.13 "/>
  <polygon class="fil0" points="136.05,134.17 163.06,134.17 163.12,110.13 136.03,110.13 "/>
  <polygon class="fil0" points="99.59,134.17 126.65,134.17 126.65,110.13 99.63,110.13 "/>
  <polygon class="fil0" points="136.1,101.77 163.06,101.77 163.04,77.69 136.03,77.69 "/>
  <polygon class="fil0" points="26.79,134.17 54.14,134.17 53.85,134.17 53.85,110.13 26.87,110.13 "/>
  <path class="fil1" d="M26.87 110.13l26.98 0 0 24.04 0.29 0 -27.35 0 0.08 -24.04zm-0.21 24.2l27.48 0 0 -24.44 -27.48 0 0 24.44z"/>
  <path class="fil1" d="M136.03 77.69l27.01 0 0.02 24.08 -26.96 0 -0.07 -24.08zm-0.28 24.32l27.47 0 0 -24.44 -27.47 0 0 24.44z"/>
  <path class="fil1" d="M99.63 110.13l27.02 0 0 24.04 -27.06 0 0.04 -24.04zm-0.25 24.2l27.48 0 0 -24.44 -27.48 0 0 24.44z"/>
  <path class="fil1" d="M136.03 110.13l27.09 0 -0.06 24.04 -27.01 0 -0.02 -24.04zm-0.28 24.2l27.47 0 0 -24.44 -27.47 0 0 24.44z"/>
  <path class="fil1" d="M63.23 110.13l27.02 0 0.04 24.04 -27.1 0 0.04 -24.04zm-0.21 24.2l27.48 0 0 -24.44 -27.48 0 0 24.44z"/>
  <path class="fil1" d="M63.19 77.69l27.05 0 0.01 24.08 -27.02 0 -0.04 -24.08zm-0.17 24.32l27.48 0 0 -24.44 -27.48 0 0 24.44z"/>
  <path class="fil1" d="M99.63 77.69l27.02 0 0 24.08 -27.06 0 0.04 -24.08zm-0.25 24.32l27.48 0 0 -24.44 -27.48 0 0 24.44z"/>
  <path class="fil2" d="M99.66 166.65l-0.1 -24.19 27.14 0 -0.09 24.19c0.59,-0.76 0.25,-11.18 0.25,-12.12 0,-4.11 0,-8.21 0,-12.32l-27.48 0 0 21.41c0,0.81 -0.26,2.4 0.28,3.03z"/>
  <path class="fil2" d="M63.25 166.65l-0.1 -24.19 27.14 0 -0.07 24.19c0.3,-0.34 0.13,0.14 0.26,-0.42l0.02 -24.02 -27.48 0 -0.01 23.84c0.1,0.77 0.05,0.34 0.24,0.6z"/>
  <path class="fil3" d="M53.88 166.65c0.25,-0.31 0.13,0.11 0.24,-0.42l0.02 -24.02 -26.68 -0.02c-1.42,0.12 -0.34,-0.12 -0.8,0.33l27.29 -0.1 -0.07 24.23z"/>
 </g>
</svg>
