<?xml version="1.0" encoding="UTF-8"?>
<!DOCTYPE svg PUBLIC "-//W3C//DTD SVG 1.1//EN" "http://www.w3.org/Graphics/SVG/1.1/DTD/svg11.dtd">
<!-- Creator: CorelDRAW 2018 (64-Bit) -->
<svg xmlns="http://www.w3.org/2000/svg" xml:space="preserve" width="271px" height="94px" version="1.1" style="shape-rendering:geometricPrecision; text-rendering:geometricPrecision; image-rendering:optimizeQuality; fill-rule:evenodd; clip-rule:evenodd"
viewBox="0 0 4.52 1.56"
 xmlns:xlink="http://www.w3.org/1999/xlink">
 <defs>
  <style type="text/css">
   <![CDATA[
    .fil0 {fill:#FEFEFE}
   ]]>
  </style>
 </defs>
 <g id="Layer-98">
  <metadata id="CorelCorpID_0Corel-Layer"/>
  <g id="_2997661160672">
   <path class="fil0" d="M1.2 0.47c-0.01,-0.02 0,-0.01 -0.01,-0.03 -0.05,-0.01 -0.34,0.03 -0.4,0.04 -0.12,0.03 -0.24,0.05 -0.36,0.09 -0.1,0.02 -0.25,0.07 -0.31,0.13 -0.03,0.03 -0.07,0.08 -0.09,0.13 -0.01,0.04 -0.04,0.15 -0.02,0.19 0.01,0.02 0.09,0.02 0.11,0.03 0.05,0 0.09,0 0.14,0.01 0,0.03 -0.05,0.08 -0.08,0.1 -0.05,0.02 -0.11,0.01 -0.15,0.02 0,0.03 0.04,0.04 0.07,0.05 0.03,0.01 0.07,0.02 0.1,0.03 0.06,0.01 0.15,0.03 0.21,0.03 0,-0.1 -0.01,-0.11 0.02,-0.22 0.11,-0.37 0.56,-0.39 0.75,-0.16 0.09,0.1 0.11,0.19 0.12,0.37 0.07,0 0.15,-0.01 0.22,-0.01 0.08,-0.01 0.16,-0.01 0.23,-0.01l0.92 -0.02c0.15,0 0.3,-0.01 0.45,-0.01 0,-0.15 0.03,-0.25 0.11,-0.33 0.09,-0.09 0.17,-0.14 0.31,-0.14 0.14,-0.01 0.25,0.05 0.33,0.12 0.03,0.03 0.06,0.08 0.09,0.13 0.04,0.08 0.03,0.12 0.04,0.18 0.06,0.02 0.41,-0.03 0.46,-0.07 0.04,-0.03 0.03,-0.05 0.03,-0.1 0.01,-0.13 0.05,-0.13 0.01,-0.23 -0.02,-0.04 -0.02,-0.08 -0.03,-0.12 -0.04,-0.03 -0.17,0.01 -0.22,-0.04 0,-0.04 0.04,-0.1 0.06,-0.12 0.04,-0.06 0.06,-0.02 0.12,-0.05 0,-0.09 -0.28,-0.08 -0.41,-0.11 -0.26,-0.06 -0.38,-0.32 -1.21,-0.35 -0.2,0 -0.66,0 -0.87,0.04 -0.07,0.02 -0.06,0.03 -0.08,0.05 -0.04,0.04 -0.26,0.17 -0.32,0.2 -0.05,0.03 -0.29,0.18 -0.34,0.18zm-1.14 0.39l0.27 0c0.02,-0.02 0.07,-0.09 0.07,-0.12 -0.04,-0.01 -0.18,-0.03 -0.22,-0.02 -0.04,0 -0.06,0.03 -0.08,0.05 -0.01,0.03 -0.03,0.06 -0.04,0.09zm3.17 -0.44l0.23 0.01c0.02,-0.03 0.06,-0.09 0.07,-0.12 -0.07,-0.08 -0.21,-0.15 -0.32,-0.17l0.02 0.28zm-0.78 0.01l0.68 0c0,-0.06 -0.01,-0.29 -0.03,-0.31 -0.03,-0.04 -0.26,-0.04 -0.31,-0.04 -0.08,0 -0.17,-0.01 -0.25,-0.01 -0.04,0 -0.05,0 -0.06,0.04 -0.01,0.03 -0.04,0.27 -0.03,0.32zm-1.05 0.05c0.07,0.01 0.87,-0.03 0.9,-0.05 0.02,-0.01 0.05,-0.22 0.06,-0.27 0.01,-0.04 0.03,-0.07 -0.02,-0.07 -0.21,-0.04 -0.51,0.1 -0.69,0.2 -0.07,0.04 -0.22,0.14 -0.25,0.19z"/>
   <path class="fil0" d="M0.79 0.85c-0.18,0.02 -0.33,0.2 -0.29,0.41 0.02,0.18 0.19,0.33 0.41,0.29 0.18,-0.03 0.33,-0.19 0.3,-0.41 -0.03,-0.19 -0.2,-0.32 -0.42,-0.29zm0.03 0.1c-0.25,0.04 -0.28,0.34 -0.13,0.45 0.05,0.02 0.13,0.06 0.2,0.05 0.12,-0.02 0.23,-0.14 0.21,-0.29 -0.02,-0.13 -0.14,-0.23 -0.28,-0.21z"/>
   <path class="fil0" d="M3.52 0.85c-0.11,0.01 -0.17,0.03 -0.24,0.12 -0.05,0.07 -0.09,0.15 -0.08,0.27 0.02,0.19 0.19,0.34 0.41,0.32 0.17,-0.03 0.33,-0.19 0.31,-0.4 -0.02,-0.19 -0.19,-0.34 -0.4,-0.31zm-0.02 0.11c-0.23,0.05 -0.25,0.34 -0.08,0.44 0.05,0.04 0.12,0.06 0.2,0.04 0.33,-0.09 0.19,-0.56 -0.12,-0.48z"/>
  </g>
 </g>
</svg>
