<?xml version="1.0" encoding="UTF-8"?>
<!DOCTYPE svg PUBLIC "-//W3C//DTD SVG 1.1//EN" "http://www.w3.org/Graphics/SVG/1.1/DTD/svg11.dtd">
<!-- Creator: CorelDRAW 2018 (64-Bit) -->
<svg xmlns="http://www.w3.org/2000/svg" xml:space="preserve" width="320px" height="325px" version="1.1" style="shape-rendering:geometricPrecision; text-rendering:geometricPrecision; image-rendering:optimizeQuality; fill-rule:evenodd; clip-rule:evenodd"
viewBox="0 0 12.97 13.2"
 xmlns:xlink="http://www.w3.org/1999/xlink">
 <defs>
  <style type="text/css">
   <![CDATA[
    .fil2 {fill:#FEFEFE}
    .fil1 {fill:#E31E24}
    .fil0 {fill:#FEFEFE;fill-rule:nonzero}
   ]]>
  </style>
 </defs>
 <g id="Layer-151">
  <metadata id="CorelCorpID_0Corel-Layer"/>
  <g id="_2997741204128">
   <path class="fil0" d="M6.48 0c1.79,0 3.41,0.74 4.59,1.94 1.17,1.19 1.9,2.84 1.9,4.66 0,1.82 -0.73,3.47 -1.9,4.66 -1.18,1.2 -2.8,1.94 -4.59,1.94 -1.79,0 -3.41,-0.74 -4.58,-1.94 -1.17,-1.19 -1.9,-2.84 -1.9,-4.66 0,-1.82 0.73,-3.47 1.9,-4.66 1.17,-1.2 2.79,-1.94 4.58,-1.94z"/>
   <path class="fil1" d="M6.48 0.39c3.37,0 6.1,2.78 6.1,6.21 0,3.43 -2.73,6.21 -6.1,6.21 -3.36,0 -6.09,-2.78 -6.09,-6.21 0,-3.43 2.73,-6.21 6.09,-6.21z"/>
  </g>
 </g>
 <g id="Layer-183">
  <metadata id="CorelCorpID_1Corel-Layer"/>
  <g id="_2997741204160">
   <path class="fil2" d="M4.7 5.07c-0.36,0.02 -0.67,0.38 -0.72,0.73 -0.04,0.23 -0.01,2.84 -0.01,3.22 0,0.16 -0.01,0.18 0.05,0.31 0.08,0.19 0.17,0.32 0.31,0.41 0.19,0.14 0.27,0.15 0.55,0.16 0.67,0.02 1.48,0.01 2.16,0.01l2.16 0c0.23,0 0.5,0 0.72,-0.02 0.35,-0.03 0.66,-0.37 0.71,-0.72 0.04,-0.26 0.01,-2.54 0.01,-2.86 0,-0.62 0.03,-0.91 -0.57,-1.21 -0.1,-0.05 -0.21,-0.03 -0.33,-0.03l-3.6 -0.01c-0.47,0 -0.98,-0.01 -1.44,0.01zm-0.18 3.86c-0.02,0.15 0,0.27 0.08,0.34 0.11,0.1 0.16,0.1 0.33,0.1 1.39,0.02 2.88,0.02 4.27,0.01 0.17,0 0.69,0.02 0.8,-0.05 0.1,-0.05 0.16,-0.11 0.17,-0.26 0,-0.1 0.02,-0.33 0,-0.43l0 -1.78 -5.65 0c-0.01,0.5 -0.01,1.05 0,1.56 0,0.1 0.02,0.44 0,0.51zm-0.01 -2.9c0.22,0.02 2.07,0.01 2.4,0 1.04,0 2.23,0.03 3.27,-0.01 0.02,-0.22 -0.08,-0.4 -0.26,-0.42 -0.18,-0.02 -0.42,-0.01 -0.61,-0.01 -1.3,-0.01 -2.78,-0.01 -4.08,0 -0.12,0 -0.47,-0.01 -0.55,0.03 -0.14,0.07 -0.17,0.21 -0.17,0.41z"/>
   <path class="fil2" d="M3.58 9.48c0.01,-0.06 -0.11,-0.33 -0.13,-0.45 -0.03,-0.22 -0.01,-2.54 -0.01,-2.95 0,-0.18 -0.02,-0.41 0.03,-0.57 0.15,-0.44 0.39,-0.74 0.86,-0.93 0.2,-0.08 0.29,-0.06 0.53,-0.06l2.96 -0.02c0,-0.05 -0.31,-0.64 -0.36,-0.74 -0.1,-0.21 -0.26,-0.55 -0.39,-0.7 -0.15,-0.19 -0.46,-0.34 -0.8,-0.28 -0.15,0.03 -0.6,0.27 -0.76,0.34 -0.96,0.46 -2,0.98 -2.95,1.46 -0.24,0.12 -0.49,0.23 -0.73,0.36 -0.27,0.14 -0.46,0.2 -0.61,0.49 -0.16,0.32 -0.08,0.59 0.06,0.87 0.12,0.26 0.24,0.5 0.36,0.75 0.24,0.5 0.49,0.98 0.73,1.47 0.07,0.15 0.29,0.62 0.39,0.71 0.05,0.05 0.08,0.07 0.15,0.12 0.2,0.13 0.43,0.17 0.67,0.13z"/>
   <path class="fil2" d="M5.82 8.84c0.09,0.05 0.14,0.13 0.26,0.16 0.7,0.2 1.03,-0.77 0.4,-1.04 -0.11,-0.05 -0.25,-0.06 -0.38,-0.02 -0.15,0.04 -0.17,0.09 -0.27,0.16 -0.17,-0.12 -0.34,-0.26 -0.63,-0.15 -0.49,0.18 -0.45,0.86 -0.04,1.03 0.09,0.04 0.28,0.06 0.39,0.03 0.04,-0.01 0.11,-0.04 0.15,-0.07 0.06,-0.04 0.06,-0.06 0.12,-0.1z"/>
   <path class="fil2" d="M4.52 8.93c0.02,-0.07 0,-0.41 0,-0.51 -0.01,-0.51 -0.01,-1.06 0,-1.56l5.65 0 0 1.78c0.03,-0.06 0.01,-0.35 0.01,-0.44 0,-0.18 0.01,-1.26 0,-1.35 -0.09,-0.03 -1.21,0 -1.41,-0.01 -0.47,0 -0.95,0.01 -1.43,0l-2.12 0c-0.18,0 -0.56,-0.02 -0.71,0.01 -0.02,0.1 -0.01,1.36 -0.01,1.57 0,0.09 -0.01,0.46 0.02,0.51z"/>
  </g>
 </g>
</svg>
