<?xml version="1.0" encoding="UTF-8"?>
<!DOCTYPE svg PUBLIC "-//W3C//DTD SVG 1.1//EN" "http://www.w3.org/Graphics/SVG/1.1/DTD/svg11.dtd">
<!-- Creator: CorelDRAW 2018 (64-Bit) -->
<svg xmlns="http://www.w3.org/2000/svg" xml:space="preserve" width="354px" height="361px" version="1.1" style="shape-rendering:geometricPrecision; text-rendering:geometricPrecision; image-rendering:optimizeQuality; fill-rule:evenodd; clip-rule:evenodd"
viewBox="0 0 8.73 8.88"
 xmlns:xlink="http://www.w3.org/1999/xlink">
 <defs>
  <style type="text/css">
   <![CDATA[
    .fil2 {fill:#FEFEFE}
    .fil1 {fill:#E31E24}
    .fil0 {fill:#FEFEFE;fill-rule:nonzero}
   ]]>
  </style>
 </defs>
 <g id="Layer-217">
  <metadata id="CorelCorpID_0Corel-Layer"/>
  <path class="fil0" d="M4.36 0c1.21,0 2.3,0.5 3.09,1.3 0.79,0.81 1.28,1.92 1.28,3.14 0,1.22 -0.49,2.33 -1.28,3.14 -0.79,0.8 -1.88,1.3 -3.09,1.3 -1.2,0 -2.29,-0.5 -3.08,-1.3 -0.79,-0.81 -1.28,-1.92 -1.28,-3.14 0,-1.22 0.49,-2.33 1.28,-3.14 0.79,-0.8 1.88,-1.3 3.08,-1.3z"/>
 </g>
 <g id="Layer-218">
  <metadata id="CorelCorpID_1Corel-Layer"/>
  <path class="fil1" d="M4.36 0.26c2.27,0 4.11,1.87 4.11,4.18 0,2.31 -1.84,4.18 -4.11,4.18 -2.26,0 -4.1,-1.87 -4.1,-4.18 0,-2.31 1.84,-4.18 4.1,-4.18z"/>
 </g>
 <g id="Layer-226">
  <metadata id="CorelCorpID_2Corel-Layer"/>
  <path class="fil2" d="M3.21 3.16c-0.06,0.02 -0.07,0.01 -0.09,0.09 -0.03,0.15 0,0.34 0.05,0.47 0.05,0.11 0.14,0.25 0.22,0.33 0.02,0.02 0.03,0.09 0.05,0.13 0.1,0.26 0.28,0.48 0.51,0.58 0.51,0.22 0.97,-0.15 1.11,-0.58 0.02,-0.05 0.02,-0.1 0.06,-0.13 0.03,-0.03 0.05,-0.06 0.08,-0.1 0.11,-0.14 0.19,-0.34 0.19,-0.53 0,-0.06 0,-0.12 -0.01,-0.17 -0.01,-0.06 -0.03,-0.08 -0.09,-0.09 -0.01,-0.38 0.04,-0.7 -0.19,-1.03 -0.19,-0.26 -0.52,-0.36 -0.85,-0.36 -0.16,0 -0.38,0.04 -0.5,0.09 -0.08,0.04 -0.14,0.07 -0.19,0.12 -0.19,0.14 -0.28,0.34 -0.33,0.59 -0.03,0.17 0,0.41 -0.02,0.59z"/>
 </g>
 <g id="Layer-227">
  <metadata id="CorelCorpID_3Corel-Layer"/>
  <path class="fil2" d="M1.81 6.26l0 0.2c0.01,0.03 0.02,0.06 0.04,0.08 0.11,0.14 0.48,0.16 0.65,0.19 0.28,0.05 0.57,0.08 0.85,0.11 0.14,0.02 0.77,0.05 0.92,0.05 0.1,0 0.87,-0.03 0.91,-0.05 0.01,-0.01 0.01,0 0.01,-0.02 0,0 -0.05,-0.18 -0.06,-0.25 -0.03,-0.31 0.03,-0.56 0.19,-0.81 0.08,-0.14 0.07,-0.11 0.16,-0.21 0.03,-0.05 0.12,-0.12 0.16,-0.15 0.22,-0.17 0.41,-0.19 0.45,-0.22 -0.02,-0.01 -0.03,-0.02 -0.05,-0.03 -0.12,-0.06 -0.34,-0.17 -0.44,-0.21l-0.52 -0.22c-0.02,0.09 -0.04,0.19 -0.06,0.28 -0.06,0.24 -0.15,0.56 -0.24,0.77 -0.09,0.2 -0.12,0.27 -0.24,0.44 -0.33,0.48 -0.23,0.49 -0.52,0.11l-0.18 -0.32c-0.19,-0.32 -0.26,-0.64 -0.35,-1 -0.02,-0.08 -0.04,-0.21 -0.06,-0.28 -0.05,0.02 -0.09,0.04 -0.13,0.06 -0.34,0.15 -0.64,0.24 -0.95,0.45 -0.08,0.05 -0.14,0.11 -0.2,0.19 -0.06,0.07 -0.11,0.15 -0.16,0.23 -0.09,0.18 -0.12,0.25 -0.16,0.44 0,0.03 -0.02,0.16 -0.02,0.17z"/>
 </g>
 <g id="Layer-228">
  <metadata id="CorelCorpID_4Corel-Layer"/>
  <path class="fil2" d="M6.2 7.44c0.03,0.01 0.28,0.02 0.32,0 0.05,-0.03 0.05,-0.21 0.06,-0.29 0.15,-0.08 0.16,-0.06 0.27,0.04 0.13,0.11 0.15,0.04 0.25,-0.05 0.12,-0.12 0.15,-0.13 0.05,-0.25 -0.02,-0.02 -0.08,-0.1 -0.09,-0.12 -0.01,-0.03 0.04,-0.13 0.05,-0.15 0.08,-0.02 0.22,0 0.28,-0.05 0.03,-0.03 0.03,-0.24 0.02,-0.31 -0.01,-0.08 -0.05,-0.07 -0.12,-0.08 -0.06,-0.01 -0.12,-0.02 -0.18,-0.03 -0.01,-0.02 -0.04,-0.09 -0.05,-0.11 -0.01,-0.05 0.09,-0.15 0.13,-0.21 0.04,-0.05 0.02,-0.08 -0.02,-0.12 -0.05,-0.05 -0.11,-0.12 -0.17,-0.17 -0.04,-0.03 -0.07,-0.02 -0.11,0.01 -0.19,0.14 -0.13,0.15 -0.27,0.09 -0.06,-0.02 -0.05,-0.04 -0.06,-0.19 -0.01,-0.05 -0.01,-0.1 -0.06,-0.12 -0.04,-0.01 -0.29,-0.01 -0.32,0.01 -0.06,0.03 -0.04,0.21 -0.07,0.27 -0.01,0.03 -0.02,0.03 -0.05,0.04 -0.07,0.03 -0.08,0.05 -0.17,-0.03 -0.17,-0.14 -0.16,-0.11 -0.3,0.03 -0.09,0.08 -0.15,0.1 -0.07,0.2 0.13,0.17 0.14,0.14 0.08,0.27 -0.01,0.03 -0.01,0.03 -0.05,0.04 -0.08,0.01 -0.24,0 -0.26,0.08 -0.01,0.05 -0.01,0.29 0.01,0.32 0.03,0.04 0.23,0.05 0.29,0.06 0.05,0.17 0.09,0.1 -0.05,0.27 -0.1,0.13 -0.06,0.12 0.06,0.25 0.12,0.14 0.15,0.13 0.25,0.05 0.15,-0.11 0.1,-0.11 0.23,-0.06 0,0 0.02,0.01 0.02,0.01 0.06,0.04 -0.01,0.27 0.1,0.3zm0.09 -1.38c-0.47,0.11 -0.29,0.76 0.13,0.66 0.16,-0.04 0.3,-0.19 0.26,-0.4 -0.03,-0.16 -0.19,-0.31 -0.39,-0.26z"/>
 </g>
 <g id="Layer-229">
  <metadata id="CorelCorpID_5Corel-Layer"/>
  <path class="fil2" d="M5.53 4.13c-0.02,0.01 -0.06,0.02 -0.08,0.03 -0.22,0.13 -0.15,0.46 0.09,0.5 0.31,0.04 0.43,-0.36 0.18,-0.5 0,-0.05 0.01,-0.12 0.02,-0.17 0.01,-0.05 0.01,-0.13 0.01,-0.18 0.08,-0.02 0.1,-0.02 0.16,-0.06 0.04,-0.03 0.08,-0.06 0.1,-0.13 0.02,-0.09 0.01,-0.32 0.01,-0.42 -0.01,-0.31 0.06,-0.58 -0.27,-0.61 -0.05,-0.27 -0.1,-0.43 -0.28,-0.64 -0.1,-0.13 -0.13,-0.13 -0.23,-0.22 -0.1,-0.09 -0.17,-0.12 -0.29,-0.18 -0.22,-0.11 -0.5,-0.16 -0.78,-0.16 -0.15,0.01 -0.25,0.04 -0.39,0.08 -0.42,0.11 -0.83,0.44 -0.97,0.87 -0.01,0.05 -0.03,0.12 -0.04,0.18 -0.01,0.05 0,0.07 -0.04,0.07 -0.05,0.01 -0.06,0.01 -0.1,0.03 -0.16,0.07 -0.14,0.19 -0.14,0.32 0,0.15 0,0.31 0,0.46 0,0.17 -0.02,0.28 0.11,0.36 0.08,0.05 0.3,0.09 0.33,-0.04 0.01,-0.05 0,-0.79 0,-0.91 0,-0.34 0.06,-0.5 0.22,-0.71 0.22,-0.32 0.73,-0.59 1.31,-0.51 0.51,0.08 0.9,0.38 1.05,0.79 0.09,0.25 0.06,0.58 0.06,0.87 0,0.15 0.01,0.79 -0.04,0.88z"/>
 </g>
 <g id="Layer-230">
  <metadata id="CorelCorpID_6Corel-Layer"/>
  <path class="fil2" d="M4.25 6.42c0.03,-0.03 0.22,-0.38 0.24,-0.44 0.03,-0.06 -0.02,-0.21 -0.04,-0.27 -0.03,-0.16 -0.01,-0.14 -0.2,-0.14 -0.2,0 -0.16,-0.05 -0.23,0.27 -0.02,0.05 -0.03,0.09 -0.01,0.14 0.04,0.07 0.07,0.15 0.12,0.22 0.02,0.04 0.03,0.07 0.06,0.11 0.01,0.03 0.03,0.09 0.06,0.11z"/>
 </g>
 <g id="Layer-231">
  <metadata id="CorelCorpID_7Corel-Layer"/>
  <path class="fil2" d="M4.14 5.5l0.23 0c0.08,0 0.07,-0.05 0.09,-0.16 0.04,-0.19 0.08,-0.25 -0.04,-0.25l-0.34 0c-0.11,0 -0.08,0.05 -0.05,0.2 0.03,0.17 0.02,0.21 0.11,0.21z"/>
 </g>
</svg>
