<?xml version="1.0" encoding="UTF-8"?>
<!DOCTYPE svg PUBLIC "-//W3C//DTD SVG 1.1//EN" "http://www.w3.org/Graphics/SVG/1.1/DTD/svg11.dtd">
<!-- Creator: CorelDRAW 2018 (64-Bit) -->
<svg xmlns="http://www.w3.org/2000/svg" xml:space="preserve" width="320px" height="325px" version="1.1" style="shape-rendering:geometricPrecision; text-rendering:geometricPrecision; image-rendering:optimizeQuality; fill-rule:evenodd; clip-rule:evenodd"
viewBox="0 0 12.98 13.21"
 xmlns:xlink="http://www.w3.org/1999/xlink">
 <defs>
  <style type="text/css">
   <![CDATA[
    .fil2 {fill:#FEFEFE}
    .fil1 {fill:#E31E24}
    .fil0 {fill:#FEFEFE;fill-rule:nonzero}
   ]]>
  </style>
 </defs>
 <g id="Layer-150">
  <metadata id="CorelCorpID_0Corel-Layer"/>
  <g id="_2997731620576">
   <path class="fil0" d="M6.49 0c1.79,0 3.41,0.74 4.59,1.94 1.17,1.19 1.9,2.84 1.9,4.66 0,1.82 -0.73,3.47 -1.9,4.67 -1.18,1.2 -2.8,1.94 -4.59,1.94 -1.79,0 -3.42,-0.74 -4.59,-1.94 -1.17,-1.2 -1.9,-2.85 -1.9,-4.67 0,-1.82 0.73,-3.47 1.9,-4.66 1.17,-1.2 2.8,-1.94 4.59,-1.94z"/>
   <path class="fil1" d="M6.49 0.39c3.37,0 6.1,2.78 6.1,6.21 0,3.44 -2.73,6.22 -6.1,6.22 -3.37,0 -6.1,-2.78 -6.1,-6.22 0,-3.43 2.73,-6.21 6.1,-6.21z"/>
  </g>
 </g>
 <g id="Layer-182">
  <metadata id="CorelCorpID_1Corel-Layer"/>
  <g id="_2997731620896">
   <path class="fil2" d="M4.16 4.32c-0.09,0.02 -0.13,0.05 -0.19,0.09 -0.06,0.03 -0.12,0.07 -0.17,0.1 -0.36,0.22 -0.85,0.36 -1.28,0.4 -0.2,0.02 -0.31,0.03 -0.4,0.16 -0.08,0.13 -0.06,0.34 -0.06,0.5 0,0.65 0.12,1.27 0.4,1.84 0.08,0.17 0.2,0.36 0.32,0.51 0.09,0.12 0.16,0.2 0.26,0.3 0.11,0.12 0.32,0.29 0.46,0.39 0.09,0.06 0.23,0.15 0.35,0.21 0.12,0.06 0.25,0.16 0.43,0.13 0.16,-0.02 0.55,-0.32 0.68,-0.42 0.95,-0.78 1.35,-1.81 1.41,-3.08 0.01,-0.21 0.01,-0.32 -0.11,-0.44 -0.11,-0.1 -0.29,-0.09 -0.46,-0.11 -0.31,-0.04 -0.62,-0.12 -0.88,-0.24 -0.12,-0.06 -0.25,-0.13 -0.36,-0.2 -0.1,-0.07 -0.22,-0.18 -0.4,-0.14zm-1.01 2l0 0.63c0.13,0 0.25,0 0.38,0l0.35 0.01c0.02,0 0.01,0 0.02,0l0 0.74 0.64 0 0 -0.75 0.74 0 0 -0.63c-0.1,0 -0.71,0.01 -0.75,-0.01 -0.01,-0.05 0,-0.64 0,-0.74l-0.64 -0.01 0 0.76 -0.74 0z"/>
   <path class="fil2" d="M8.04 3.51l0.98 0.01 0 5.17 -0.9 0c-0.1,0 -0.18,0.06 -0.22,0.11 -0.06,0.1 -0.06,0.14 -0.06,0.28 0,0.21 0.01,0.45 0,0.66l-3.45 0 -0.01 -0.33c-0.13,0.01 -0.18,0.02 -0.32,0 0,0.1 -0.01,0.35 0.01,0.43 0.08,0.29 0.41,0.22 0.66,0.22l3.31 0c0.05,0 0.09,0.01 0.21,0.01 0.14,0 0.79,0.02 0.87,-0.01 0.11,-0.03 0.19,-0.12 0.22,-0.23 0.02,-0.08 0.01,-0.74 0.01,-0.88l0 -5.29c0,-0.16 0.01,-0.25 -0.08,-0.36 -0.08,-0.1 -0.18,-0.11 -0.34,-0.11 -0.3,0 -0.59,0 -0.89,0l0 0.32zm0.06 6.21l0.11 -0.09c0.04,-0.04 0.07,-0.07 0.11,-0.1 0.01,-0.01 0.02,-0.02 0.03,-0.03 0.05,-0.05 0.63,-0.53 0.64,-0.55 -0.13,0 -0.27,0 -0.41,0 -0.14,0 -0.26,-0.02 -0.35,0.06 -0.09,0.06 -0.13,0.14 -0.13,0.29 0,0.11 -0.02,0.31 0,0.42z"/>
   <path class="fil2" d="M6.26 2.94c-0.24,0.01 -0.42,-0.06 -0.57,0.1 -0.07,0.07 -0.07,0.16 -0.07,0.28 0,0.11 0,0.23 0,0.34 0.59,0 1.18,0 1.77,0 0.08,0 0.15,0 0.22,0 0.07,0 0.16,0.02 0.18,-0.05 0,-0.04 0,-0.38 -0.01,-0.43 -0.06,-0.34 -0.45,-0.21 -0.64,-0.25 -0.02,-0.26 -0.1,-0.21 -0.43,-0.21 -0.09,0 -0.25,-0.01 -0.33,0.01 -0.11,0.01 -0.11,0.13 -0.12,0.21z"/>
   <path class="fil2" d="M6.15 7.89l2.17 0c0.11,0 0.17,-0.02 0.21,-0.1 0.04,-0.09 0.01,-0.19 -0.05,-0.23 -0.07,-0.05 -0.17,-0.04 -0.27,-0.04 -0.2,0 -0.41,0 -0.62,0 -0.21,0 -0.41,0 -0.62,0 -0.19,0 -0.44,-0.01 -0.62,0 -0.05,0.12 -0.18,0.33 -0.2,0.37z"/>
   <path class="fil2" d="M6.76 4.92l1.59 0c0.25,0 0.26,-0.29 0.08,-0.35 -0.06,-0.02 -1.43,-0.01 -1.66,-0.01 -0.1,0 -0.24,-0.01 -0.33,0 0.02,0.03 0.09,0.06 0.14,0.11 0.07,0.07 0.14,0.13 0.18,0.25z"/>
   <path class="fil2" d="M6.58 6.96l1.57 0c0.18,0 0.35,0.04 0.39,-0.13 0.02,-0.08 -0.01,-0.16 -0.05,-0.19 -0.06,-0.05 -0.13,-0.04 -0.23,-0.04l-1.58 0c-0.02,0.13 -0.08,0.28 -0.1,0.36z"/>
   <path class="fil2" d="M6.81 5.84l1.43 0c0.1,0 0.3,0.03 0.31,-0.17 0,-0.07 -0.03,-0.13 -0.07,-0.16 -0.07,-0.04 -0.14,-0.03 -0.22,-0.03l-1.42 0 -0.03 0.36z"/>
   <path class="fil2" d="M4.06 3.86c0.26,-0.03 0.13,-0.01 0.32,0l0 -0.35 0.98 0 0 -0.32c-0.05,0 -0.9,0 -0.97,0 -0.16,0 -0.27,0.08 -0.31,0.19 -0.03,0.09 -0.02,0.36 -0.02,0.48z"/>
   <path class="fil2" d="M8.12 8.69l0.9 0 0 -5.17 -0.98 -0.01c0.04,0.02 0.87,0.01 0.98,0.01l0 5.16c-0.11,0 -0.87,-0.01 -0.9,0.01z"/>
   <path class="fil2" d="M5.28 6.95c0.01,-0.02 0.01,0 0.01,-0.03l0 -0.61c-0.04,-0.01 -0.66,0 -0.76,0l0 -0.72c0,-0.02 0.01,-0.01 0,-0.02 0,0.1 -0.01,0.69 0,0.74 0.04,0.02 0.65,0.01 0.75,0.01l0 0.63z"/>
   <path class="fil2" d="M3.9 6.96c-0.01,0 0,0 -0.02,0l-0.35 -0.01c-0.13,0 -0.25,0 -0.38,0l0 -0.63c0,0 0,0 0,0 0,0.02 -0.01,0 -0.01,0.07 0,0.14 0,0.48 0.01,0.57 0.06,0.02 0.63,0 0.75,0z"/>
  </g>
 </g>
</svg>
