<?xml version="1.0" encoding="UTF-8"?>
<!DOCTYPE svg PUBLIC "-//W3C//DTD SVG 1.1//EN" "http://www.w3.org/Graphics/SVG/1.1/DTD/svg11.dtd">
<!-- Creator: CorelDRAW 2018 (64-Bit) -->
<svg xmlns="http://www.w3.org/2000/svg" xml:space="preserve" width="320px" height="325px" version="1.1" style="shape-rendering:geometricPrecision; text-rendering:geometricPrecision; image-rendering:optimizeQuality; fill-rule:evenodd; clip-rule:evenodd"
viewBox="0 0 12.97 13.2"
 xmlns:xlink="http://www.w3.org/1999/xlink">
 <defs>
  <style type="text/css">
   <![CDATA[
    .fil2 {fill:#FEFEFE}
    .fil1 {fill:#E31E24}
    .fil0 {fill:#FEFEFE;fill-rule:nonzero}
   ]]>
  </style>
 </defs>
 <g id="Layer-157">
  <metadata id="CorelCorpID_0Corel-Layer"/>
  <g id="_2997771754736">
   <path class="fil0" d="M6.48 0c1.8,0 3.42,0.74 4.59,1.94 1.17,1.19 1.9,2.84 1.9,4.66 0,1.82 -0.73,3.47 -1.9,4.66 -1.17,1.2 -2.79,1.94 -4.59,1.94 -1.79,0 -3.41,-0.74 -4.58,-1.94 -1.17,-1.19 -1.9,-2.84 -1.9,-4.66 0,-1.82 0.73,-3.47 1.9,-4.66 1.17,-1.2 2.79,-1.94 4.58,-1.94z"/>
   <path class="fil1" d="M6.48 0.39c3.37,0 6.1,2.78 6.1,6.21 0,3.43 -2.73,6.21 -6.1,6.21 -3.36,0 -6.09,-2.78 -6.09,-6.21 0,-3.43 2.73,-6.21 6.09,-6.21z"/>
  </g>
 </g>
 <g id="Layer-193">
  <metadata id="CorelCorpID_1Corel-Layer"/>
  <g id="_2997771755152">
   <path class="fil2" d="M4.64 11.19l2.38 0c0.05,-0.03 0.17,-0.04 0.23,-0.19 0.06,-0.12 0.02,-0.26 -0.05,-0.34 -0.09,-0.09 -0.15,-0.1 -0.32,-0.1l-1.32 0c-0.28,0 -0.59,0.01 -0.87,0l-0.01 0 -0.16 -0.03c-0.32,-0.07 -0.6,-0.36 -0.67,-0.67 -0.06,-0.2 -0.04,-0.44 -0.04,-0.67 0,-0.24 0,-0.48 0,-0.72 0,-0.47 0,-0.95 0,-1.43 0,-0.95 0,-1.91 0,-2.87 0,-0.25 -0.01,-0.41 0.08,-0.62 0.16,-0.35 0.5,-0.56 0.89,-0.56l2.87 0c0.11,0 0.24,0 0.35,0.01 0.07,0 0.24,0.04 0.28,0.07 0.12,0.03 0.27,0.16 0.33,0.23 0.06,0.08 0.18,0.21 0.2,0.35 0.02,0.03 0.03,0.08 0.02,0.11 0.01,0.02 0,0 0.01,0.02 0.02,0.04 0.02,0.13 0.02,0.16l0 0.15 0 0.14 0 0.15 0 0.14 0 0.14 0 0.15 0 0.14 0 0.15 0 0.14 0 0.14 0 0.15 0 0.14 0 0.15 0 0.14 0 0.14 0 0.15 0 0.14 0 0.15 0 0.14 0 0.14c0,0.17 0.01,0.28 0.11,0.36 0.22,0.16 0.52,0.04 0.52,-0.27l0 -2.31c0,-0.69 0.05,-1.08 -0.29,-1.57 -0.13,-0.19 -0.27,-0.31 -0.48,-0.45 -0.33,-0.2 -0.65,-0.2 -0.7,-0.22l-3.38 0c-0.09,0.04 -0.49,-0.01 -1,0.47 -0.04,0.04 -0.05,0.05 -0.09,0.09 -0.21,0.23 -0.35,0.6 -0.37,0.92 -0.01,0.36 0,1.07 0,1.47 0,0.49 0.01,0.98 0,1.47 0,0.48 0.01,0.98 0,1.46 0,0.24 0,0.49 0,0.73 0.01,0.25 -0.01,0.5 0,0.74 0.02,0.43 0.25,0.81 0.46,1.01l0.1 0.09c0.17,0.15 0.36,0.25 0.59,0.32 0.12,0.03 0.28,0.05 0.31,0.06z"/>
   <path class="fil2" d="M8.15 8.98l-0.16 0 -0.14 0 -0.15 0 -0.14 0 -0.14 0 -0.15 0c-0.16,0.02 -0.26,0.1 -0.3,0.24 -0.05,0.22 0.14,0.34 0.15,0.36 0.08,0.01 0.03,0.03 0.25,0.03l0.85 0 0.01 0.99c0,0.05 0.02,0.07 0.03,0.11 0.02,0.02 0.04,0.05 0.06,0.07 0.18,0.18 0.52,0.09 0.54,-0.21l0 -0.15 0 -0.14 0 -0.15 0 -0.14 0 -0.14 0 -0.14 -0.01 -0.1c0.19,0 0.96,0.03 1.07,-0.02 0.29,-0.12 0.26,-0.56 -0.1,-0.61l-0.1 0 -0.14 0 -0.15 0 -0.14 0 -0.15 0 -0.14 0 -0.14 0 0 -0.14 0 -0.15 0 -0.14 0 -0.14 0 -0.15 0 -0.14 0 -0.1c-0.04,-0.37 -0.51,-0.39 -0.61,-0.1 -0.05,0.12 -0.02,0.88 -0.02,1.06l-0.08 0z"/>
   <path class="fil2" d="M4.48 5.67c-0.01,0.04 -0.11,0.24 0.06,0.39 0.11,0.11 0.27,0.08 0.45,0.08 0.35,0.01 0.7,0 1.05,0l1.59 0c0.16,0 0.36,0.03 0.47,-0.06 0.2,-0.16 0.19,-0.56 -0.24,-0.57 -0.35,0 -0.71,0 -1.06,0l-2.11 0c-0.02,0.02 -0.04,0.02 -0.07,0.03 -0.1,0.05 -0.1,0.1 -0.14,0.13z"/>
   <path class="fil2" d="M4.68 3.94c-0.06,0.04 -0.08,0.03 -0.13,0.08 -0.05,0.05 -0.05,0.06 -0.09,0.12 -0.03,0.15 -0.02,0.27 0.12,0.37 0.01,0.01 0.03,0.02 0.05,0.03 0.01,0.01 0.02,0.01 0.04,0.01l0.03 0.02 0.13 0 0.14 0 0.14 0 0.15 0 0.14 0 0.15 0 0.14 0 0.14 0 0.15 0 0.14 0 0.15 0 0.14 0 0.14 0 0.15 0 0.14 0 0.14 0 0.15 0 0.14 0 0.15 0c0.14,0 0.51,0.02 0.62,-0.03 0.07,-0.03 0.13,-0.09 0.16,-0.17 0.05,-0.12 0.02,-0.17 -0.01,-0.28 -0.03,-0.02 -0.05,-0.06 -0.08,-0.09 -0.05,-0.03 -0.07,-0.04 -0.13,-0.05 -0.03,-0.01 -0.02,-0.01 -0.03,-0.02 -0.08,0.02 -1.5,0.01 -1.62,0.01 -0.11,0 -1.53,0.01 -1.6,-0.01 -0.01,0.01 0,0 -0.02,0.01 -0.01,0 -0.02,0 -0.03,0z"/>
   <path class="fil2" d="M7.29 7.37c-0.03,-0.04 -0.03,-0.17 -0.19,-0.25 -0.11,-0.05 -0.28,-0.03 -0.41,-0.03l-0.13 0 -0.16 0 -0.13 0 -0.16 0 -0.12 0 -0.17 0 -0.12 0 -0.16 0 -0.13 0 -0.16 0 -0.13 0 -0.16 0 -0.12 0 -0.12 0c-0.34,0.04 -0.37,0.52 -0.06,0.62 0.1,0.03 1.64,0.01 1.87,0.01 0.13,0 0.26,0 0.39,0 0.11,0 0.19,-0.02 0.26,-0.08 0.1,-0.09 0.09,-0.21 0.11,-0.27z"/>
  </g>
 </g>
</svg>
