<?xml version="1.0" encoding="UTF-8"?>
<!DOCTYPE svg PUBLIC "-//W3C//DTD SVG 1.1//EN" "http://www.w3.org/Graphics/SVG/1.1/DTD/svg11.dtd">
<!-- Creator: CorelDRAW 2018 (64-Bit) -->
<svg xmlns="http://www.w3.org/2000/svg" xml:space="preserve" width="191px" height="171px" version="1.1" style="shape-rendering:geometricPrecision; text-rendering:geometricPrecision; image-rendering:optimizeQuality; fill-rule:evenodd; clip-rule:evenodd"
viewBox="0 0 5.82 5.21"
 xmlns:xlink="http://www.w3.org/1999/xlink">
 <defs>
  <style type="text/css">
   <![CDATA[
    .fil0 {fill:black}
   ]]>
  </style>
 </defs>
 <g id="Layer-65">
  <metadata id="CorelCorpID_0Corel-Layer"/>
  <path class="fil0" d="M2.43 3.56c-0.07,0 -0.09,0 -0.15,-0.02 -0.04,-0.02 -0.09,-0.02 -0.13,-0.03 -0.25,-0.05 -0.57,-0.04 -0.81,0.02 -0.18,0.04 -0.34,0.1 -0.49,0.19 -0.13,0.08 -0.3,0.21 -0.33,0.36 -0.05,-0.01 -0.15,-0.03 -0.19,-0.09 0,-0.02 0.1,-0.13 0.12,-0.15l0.36 -0.39c0.14,-0.14 0.32,-0.26 0.54,-0.26 0.12,0 0.18,0 0.31,0.01 0.18,0.02 0.31,0.04 0.49,-0.05 0.06,-0.03 0.14,-0.1 0.18,-0.15 0.06,-0.07 0.09,-0.11 0.13,-0.2 0.02,-0.04 0.08,-0.19 0.08,-0.25 0,-0.05 -0.03,-0.1 -0.06,-0.12 -0.04,-0.03 -0.08,-0.03 -0.14,-0.03l-1.08 0c-0.01,-0.06 -0.02,-0.03 -0.02,-0.13 0,-0.06 0.02,-0.1 0.03,-0.15l0.21 -0.03c0.33,-0.05 0.71,-0.1 1.04,-0.15 0.09,-0.01 0.35,-0.05 0.43,-0.05 0.14,0 0.24,0.13 0.25,0.25 -0.03,0.02 -0.05,0.03 -0.08,0.05 -0.19,0.14 -0.33,0.33 -0.41,0.55 -0.05,0.13 -0.08,0.29 -0.11,0.45 -0.02,0.17 -0.02,0.37 -0.17,0.37zm0.67 1.35l-2.42 0 0.02 -0.25c0.02,-0.14 0.05,-0.36 0.09,-0.47 0.03,-0.08 0.07,-0.12 0.12,-0.16 0.33,-0.24 0.79,-0.3 1.21,-0.23 0.16,0.03 0.11,0.05 0.34,0.05 0.13,0 0.28,-0.09 0.33,-0.2 0.12,-0.23 0.08,-0.6 0.22,-0.87l0.06 -0.12c0.03,-0.04 0.1,-0.13 0.13,-0.15 0.02,-0.02 0.03,-0.03 0.05,-0.05 0.12,-0.1 0.32,-0.2 0.48,-0.24 0.21,-0.04 0.5,-0.2 0.64,-0.35l0.05 -0.04c0.02,-0.02 0.03,-0.03 0.05,-0.05l0.08 -0.1c0.06,-0.05 0.15,-0.19 0.2,-0.25 0.01,-0.02 0.02,-0.04 0.03,-0.06 0.01,-0.02 0.02,-0.03 0.04,-0.06 0.08,-0.15 0.17,-0.33 0.23,-0.49 0.01,-0.03 0.01,-0.04 0.04,-0.05 0.12,-0.06 0.44,0.06 0.44,0.18 0,0.04 -0.04,0.11 -0.06,0.14l-1.53 3.06c-0.05,0.09 -0.09,0.17 -0.14,0.26 -0.09,0.2 -0.17,0.32 -0.38,0.42 -0.09,0.05 -0.21,0.08 -0.32,0.08zm-0.45 -3.92c0,-0.17 0.01,-0.28 0.11,-0.42 0.01,-0.02 0.02,-0.03 0.04,-0.04l0.03 -0.05c0.02,-0.01 0.03,-0.02 0.04,-0.03 0.04,-0.03 0.1,-0.07 0.14,-0.09 0.12,-0.06 0.19,-0.06 0.32,-0.06 0.31,0 0.58,0.27 0.61,0.57 0.02,0.16 -0.02,0.31 -0.1,0.44l-0.08 0.09c-0.03,0.03 -0.09,0.08 -0.13,0.1 -0.02,0.02 -0.03,0.03 -0.05,0.03 -0.17,0.08 -0.35,0.09 -0.53,0.02 -0.14,-0.06 -0.26,-0.17 -0.33,-0.31 -0.04,-0.06 -0.07,-0.16 -0.07,-0.25zm-0.3 -0.05c0,0.08 0.01,0.15 0.02,0.22 0.03,0.11 0.09,0.24 0.16,0.34l0.08 0.1c0.01,0.01 0.02,0.01 0.03,0.03l-0.51 0.07c-0.16,0.02 -0.33,0.05 -0.51,0.07 -0.07,0.01 -0.16,0.03 -0.24,0.04 -0.25,0.03 -0.3,0.01 -0.38,0.21 -0.08,0.2 -0.08,0.42 0.06,0.6 0.08,0.1 0.15,0.08 0.32,0.08 0.27,0 0.53,0 0.8,0 -0.01,0.05 -0.08,0.12 -0.11,0.15 -0.02,0.02 -0.06,0.04 -0.08,0.05 -0.11,0.05 -0.24,0.02 -0.37,0 -0.28,-0.03 -0.53,0 -0.77,0.14l-0.11 0.08c-0.06,0.06 -0.28,0.26 -0.33,0.32 -0.02,0.03 -0.04,0.05 -0.06,0.07 -0.01,0.02 -0.01,0.02 -0.03,0.03 -0.07,0.08 -0.19,0.21 -0.26,0.3 -0.02,0.03 -0.06,0.07 -0.06,0.13 0,0.13 0.16,0.29 0.28,0.35 0.06,0.02 0.1,0.03 0.17,0.05l-0.04 0.23c-0.01,0.08 -0.01,0.17 -0.02,0.25 0,0.05 -0.01,0.22 0,0.25 0.01,0.07 0.07,0.11 0.16,0.11l2.46 0c0.33,0 0.6,-0.1 0.8,-0.29 0.02,-0.02 0.03,-0.04 0.05,-0.06 0.09,-0.08 0.16,-0.23 0.22,-0.34l0.88 -1.76c0.1,-0.2 0.2,-0.39 0.3,-0.59l0.44 -0.88c0.07,-0.13 0.12,-0.2 0.12,-0.34 0,-0.09 -0.03,-0.16 -0.07,-0.22 -0.16,-0.24 -0.73,-0.41 -0.93,-0.11 -0.02,0.02 -0.08,0.17 -0.09,0.21l-0.1 0.21c-0.09,0.19 -0.22,0.38 -0.37,0.53l-0.1 0.1c-0.12,0.1 -0.23,0.18 -0.38,0.24 -0.07,0.02 -0.16,0.04 -0.23,0.06 -0.03,0.01 -0.05,0.02 -0.08,0.03 -0.02,-0.04 -0.01,-0.05 -0.05,-0.12 0.14,0 0.34,-0.1 0.46,-0.19 0.04,-0.04 0.07,-0.07 0.11,-0.11l0.05 -0.06c0.02,-0.02 0.03,-0.04 0.05,-0.06 0.4,-0.6 -0.03,-1.46 -0.79,-1.46 -0.36,0 -0.67,0.21 -0.82,0.48 -0.08,0.13 -0.13,0.28 -0.13,0.46z"/>
 </g>
</svg>
