<?xml version="1.0" encoding="UTF-8"?>
<!DOCTYPE svg PUBLIC "-//W3C//DTD SVG 1.1//EN" "http://www.w3.org/Graphics/SVG/1.1/DTD/svg11.dtd">
<!-- Creator: CorelDRAW 2018 (64-Bit) -->
<svg xmlns="http://www.w3.org/2000/svg" xml:space="preserve" width="353px" height="372px" version="1.1" style="shape-rendering:geometricPrecision; text-rendering:geometricPrecision; image-rendering:optimizeQuality; fill-rule:evenodd; clip-rule:evenodd"
viewBox="0 0 7.71 8.13"
 xmlns:xlink="http://www.w3.org/1999/xlink">
 <defs>
  <style type="text/css">
   <![CDATA[
    .fil0 {fill:#FEFEFE}
   ]]>
  </style>
 </defs>
 <g id="Layer-85">
  <metadata id="CorelCorpID_0Corel-Layer"/>
  <g id="_2997751491968">
   <path class="fil0" d="M3.32 8.13l0.17 0c0.04,-0.03 0.14,-0.07 0.19,-0.09 0.06,-0.03 0.12,-0.06 0.18,-0.09 0.28,-0.12 0.46,-0.21 0.73,-0.36 0.6,-0.34 1.06,-0.71 1.49,-1.24 0.29,-0.36 0.61,-0.89 0.69,-1.49 0.04,-0.35 0.04,-0.71 0.04,-1.07 0,-0.21 0.01,-0.94 -0.01,-1.09 -0.04,0.01 -0.09,0.09 -0.12,0.13l-0.32 0.41c-0.09,0.11 -0.38,0.44 -0.4,0.57 -0.03,0.26 0.04,0.53 -0.03,0.94 -0.13,0.71 -0.66,1.32 -1.21,1.73 -0.44,0.32 -0.75,0.48 -1.24,0.71 -0.09,0.04 -0.11,0.02 -0.18,-0.02l-0.49 -0.25c-0.65,-0.33 -1.18,-0.73 -1.58,-1.33 -0.38,-0.56 -0.38,-0.94 -0.38,-1.57 0,-0.22 -0.02,-1.76 -0.01,-1.94 0.23,-0.06 0.49,-0.11 0.72,-0.18 0.62,-0.2 1.02,-0.4 1.56,-0.72 0.11,-0.06 0.23,-0.17 0.31,-0.14l0.28 0.18c0.25,0.15 0.63,0.34 0.9,0.46 0.05,0.03 0.29,0.13 0.33,0.13 0.07,0.01 0.11,-0.06 0.14,-0.09 0.05,-0.04 0.07,-0.07 0.11,-0.11 0.08,-0.09 0.4,-0.41 0.43,-0.48 -0.2,-0.08 -0.42,-0.14 -0.62,-0.22 -0.36,-0.14 -0.77,-0.37 -1.09,-0.58l-0.49 -0.33 -0.08 0 -0.14 0.1c-0.05,0.03 -0.09,0.06 -0.14,0.09 -0.67,0.46 -1.4,0.85 -2.22,1.01 -0.9,0.18 -0.84,-0.07 -0.84,0.56l0 2.3c0,0.31 -0.01,0.58 0.05,0.88 0.16,0.75 0.49,1.26 1,1.77 0.47,0.47 1.01,0.84 1.63,1.14 0.11,0.05 0.2,0.1 0.31,0.15 0.06,0.02 0.29,0.11 0.33,0.13z"/>
   <path class="fil0" d="M7.7 0.78c0.06,-0.27 -0.09,-0.47 -0.32,-0.49 -0.29,-0.04 -0.41,0.19 -0.53,0.3 -0.15,0.15 -0.26,0.28 -0.41,0.42 -0.07,0.07 -0.14,0.15 -0.21,0.22 -0.07,0.07 -0.12,0.12 -0.2,0.2 -0.4,0.4 -0.83,0.86 -1.24,1.27 -0.14,0.15 -0.25,0.28 -0.41,0.42l-0.62 0.64c-0.17,0.18 -0.42,0.18 -0.59,0.02l-0.6 -0.65c-0.14,-0.16 -0.27,-0.28 -0.4,-0.44 -0.06,-0.07 -0.12,-0.15 -0.23,-0.18 -0.38,-0.13 -0.71,0.26 -0.52,0.6 0.05,0.09 0.11,0.17 0.16,0.26 0.06,0.08 0.11,0.16 0.17,0.24 0.21,0.34 0.43,0.69 0.65,1.03 0.22,0.35 0.43,0.67 0.65,1.01 0.07,0.11 0.08,0.16 0.2,0.22 0.35,0.16 0.56,-0.19 0.75,-0.43l0.75 -0.92c0.75,-0.92 1.48,-1.86 2.24,-2.78 0.12,-0.15 0.24,-0.31 0.37,-0.46 0.09,-0.11 0.3,-0.34 0.34,-0.5z"/>
  </g>
 </g>
</svg>
