<?xml version="1.0" encoding="UTF-8"?>
<!DOCTYPE svg PUBLIC "-//W3C//DTD SVG 1.1//EN" "http://www.w3.org/Graphics/SVG/1.1/DTD/svg11.dtd">
<!-- Creator: CorelDRAW 2018 (64-Bit) -->
<svg xmlns="http://www.w3.org/2000/svg" xml:space="preserve" width="132px" height="171px" version="1.1" style="shape-rendering:geometricPrecision; text-rendering:geometricPrecision; image-rendering:optimizeQuality; fill-rule:evenodd; clip-rule:evenodd"
viewBox="0 0 5.22 6.76"
 xmlns:xlink="http://www.w3.org/1999/xlink">
 <defs>
  <style type="text/css">
   <![CDATA[
    .fil0 {fill:#2B2A29}
   ]]>
  </style>
 </defs>
 <g id="Слой_x0020_1">
  <metadata id="CorelCorpID_0Corel-Layer"/>
  <g id="_2997731610944">
   <path class="fil0" d="M3.96 5.31c-0.81,-0.39 -1.9,-0.36 -2.69,0 -0.04,-0.08 -0.08,-0.2 -0.13,-0.28 -0.14,-0.29 -0.43,-0.58 -0.79,-0.42 -0.59,0.26 -0.29,1.42 -0.1,1.94 0.1,0.26 0.08,0.2 0.65,0.2l3.84 0c0.18,0 0.17,-0.05 0.23,-0.19 0.08,-0.21 0.14,-0.43 0.19,-0.67 0.31,-1.5 -0.58,-1.48 -0.9,-1.13 -0.06,0.07 -0.12,0.16 -0.17,0.26 -0.05,0.08 -0.09,0.22 -0.13,0.29zm-3.44 1.18c1.31,0.02 2.77,0.01 4.09,0l0.1 0c0.12,-0.27 0.44,-1.37 0.11,-1.62 -0.18,-0.13 -0.36,0.05 -0.43,0.16 -0.09,0.14 -0.15,0.28 -0.21,0.46 -0.12,0.4 -0.35,-0.2 -1.57,-0.2 -0.41,0 -0.78,0.07 -1.13,0.21 -0.13,0.06 -0.36,0.24 -0.43,0.02 -0.06,-0.19 -0.11,-0.33 -0.2,-0.48 -0.07,-0.1 -0.24,-0.29 -0.42,-0.18 -0.15,0.09 -0.18,0.31 -0.17,0.52 0.02,0.38 0.13,0.8 0.26,1.11z"/>
   <path class="fil0" d="M1.52 1.35c-0.29,0.04 -0.52,0.25 -0.64,0.41 -0.18,0.25 -0.19,0.5 -0.19,0.86l0 1.57c0.03,0.12 0.26,0.17 0.26,-0.08 0.01,-0.4 -0.05,-1.77 0.05,-2.04 0.09,-0.22 0.31,-0.42 0.58,-0.47 0.23,-0.04 0.77,-0.01 1.03,-0.01 0.62,0 1.36,-0.15 1.61,0.48 0.11,0.27 0.05,1.64 0.06,2.04 0,0.24 0.22,0.21 0.25,0.08 0.02,-0.07 0.01,-1.43 0.01,-1.57 0,-0.37 -0.01,-0.61 -0.19,-0.86 -0.12,-0.16 -0.36,-0.38 -0.64,-0.41 0.1,-0.31 0.09,-0.11 0.09,-0.55 0,-0.23 0.01,-0.41 -0.11,-0.56 -0.24,-0.31 -0.61,-0.23 -1.08,-0.23 -0.47,0 -0.83,-0.08 -1.07,0.23 -0.12,0.14 -0.11,0.33 -0.11,0.54 0,0.1 -0.01,0.23 0,0.32 0.02,0.12 0.06,0.16 0.09,0.25zm0.41 -1.07c-0.23,0.06 -0.24,0.22 -0.24,0.48 0,0.27 -0.03,0.46 0.19,0.55 0.09,0.03 1.3,0.04 1.42,0.01 0.23,-0.05 0.23,-0.23 0.23,-0.48 0,-0.25 0.03,-0.45 -0.18,-0.54 -0.09,-0.04 -1.3,-0.05 -1.42,-0.02z"/>
   <path class="fil0" d="M2.86 4.52c0,0.13 0.04,0.25 0.18,0.2 0.11,-0.04 0.08,-0.18 0.09,-0.29 0,-0.23 0.03,-0.45 0.07,-0.67 0.04,-0.19 0.1,-0.39 0.17,-0.55 0.06,-0.13 0.12,-0.25 0.21,-0.36 0.03,-0.04 0.06,-0.05 0.08,-0.1 0.04,-0.09 -0.07,-0.37 -0.34,0.01 -0.33,0.46 -0.46,1.18 -0.46,1.76z"/>
   <path class="fil0" d="M1.62 2.58c-0.1,0.06 -0.07,0.17 -0.01,0.23 0.37,0.39 0.49,1.2 0.49,1.73 0.01,0.12 0.04,0.23 0.18,0.18 0.11,-0.04 0.09,-0.17 0.08,-0.29 -0.01,-0.34 -0.04,-0.65 -0.14,-0.97 -0.07,-0.24 -0.36,-1.01 -0.6,-0.88z"/>
  </g>
 </g>
</svg>
